<svg version="1.1" viewBox="0.0 0.0 768.0 476.0" fill="none" stroke="none" stroke-linecap="square" stroke-miterlimit="10" width="768" height="476" xmlns:xlink="http://www.w3.org/1999/xlink" xmlns="http://www.w3.org/2000/svg"><path fill="#f8fff7fff" d="M0 0L768.0 0L768.0 476.0L0 476.0L0 0Z" fill-rule="nonzero"/><path fill="#6d9eeb" d="M384.0 23.8C502.2994 23.8 598.2 119.70061 598.2 238.0C598.2 356.2994 502.2994 452.2 384.0 452.2L384.0 327.964C433.68573 327.964 473.964 287.68573 473.964 238.0C473.964 188.31425 433.68573 148.036 384.0 148.036Z" fill-rule="nonzero"/><path fill="#f8fff72cc" d="M350.49173 26.437157C361.57483 24.681767 372.77875 23.8 384.0 23.8L384.0 148.036C379.28708 148.036 374.58142 148.40634 369.92654 149.14362Z" fill-rule="nonzero"/><path fill="#c9daf8" d="M317.80856 34.283695C328.48062 30.816135 339.40863 28.192549 350.49173 26.437157L369.92654 149.14362C365.27164 149.88087 360.68185 150.98277 356.1996 152.43915Z" fill-rule="nonzero"/><path fill="#6aa84f" d="M258.0964 64.70856C276.28085 51.496788 296.43146 41.229534 317.80856 34.283695L356.1996 152.43915C347.22122 155.3564 338.75797 159.66866 331.12048 165.21759Z" fill-rule="nonzero"/><path fill="#274e13" d="M210.70856 112.0964C223.92033 93.91196 239.91196 77.920334 258.0964 64.70856L331.12048 165.21759C323.48303 170.76654 316.76654 177.48302 311.2176 185.12048Z" fill-rule="nonzero"/><path fill="#351c75" d="M180.28369 304.19144C159.09549 238.98083 170.40619 167.56786 210.70856 112.0964L311.2176 185.12048C294.2906 208.4185 289.5401 238.41194 298.43915 265.8004Z" fill-rule="nonzero"/><path fill="#b4a7d6" d="M384.0 452.2C291.20294 452.2 208.95956 392.4467 180.28369 304.19144L298.43915 265.8004C310.48303 302.8676 345.02524 327.964 384.0 327.964Z" fill-rule="nonzero"/><path fill="#1a1a1a" d="M27.940624 29.925L27.940624 36.190624L31.39375 36.190624L31.39375 34.675Q31.39375 34.096874 31.6125 33.8625Q31.83125 33.6125 32.190624 33.6125Q32.55 33.6125 32.76875 33.8625Q32.9875 34.096874 32.9875 34.675L32.9875 37.8L25.409374 37.8Q24.83125 37.8 24.58125 37.58125Q24.33125 37.346874 24.33125 36.9875Q24.33125 36.64375 24.58125 36.425Q24.83125 36.190624 25.409374 36.190624L26.33125 36.190624L26.33125 29.925L25.409374 29.925Q24.83125 29.925 24.58125 29.70625Q24.33125 29.4875 24.33125 29.128124Q24.33125 28.76875 24.58125 28.55Q24.83125 28.315624 25.409374 28.315624L28.878124 28.33125Q29.45625 28.33125 29.690624 28.55Q29.940624 28.76875 29.940624 29.128124Q29.940624 29.4875 29.690624 29.70625Q29.45625 29.925 28.878124 29.925L27.940624 29.925ZM42.628124 35.065624L36.05 35.065624Q36.3 35.690624 36.940624 36.08125Q37.58125 36.45625 38.659374 36.45625Q39.55 36.45625 41.034374 36.065624Q41.64375 35.909374 41.878124 35.909374Q42.190624 35.909374 42.409374 36.14375Q42.628124 36.3625 42.628124 36.70625Q42.628124 37.01875 42.39375 37.2375Q42.08125 37.534374 40.8625 37.8Q39.659374 38.065624 38.55 38.065624Q36.628124 38.065624 35.471874 36.971874Q34.315624 35.878124 34.315624 34.3Q34.315624 32.6125 35.565624 31.55Q36.815624 30.4875 38.440624 30.4875Q39.409374 30.4875 40.221874 30.83125Q41.05 31.175 41.440624 31.58125Q42.003124 32.159374 42.378124 33.003124Q42.628124 33.596874 42.628124 34.378124L42.628124 35.065624ZM40.846874 33.45625Q40.4875 32.76875 39.89375 32.440624Q39.3 32.096874 38.471874 32.096874Q37.659374 32.096874 37.065624 32.440624Q36.471874 32.76875 36.096874 33.45625L40.846874 33.45625ZM50.3625 31.175L50.3625 30.70625L52.2375 30.70625Q52.815624 30.70625 53.065624 30.925Q53.315624 31.14375 53.315624 31.503124Q53.315624 31.8625 53.065624 32.08125Q52.815624 32.3 52.2375 32.3L51.971874 32.3L51.971874 38.14375Q51.971874 38.9875 51.6125 39.6125Q51.253124 40.2375 50.51875 40.690624Q49.784374 41.14375 48.8625 41.14375L47.05 41.14375Q46.471874 41.14375 46.221874 40.925Q45.9875 40.70625 45.9875 40.346874Q45.9875 39.9875 46.221874 39.76875Q46.471874 39.55 47.05 39.55L48.815624 39.55Q49.55 39.55 49.95625 39.14375Q50.3625 38.753124 50.3625 38.14375L50.3625 37.346874Q49.83125 37.690624 49.284374 37.8625Q48.7375 38.05 48.159374 38.05Q46.51875 38.05 45.409374 36.95625Q44.315624 35.8625 44.315624 34.253124Q44.315624 32.64375 45.409374 31.565624Q46.51875 30.471874 48.159374 30.471874Q48.76875 30.471874 49.315624 30.64375Q49.8625 30.815624 50.3625 31.175ZM50.3625 34.253124Q50.3625 33.3625 49.70625 32.721874Q49.05 32.065624 48.14375 32.065624Q47.221874 32.065624 46.565624 32.721874Q45.925 33.3625 45.925 34.253124Q45.925 35.14375 46.565624 35.784374Q47.221874 36.425 48.14375 36.425Q49.05 36.425 49.70625 35.784374Q50.3625 35.14375 50.3625 34.253124ZM60.05 37.8L60.05 37.425Q59.440624 37.7375 58.70625 37.89375Q57.9875 38.065624 57.39375 38.065624Q56.1125 38.065624 55.3 37.378124Q54.503124 36.690624 54.503124 35.8625Q54.503124 34.8625 55.51875 34.003124Q56.55 33.128124 58.3625 33.128124Q59.096874 33.128124 60.05 33.284374L60.05 32.909374Q60.05 32.55 59.7375 32.33125Q59.425 32.096874 58.565624 32.096874Q57.846874 32.096874 56.721874 32.378124Q56.3 32.471874 56.065624 32.471874Q55.7375 32.471874 55.51875 32.253124Q55.3 32.01875 55.3 31.659374Q55.3 31.45625 55.378124 31.315624Q55.45625 31.159374 55.596874 31.065624Q55.7375 30.971874 56.175 30.846874Q56.76875 30.690624 57.378124 30.596874Q58.003124 30.4875 58.503124 30.4875Q60.003124 30.4875 60.815624 31.14375Q61.64375 31.784374 61.64375 32.89375L61.64375 36.190624L61.925 36.190624Q62.503124 36.190624 62.7375 36.425Q62.9875 36.64375 62.9875 37.003124Q62.9875 37.346874 62.7375 37.58125Q62.503124 37.8 61.925 37.8L60.05 37.8ZM60.05 34.925Q59.08125 34.7375 58.26875 34.7375Q57.3 34.7375 56.596874 35.221874Q56.159374 35.51875 56.159374 35.83125Q56.159374 36.065624 56.3625 36.20625Q56.753124 36.45625 57.440624 36.45625Q58.01875 36.45625 58.7375 36.2375Q59.471874 36.003124 60.05 35.6125L60.05 34.925ZM69.40938 27.659374L69.40938 36.190624L71.33125 36.190624Q71.90938 36.190624 72.14375 36.425Q72.39375 36.64375 72.39375 37.003124Q72.39375 37.346874 72.14375 37.58125Q71.90938 37.8 71.33125 37.8L65.87813 37.8Q65.3 37.8 65.05 37.58125Q64.81563 37.346874 64.81563 36.9875Q64.81563 36.64375 65.05 36.425Q65.3 36.190624 65.87813 36.190624L67.8 36.190624L67.8 29.26875L66.51875 29.26875Q65.94063 29.26875 65.69063 29.05Q65.44063 28.815624 65.44063 28.45625Q65.44063 28.1125 65.69063 27.89375Q65.94063 27.659374 66.51875 27.659374L69.40938 27.659374Z" fill-rule="nonzero"/><path fill="#9e9e9e" d="M27.1125 58.190624L30.6125 58.190624Q30.909374 57.95625 31.159374 57.95625Q31.534374 57.95625 31.7375 58.20625Q31.95625 58.440624 31.95625 59.034374L31.95625 59.8L24.659374 59.8L24.659374 58.096874Q28.9875 54.534374 29.89375 53.503124Q30.346874 52.9875 30.346874 52.51875Q30.346874 51.925 29.83125 51.4875Q29.315624 51.034374 28.471874 51.034374Q27.6125 51.034374 27.034374 51.534374Q26.7375 51.8 26.565624 52.315624Q26.45625 52.64375 26.253124 52.784374Q26.065624 52.925 25.784374 52.925Q25.45625 52.925 25.221874 52.690624Q24.9875 52.45625 24.9875 52.14375Q24.9875 51.675 25.409374 50.971874Q25.846874 50.26875 26.675 49.846874Q27.51875 49.425 28.4875 49.425Q30.003124 49.425 30.971874 50.346874Q31.940624 51.26875 31.940624 52.565624Q31.940624 53.2375 31.659374 53.8Q31.39375 54.3625 30.33125 55.3625Q29.503124 56.159374 27.1125 58.190624ZM39.83125 58.9875Q39.83125 59.440624 39.503124 59.753124Q39.190624 60.065624 38.628124 60.065624Q38.065624 60.065624 37.7375 59.753124Q37.425 59.440624 37.425 58.9875Q37.425 58.534374 37.7375 58.2375Q38.065624 57.925 38.628124 57.925Q39.190624 57.925 39.503124 58.2375Q39.83125 58.534374 39.83125 58.9875ZM47.253124 51.284374L47.253124 53.190624Q48.14375 52.909374 48.878124 52.909374Q50.346874 52.909374 51.315624 53.925Q52.3 54.925 52.3 56.51875Q52.3 58.159374 51.315624 59.096874Q50.33125 60.034374 48.284374 60.034374Q46.4875 60.034374 45.440624 59.346874Q44.83125 58.95625 44.83125 58.45625Q44.83125 58.128124 45.065624 57.89375Q45.315624 57.659374 45.64375 57.659374Q45.909374 57.659374 46.221874 57.925Q46.55 58.175 46.909374 58.284374Q47.409374 58.425 48.190624 58.425Q49.64375 58.425 50.175 57.971874Q50.70625 57.503124 50.70625 56.534374Q50.70625 55.596874 50.190624 55.065624Q49.675 54.51875 48.878124 54.51875Q48.003124 54.51875 46.89375 55.08125Q46.64375 55.20625 46.45625 55.20625Q46.1125 55.20625 45.878124 54.95625Q45.659374 54.70625 45.659374 54.315624L45.659374 49.690624L50.55 49.690624Q51.128124 49.690624 51.378124 49.909374Q51.628124 50.128124 51.628124 50.4875Q51.628124 50.846874 51.378124 51.065624Q51.128124 51.284374 50.55 51.284374L47.253124 51.284374ZM59.83125 52.01875Q59.83125 52.95625 59.175 53.628124Q58.51875 54.284374 57.58125 54.284374Q56.64375 54.284374 55.971874 53.628124Q55.315624 52.95625 55.315624 52.01875Q55.315624 51.08125 55.971874 50.425Q56.64375 49.753124 57.58125 49.753124Q58.51875 49.753124 59.175 50.425Q59.83125 51.08125 59.83125 52.01875ZM58.846874 52.01875Q58.846874 51.4875 58.471874 51.128124Q58.096874 50.753124 57.58125 50.753124Q57.05 50.753124 56.675 51.128124Q56.3 51.4875 56.3 52.01875Q56.3 52.55 56.675 52.925Q57.05 53.3 57.58125 53.3Q58.096874 53.3 58.471874 52.925Q58.846874 52.55 58.846874 52.01875ZM61.721874 54.409374L55.815624 56.315624Q55.596874 56.39375 55.503124 56.39375Q55.315624 56.39375 55.175 56.253124Q55.034374 56.096874 55.034374 55.8625Q55.034374 55.70625 55.14375 55.565624Q55.221874 55.471874 55.51875 55.378124L61.425 53.45625Q61.64375 53.39375 61.7375 53.39375Q61.925 53.39375 62.065624 53.55Q62.20625 53.690624 62.20625 53.909374Q62.20625 54.08125 62.096874 54.20625Q62.01875 54.315624 61.721874 54.409374ZM61.8625 57.76875Q61.8625 58.70625 61.190624 59.378124Q60.534374 60.034374 59.596874 60.034374Q58.659374 60.034374 57.9875 59.378124Q57.33125 58.70625 57.33125 57.76875Q57.33125 56.83125 57.9875 56.175Q58.659374 55.503124 59.596874 55.503124Q60.534374 55.503124 61.190624 56.175Q61.8625 56.83125 61.8625 57.76875ZM60.878124 57.76875Q60.878124 57.2375 60.503124 56.878124Q60.128124 56.503124 59.596874 56.503124Q59.08125 56.503124 58.70625 56.878124Q58.33125 57.2375 58.33125 57.76875Q58.33125 58.3 58.70625 58.675Q59.08125 59.034374 59.596874 59.034374Q60.128124 59.034374 60.503124 58.675Q60.878124 58.3 60.878124 57.76875Z" fill-rule="nonzero"/><path stroke="#757575" stroke-width="1.0" stroke-linecap="butt" d="M23.8 44.3L163.8 44.3L368.03436 35.13729" fill-rule="nonzero"/><path fill="#9e9e9e" d="M370.03436 35.13729C370.03436 34.032722 369.13892 33.13729 368.03436 33.13729C366.92978 33.13729 366.03436 34.032722 366.03436 35.13729C366.03436 36.24186 366.92978 37.13729 368.03436 37.13729C369.13892 37.13729 370.03436 36.24186 370.03436 35.13729" fill-rule="nonzero"/><path fill="#1a1a1a" d="M26.096874 72.425L26.096874 77.19063L26.675 77.19063Q27.253124 77.19063 27.503124 77.425Q27.753124 77.64375 27.753124 78.00313Q27.753124 78.34688 27.503124 78.58125Q27.253124 78.8 26.675 78.8L24.58125 78.8Q24.003124 78.8 23.753124 78.58125Q23.503124 78.34688 23.503124 77.9875Q23.503124 77.64375 23.753124 77.425Q23.9875 77.19063 24.503124 77.19063L24.503124 70.925Q24.08125 70.89375 23.8625 70.675Q23.64375 70.45625 23.64375 70.12813Q23.64375 69.76875 23.89375 69.55Q24.14375 69.31563 24.721874 69.31563L26.471874 69.33125L28.659374 74.14375L30.8 69.31563L32.565624 69.33125Q33.14375 69.33125 33.39375 69.55Q33.64375 69.76875 33.64375 70.12813Q33.64375 70.45625 33.425 70.675Q33.20625 70.89375 32.784374 70.925L32.784374 77.19063Q33.3 77.19063 33.534374 77.425Q33.784374 77.64375 33.784374 78.00313Q33.784374 78.34688 33.534374 78.58125Q33.284374 78.8 32.70625 78.8L30.596874 78.8Q30.034374 78.8 29.784374 78.58125Q29.534374 78.34688 29.534374 77.9875Q29.534374 77.64375 29.784374 77.425Q30.034374 77.19063 30.596874 77.19063L31.190624 77.19063L31.190624 72.425L29.346874 76.55L27.95625 76.55L26.096874 72.425ZM40.05 78.8L40.05 78.425Q39.440624 78.7375 38.70625 78.89375Q37.9875 79.06563 37.39375 79.06563Q36.1125 79.06563 35.3 78.37813Q34.503124 77.69063 34.503124 76.8625Q34.503124 75.8625 35.51875 75.00313Q36.55 74.12813 38.3625 74.12813Q39.096874 74.12813 40.05 74.28438L40.05 73.90938Q40.05 73.55 39.7375 73.33125Q39.425 73.09688 38.565624 73.09688Q37.846874 73.09688 36.721874 73.37813Q36.3 73.47188 36.065624 73.47188Q35.7375 73.47188 35.51875 73.25313Q35.3 73.01875 35.3 72.65938Q35.3 72.45625 35.378124 72.31563Q35.45625 72.15938 35.596874 72.06563Q35.7375 71.97188 36.175 71.84688Q36.76875 71.69063 37.378124 71.59688Q38.003124 71.4875 38.503124 71.4875Q40.003124 71.4875 40.815624 72.14375Q41.64375 72.78438 41.64375 73.89375L41.64375 77.19063L41.925 77.19063Q42.503124 77.19063 42.7375 77.425Q42.9875 77.64375 42.9875 78.00313Q42.9875 78.34688 42.7375 78.58125Q42.503124 78.8 41.925 78.8L40.05 78.8ZM40.05 75.925Q39.08125 75.7375 38.26875 75.7375Q37.3 75.7375 36.596874 76.22188Q36.159374 76.51875 36.159374 76.83125Q36.159374 77.06563 36.3625 77.20625Q36.753124 77.45625 37.440624 77.45625Q38.01875 77.45625 38.7375 77.2375Q39.471874 77.00313 40.05 76.6125L40.05 75.925ZM48.26875 71.70625L48.26875 72.70625Q49.284374 71.97188 49.8625 71.7375Q50.440624 71.4875 50.95625 71.4875Q51.7375 71.4875 52.471874 72.06563Q52.971874 72.45625 52.971874 72.8625Q52.971874 73.20625 52.721874 73.45625Q52.4875 73.69063 52.159374 73.69063Q51.8625 73.69063 51.534374 73.39375Q51.20625 73.09688 50.940624 73.09688Q50.6125 73.09688 49.940624 73.51875Q49.26875 73.94063 48.26875 74.78438L48.26875 77.19063L50.55 77.19063Q51.128124 77.19063 51.378124 77.425Q51.628124 77.64375 51.628124 78.00313Q51.628124 78.34688 51.378124 78.58125Q51.128124 78.8 50.55 78.8L45.721874 78.8Q45.14375 78.8 44.89375 78.58125Q44.64375 78.34688 44.64375 77.9875Q44.64375 77.64375 44.89375 77.425Q45.14375 77.19063 45.721874 77.19063L46.675 77.19063L46.675 73.3L46.096874 73.3Q45.51875 73.3 45.26875 73.08125Q45.01875 72.8625 45.01875 72.50313Q45.01875 72.14375 45.26875 71.925Q45.51875 71.70625 46.096874 71.70625L48.26875 71.70625ZM57.284374 76.12813L57.284374 78.8L55.409374 78.8Q54.83125 78.8 54.58125 78.58125Q54.346874 78.34688 54.346874 77.9875Q54.346874 77.64375 54.596874 77.425Q54.846874 77.19063 55.409374 77.19063L55.690624 77.19063L55.690624 70.26875L55.409374 70.26875Q54.83125 70.26875 54.58125 70.05Q54.346874 69.81563 54.346874 69.45625Q54.346874 69.1125 54.58125 68.89375Q54.83125 68.65938 55.409374 68.65938L57.284374 68.65938L57.284374 74.06563L58.534374 73.05Q58.346874 72.72188 58.346874 72.50313Q58.346874 72.14375 58.58125 71.925Q58.83125 71.70625 59.409374 71.70625L61.2375 71.70625Q61.815624 71.70625 62.05 71.925Q62.3 72.14375 62.3 72.50313Q62.3 72.8625 62.05 73.08125Q61.815624 73.3 61.2375 73.3L60.784374 73.3L58.846874 74.87813L61.45625 77.19063L61.925 77.19063Q62.503124 77.19063 62.753124 77.425Q63.003124 77.64375 63.003124 78.00313Q63.003124 78.34688 62.753124 78.58125Q62.503124 78.8 61.925 78.8L60.08125 78.8Q59.503124 78.8 59.253124 78.58125Q59.01875 78.34688 59.01875 77.9875Q59.01875 77.69063 59.284374 77.39375L57.58125 75.89375L57.284374 76.12813ZM72.62813 76.06563L66.05 76.06563Q66.3 76.69063 66.94063 77.08125Q67.58125 77.45625 68.65938 77.45625Q69.55 77.45625 71.03438 77.06563Q71.64375 76.90938 71.87813 76.90938Q72.19063 76.90938 72.40938 77.14375Q72.62813 77.3625 72.62813 77.70625Q72.62813 78.01875 72.39375 78.2375Q72.08125 78.53438 70.8625 78.8Q69.65938 79.06563 68.55 79.06563Q66.62813 79.06563 65.47188 77.97188Q64.31563 76.87813 64.31563 75.3Q64.31563 73.6125 65.56563 72.55Q66.81563 71.4875 68.44063 71.4875Q69.40938 71.4875 70.22188 71.83125Q71.05 72.175 71.44063 72.58125Q72.00313 73.15938 72.37813 74.00313Q72.62813 74.59688 72.62813 75.37813L72.62813 76.06563ZM70.84688 74.45625Q70.4875 73.76875 69.89375 73.44063Q69.3 73.09688 68.47188 73.09688Q67.65938 73.09688 67.06563 73.44063Q66.47188 73.76875 66.09688 74.45625L70.84688 74.45625ZM78.20625 73.3L78.20625 76.51875Q78.20625 77.03438 78.425 77.19063Q78.75313 77.45625 79.59688 77.45625Q80.81563 77.45625 81.8625 76.925Q82.25313 76.72188 82.4875 76.72188Q82.8 76.72188 83.01875 76.95625Q83.25313 77.19063 83.25313 77.53438Q83.25313 77.84688 83.00313 78.06563Q82.62813 78.44063 81.4875 78.75313Q80.3625 79.06563 79.59688 79.06563Q78.09688 79.06563 77.34688 78.425Q76.6125 77.76875 76.6125 76.83125L76.6125 73.3L76.03438 73.3Q75.45625 73.3 75.20625 73.08125Q74.95625 72.8625 74.95625 72.50313Q74.95625 72.14375 75.20625 71.925Q75.45625 71.70625 76.03438 71.70625L76.6125 71.70625L76.6125 70.25313Q76.6125 69.675 76.83125 69.44063Q77.05 69.19063 77.40938 69.19063Q77.76875 69.19063 77.9875 69.44063Q78.20625 69.675 78.20625 70.25313L78.20625 71.70625L81.175 71.70625Q81.75313 71.70625 81.9875 71.925Q82.2375 72.14375 82.2375 72.50313Q82.2375 72.8625 81.9875 73.08125Q81.75313 73.3 81.175 73.3L78.20625 73.3ZM89.175 68.65938L89.175 70.3625L87.26875 70.3625L87.26875 68.65938L89.175 68.65938ZM89.39375 71.70625L89.39375 77.19063L91.31563 77.19063Q91.89375 77.19063 92.14375 77.425Q92.39375 77.64375 92.39375 78.00313Q92.39375 78.34688 92.14375 78.58125Q91.89375 78.8 91.31563 78.8L85.87813 78.8Q85.3 78.8 85.05 78.58125Q84.8 78.34688 84.8 77.9875Q84.8 77.64375 85.05 77.425Q85.3 77.19063 85.87813 77.19063L87.8 77.19063L87.8 73.3L86.50313 73.3Q85.94063 73.3 85.69063 73.08125Q85.44063 72.8625 85.44063 72.50313Q85.44063 72.14375 85.675 71.925Q85.925 71.70625 86.50313 71.70625L89.39375 71.70625ZM96.9875 71.70625L96.9875 72.2375Q97.425 71.8625 97.94063 71.675Q98.47188 71.4875 99.09688 71.4875Q100.51875 71.4875 101.34688 72.37813Q102.00313 73.08125 102.00313 74.22188L102.00313 77.19063Q102.50313 77.19063 102.7375 77.425Q102.9875 77.64375 102.9875 78.00313Q102.9875 78.34688 102.7375 78.58125Q102.50313 78.8 101.925 78.8L100.47188 78.8Q99.89375 78.8 99.64375 78.58125Q99.40938 78.34688 99.40938 77.9875Q99.40938 77.64375 99.64375 77.425Q99.89375 77.19063 100.39375 77.19063L100.39375 74.175Q100.39375 73.64375 100.1125 73.40938Q99.75313 73.09688 99.01875 73.09688Q98.45625 73.09688 98.03438 73.31563Q97.62813 73.51875 96.9875 74.22188L96.9875 77.19063Q97.59688 77.19063 97.78438 77.31563Q98.15938 77.55 98.15938 78.00313Q98.15938 78.34688 97.90938 78.58125Q97.675 78.8 97.09688 78.8L95.26875 78.8Q94.69063 78.8 94.44063 78.58125Q94.20625 78.34688 94.20625 77.9875Q94.20625 77.55 94.58125 77.31563Q94.76875 77.19063 95.37813 77.19063L95.37813 73.3Q94.87813 73.3 94.62813 73.08125Q94.39375 72.84688 94.39375 72.50313Q94.39375 72.14375 94.62813 71.925Q94.87813 71.70625 95.45625 71.70625L96.9875 71.70625ZM110.3625 72.175L110.3625 71.70625L112.2375 71.70625Q112.81563 71.70625 113.06563 71.925Q113.31563 72.14375 113.31563 72.50313Q113.31563 72.8625 113.06563 73.08125Q112.81563 73.3 112.2375 73.3L111.97188 73.3L111.97188 79.14375Q111.97188 79.9875 111.6125 80.6125Q111.25313 81.2375 110.51875 81.69063Q109.78438 82.14375 108.8625 82.14375L107.05 82.14375Q106.47188 82.14375 106.22188 81.925Q105.9875 81.70625 105.9875 81.34688Q105.9875 80.9875 106.22188 80.76875Q106.47188 80.55 107.05 80.55L108.81563 80.55Q109.55 80.55 109.95625 80.14375Q110.3625 79.75313 110.3625 79.14375L110.3625 78.34688Q109.83125 78.69063 109.28438 78.8625Q108.7375 79.05 108.15938 79.05Q106.51875 79.05 105.40938 77.95625Q104.31563 76.8625 104.31563 75.25313Q104.31563 73.64375 105.40938 72.56563Q106.51875 71.47188 108.15938 71.47188Q108.76875 71.47188 109.31563 71.64375Q109.8625 71.81563 110.3625 72.175ZM110.3625 75.25313Q110.3625 74.3625 109.70625 73.72188Q109.05 73.06563 108.14375 73.06563Q107.22188 73.06563 106.56563 73.72188Q105.925 74.3625 105.925 75.25313Q105.925 76.14375 106.56563 76.78438Q107.22188 77.425 108.14375 77.425Q109.05 77.425 109.70625 76.78438Q110.3625 76.14375 110.3625 75.25313Z" fill-rule="nonzero"/><path fill="#9e9e9e" d="M27.1125 99.19063L30.6125 99.19063Q30.909374 98.95625 31.159374 98.95625Q31.534374 98.95625 31.7375 99.20625Q31.95625 99.44063 31.95625 100.03438L31.95625 100.8L24.659374 100.8L24.659374 99.09688Q28.9875 95.53438 29.89375 94.50313Q30.346874 93.9875 30.346874 93.51875Q30.346874 92.925 29.83125 92.4875Q29.315624 92.03438 28.471874 92.03438Q27.6125 92.03438 27.034374 92.53438Q26.7375 92.8 26.565624 93.31563Q26.45625 93.64375 26.253124 93.78438Q26.065624 93.925 25.784374 93.925Q25.45625 93.925 25.221874 93.69063Q24.9875 93.45625 24.9875 93.14375Q24.9875 92.675 25.409374 91.97188Q25.846874 91.26875 26.675 90.84688Q27.51875 90.425 28.4875 90.425Q30.003124 90.425 30.971874 91.34688Q31.940624 92.26875 31.940624 93.56563Q31.940624 94.2375 31.659374 94.8Q31.39375 95.3625 30.33125 96.3625Q29.503124 97.15938 27.1125 99.19063ZM39.83125 99.9875Q39.83125 100.44063 39.503124 100.75313Q39.190624 101.06563 38.628124 101.06563Q38.065624 101.06563 37.7375 100.75313Q37.425 100.44063 37.425 99.9875Q37.425 99.53438 37.7375 99.2375Q38.065624 98.925 38.628124 98.925Q39.190624 98.925 39.503124 99.2375Q39.83125 99.53438 39.83125 99.9875ZM47.253124 92.28438L47.253124 94.19063Q48.14375 93.90938 48.878124 93.90938Q50.346874 93.90938 51.315624 94.925Q52.3 95.925 52.3 97.51875Q52.3 99.15938 51.315624 100.09688Q50.33125 101.03438 48.284374 101.03438Q46.4875 101.03438 45.440624 100.34688Q44.83125 99.95625 44.83125 99.45625Q44.83125 99.12813 45.065624 98.89375Q45.315624 98.65938 45.64375 98.65938Q45.909374 98.65938 46.221874 98.925Q46.55 99.175 46.909374 99.28438Q47.409374 99.425 48.190624 99.425Q49.64375 99.425 50.175 98.97188Q50.70625 98.50313 50.70625 97.53438Q50.70625 96.59688 50.190624 96.06563Q49.675 95.51875 48.878124 95.51875Q48.003124 95.51875 46.89375 96.08125Q46.64375 96.20625 46.45625 96.20625Q46.1125 96.20625 45.878124 95.95625Q45.659374 95.70625 45.659374 95.31563L45.659374 90.69063L50.55 90.69063Q51.128124 90.69063 51.378124 90.90938Q51.628124 91.12813 51.628124 91.4875Q51.628124 91.84688 51.378124 92.06563Q51.128124 92.28438 50.55 92.28438L47.253124 92.28438ZM59.83125 93.01875Q59.83125 93.95625 59.175 94.62813Q58.51875 95.28438 57.58125 95.28438Q56.64375 95.28438 55.971874 94.62813Q55.315624 93.95625 55.315624 93.01875Q55.315624 92.08125 55.971874 91.425Q56.64375 90.75313 57.58125 90.75313Q58.51875 90.75313 59.175 91.425Q59.83125 92.08125 59.83125 93.01875ZM58.846874 93.01875Q58.846874 92.4875 58.471874 92.12813Q58.096874 91.75313 57.58125 91.75313Q57.05 91.75313 56.675 92.12813Q56.3 92.4875 56.3 93.01875Q56.3 93.55 56.675 93.925Q57.05 94.3 57.58125 94.3Q58.096874 94.3 58.471874 93.925Q58.846874 93.55 58.846874 93.01875ZM61.721874 95.40938L55.815624 97.31563Q55.596874 97.39375 55.503124 97.39375Q55.315624 97.39375 55.175 97.25313Q55.034374 97.09688 55.034374 96.8625Q55.034374 96.70625 55.14375 96.56563Q55.221874 96.47188 55.51875 96.37813L61.425 94.45625Q61.64375 94.39375 61.7375 94.39375Q61.925 94.39375 62.065624 94.55Q62.20625 94.69063 62.20625 94.90938Q62.20625 95.08125 62.096874 95.20625Q62.01875 95.31563 61.721874 95.40938ZM61.8625 98.76875Q61.8625 99.70625 61.190624 100.37813Q60.534374 101.03438 59.596874 101.03438Q58.659374 101.03438 57.9875 100.37813Q57.33125 99.70625 57.33125 98.76875Q57.33125 97.83125 57.9875 97.175Q58.659374 96.50313 59.596874 96.50313Q60.534374 96.50313 61.190624 97.175Q61.8625 97.83125 61.8625 98.76875ZM60.878124 98.76875Q60.878124 98.2375 60.503124 97.87813Q60.128124 97.50313 59.596874 97.50313Q59.08125 97.50313 58.70625 97.87813Q58.33125 98.2375 58.33125 98.76875Q58.33125 99.3 58.70625 99.675Q59.08125 100.03438 59.596874 100.03438Q60.128124 100.03438 60.503124 99.675Q60.878124 99.3 60.878124 98.76875Z" fill-rule="nonzero"/><path stroke="#757575" stroke-width="1.0" stroke-linecap="butt" d="M23.8 85.3L163.8 85.3L336.49622 40.132446" fill-rule="nonzero"/><path fill="#9e9e9e" d="M338.49622 40.132446C338.49622 39.027874 337.60077 38.132446 336.49622 38.132446C335.39163 38.132446 334.49622 39.027874 334.49622 40.132446C334.49622 41.237015 335.39163 42.132446 336.49622 42.132446C337.60077 42.132446 338.49622 41.237015 338.49622 40.132446" fill-rule="nonzero"/><path fill="#1a1a1a" d="M26.26875 119.39375Q26.05 119.64375 25.925 119.72188Q25.8 119.78438 25.6125 119.78438Q25.2375 119.78438 25.01875 119.53438Q24.8 119.28438 24.8 118.72188L24.8 117.64375Q24.8 117.06563 25.01875 116.81563Q25.2375 116.56563 25.6125 116.56563Q25.89375 116.56563 26.08125 116.72188Q26.26875 116.8625 26.3625 117.22188Q26.471874 117.56563 26.58125 117.69063Q26.815624 117.925 27.39375 118.175Q27.971874 118.425 28.659374 118.425Q29.721874 118.425 30.409374 117.925Q30.846874 117.62813 30.846874 117.175Q30.846874 116.87813 30.628124 116.62813Q30.425 116.3625 29.95625 116.19063Q29.64375 116.06563 28.55 115.8625Q27.2375 115.62813 26.565624 115.28438Q25.89375 114.94063 25.503124 114.31563Q25.1125 113.69063 25.1125 112.95625Q25.1125 111.81563 26.065624 110.95625Q27.034374 110.08125 28.58125 110.08125Q29.190624 110.08125 29.721874 110.22188Q30.253124 110.3625 30.675 110.64375Q30.9875 110.33125 31.3 110.33125Q31.659374 110.33125 31.878124 110.58125Q32.096874 110.83125 32.096874 111.39375L32.096874 112.59688Q32.096874 113.175 31.878124 113.425Q31.659374 113.675 31.3 113.675Q31.003124 113.675 30.784374 113.4875Q30.6125 113.3625 30.51875 112.97188Q30.440624 112.56563 30.315624 112.39375Q30.08125 112.09688 29.628124 111.89375Q29.175 111.69063 28.58125 111.69063Q27.721874 111.69063 27.20625 112.09688Q26.70625 112.4875 26.70625 112.925Q26.70625 113.22188 26.909374 113.50313Q27.128124 113.78438 27.51875 113.94063Q27.784374 114.05 29.01875 114.3Q30.253124 114.53438 30.909374 114.83125Q31.565624 115.1125 32.003124 115.7375Q32.440624 116.34688 32.440624 117.19063Q32.440624 118.37813 31.6125 119.09688Q30.503124 120.03438 28.784374 120.03438Q28.1125 120.03438 27.4875 119.8625Q26.8625 119.70625 26.26875 119.39375ZM42.76875 116.37813Q42.76875 117.3 42.253124 118.175Q41.7375 119.03438 40.721874 119.55Q39.721874 120.06563 38.6125 120.06563Q37.51875 120.06563 36.51875 119.56563Q35.51875 119.05 34.9875 118.19063Q34.471874 117.31563 34.471874 116.3625Q34.471874 115.40938 35.003124 114.4875Q35.534374 113.55 36.534374 113.01875Q37.534374 112.4875 38.6125 112.4875Q39.70625 112.4875 40.721874 113.03438Q41.7375 113.58125 42.253124 114.50313Q42.76875 115.40938 42.76875 116.37813ZM41.159374 116.39375Q41.159374 115.6125 40.6125 114.97188Q39.846874 114.09688 38.6125 114.09688Q37.534374 114.09688 36.8 114.8Q36.08125 115.4875 36.08125 116.39375Q36.08125 117.14375 36.815624 117.8Q37.55 118.45625 38.6125 118.45625Q39.690624 118.45625 40.425 117.8Q41.159374 117.14375 41.159374 116.39375ZM51.096874 112.9875Q51.39375 112.72188 51.690624 112.72188Q52.034374 112.72188 52.253124 112.97188Q52.4875 113.20625 52.4875 113.78438L52.4875 114.81563Q52.4875 115.39375 52.253124 115.64375Q52.034374 115.87813 51.675 115.87813Q51.346874 115.87813 51.128124 115.69063Q50.95625 115.55 50.8625 115.1125Q50.76875 114.675 50.409374 114.47188Q49.784374 114.09688 48.8 114.09688Q47.659374 114.09688 46.971874 114.76875Q46.3 115.425 46.3 116.44063Q46.3 117.37813 46.95625 117.925Q47.6125 118.45625 49.128124 118.45625Q50.128124 118.45625 50.76875 118.25313Q51.14375 118.12813 51.471874 117.83125Q51.815624 117.53438 52.08125 117.53438Q52.409374 117.53438 52.64375 117.78438Q52.89375 118.01875 52.89375 118.34688Q52.89375 118.87813 52.159374 119.34688Q51.08125 120.06563 49.003124 120.06563Q47.14375 120.06563 46.096874 119.28438Q44.690624 118.25313 44.690624 116.44063Q44.690624 114.7375 45.83125 113.6125Q46.971874 112.4875 48.815624 112.4875Q49.471874 112.4875 50.034374 112.6125Q50.6125 112.7375 51.096874 112.9875ZM59.175 109.65938L59.175 111.3625L57.26875 111.3625L57.26875 109.65938L59.175 109.65938ZM59.39375 112.70625L59.39375 118.19063L61.315624 118.19063Q61.89375 118.19063 62.14375 118.425Q62.39375 118.64375 62.39375 119.00313Q62.39375 119.34688 62.14375 119.58125Q61.89375 119.8 61.315624 119.8L55.878124 119.8Q55.3 119.8 55.05 119.58125Q54.8 119.34688 54.8 118.9875Q54.8 118.64375 55.05 118.425Q55.3 118.19063 55.878124 118.19063L57.8 118.19063L57.8 114.3L56.503124 114.3Q55.940624 114.3 55.690624 114.08125Q55.440624 113.8625 55.440624 113.50313Q55.440624 113.14375 55.675 112.925Q55.925 112.70625 56.503124 112.70625L59.39375 112.70625ZM70.05 119.8L70.05 119.425Q69.44063 119.7375 68.70625 119.89375Q67.9875 120.06563 67.39375 120.06563Q66.1125 120.06563 65.3 119.37813Q64.50313 118.69063 64.50313 117.8625Q64.50313 116.8625 65.51875 116.00313Q66.55 115.12813 68.3625 115.12813Q69.09688 115.12813 70.05 115.28438L70.05 114.90938Q70.05 114.55 69.7375 114.33125Q69.425 114.09688 68.56563 114.09688Q67.84688 114.09688 66.72188 114.37813Q66.3 114.47188 66.06563 114.47188Q65.7375 114.47188 65.51875 114.25313Q65.3 114.01875 65.3 113.65938Q65.3 113.45625 65.37813 113.31563Q65.45625 113.15938 65.59688 113.06563Q65.7375 112.97188 66.175 112.84688Q66.76875 112.69063 67.37813 112.59688Q68.00313 112.4875 68.50313 112.4875Q70.00313 112.4875 70.81563 113.14375Q71.64375 113.78438 71.64375 114.89375L71.64375 118.19063L71.925 118.19063Q72.50313 118.19063 72.7375 118.425Q72.9875 118.64375 72.9875 119.00313Q72.9875 119.34688 72.7375 119.58125Q72.50313 119.8 71.925 119.8L70.05 119.8ZM70.05 116.925Q69.08125 116.7375 68.26875 116.7375Q67.3 116.7375 66.59688 117.22188Q66.15938 117.51875 66.15938 117.83125Q66.15938 118.06563 66.3625 118.20625Q66.75313 118.45625 67.44063 118.45625Q68.01875 118.45625 68.7375 118.2375Q69.47188 118.00313 70.05 117.6125L70.05 116.925ZM79.40938 109.65938L79.40938 118.19063L81.33125 118.19063Q81.90938 118.19063 82.14375 118.425Q82.39375 118.64375 82.39375 119.00313Q82.39375 119.34688 82.14375 119.58125Q81.90938 119.8 81.33125 119.8L75.87813 119.8Q75.3 119.8 75.05 119.58125Q74.81563 119.34688 74.81563 118.9875Q74.81563 118.64375 75.05 118.425Q75.3 118.19063 75.87813 118.19063L77.8 118.19063L77.8 111.26875L76.51875 111.26875Q75.94063 111.26875 75.69063 111.05Q75.44063 110.81563 75.44063 110.45625Q75.44063 110.1125 75.69063 109.89375Q75.94063 109.65938 76.51875 109.65938L79.40938 109.65938ZM99.40938 111.925L99.40938 118.19063L101.01875 118.19063Q101.59688 118.19063 101.84688 118.425Q102.09688 118.64375 102.09688 119.00313Q102.09688 119.34688 101.84688 119.58125Q101.59688 119.8 101.01875 119.8L96.19063 119.8Q95.6125 119.8 95.3625 119.58125Q95.1125 119.34688 95.1125 118.9875Q95.1125 118.64375 95.3625 118.425Q95.6125 118.19063 96.19063 118.19063L97.8 118.19063L97.8 111.925L96.19063 111.925Q95.6125 111.925 95.3625 111.70625Q95.1125 111.4875 95.1125 111.12813Q95.1125 110.76875 95.3625 110.55Q95.6125 110.31563 96.19063 110.31563L101.01875 110.33125Q101.59688 110.33125 101.84688 110.55Q102.09688 110.76875 102.09688 111.12813Q102.09688 111.4875 101.84688 111.70625Q101.59688 111.925 101.01875 111.925L99.40938 111.925ZM106.12813 112.70625L106.12813 113.15938Q106.51875 112.76875 106.83125 112.62813Q107.15938 112.4875 107.56563 112.4875Q107.925 112.4875 108.26875 112.65938Q108.6125 112.83125 108.94063 113.175Q109.34688 112.83125 109.76875 112.65938Q110.20625 112.4875 110.64375 112.4875Q111.53438 112.4875 112.09688 112.97188Q112.83125 113.59688 112.83125 114.6125L112.83125 118.19063Q113.33125 118.19063 113.56563 118.425Q113.81563 118.64375 113.81563 119.00313Q113.81563 119.34688 113.56563 119.58125Q113.33125 119.8 112.75313 119.8L111.22188 119.8L111.22188 114.7375Q111.22188 114.37813 111.08125 114.2375Q110.95625 114.09688 110.69063 114.09688Q110.425 114.09688 110.19063 114.2375Q109.90938 114.425 109.4875 114.97188L109.4875 118.19063Q109.9875 118.19063 110.22188 118.425Q110.47188 118.64375 110.47188 119.00313Q110.47188 119.34688 110.22188 119.58125Q109.9875 119.8 109.40938 119.8L107.89375 119.8L107.89375 114.7375Q107.89375 114.37813 107.75313 114.2375Q107.6125 114.09688 107.34688 114.09688Q107.06563 114.09688 106.78438 114.26875Q106.51875 114.44063 106.12813 114.97188L106.12813 118.19063Q106.62813 118.19063 106.87813 118.425Q107.12813 118.64375 107.12813 119.00313Q107.12813 119.34688 106.87813 119.58125Q106.62813 119.8 106.05 119.8L104.6125 119.8Q104.03438 119.8 103.78438 119.58125Q103.53438 119.34688 103.53438 118.9875Q103.53438 118.64375 103.78438 118.425Q104.01875 118.19063 104.53438 118.19063L104.53438 114.3Q104.01875 114.3 103.78438 114.08125Q103.53438 113.84688 103.53438 113.50313Q103.53438 113.14375 103.78438 112.925Q104.03438 112.70625 104.6125 112.70625L106.12813 112.70625ZM116.6125 118.90938L116.6125 121.55L117.58125 121.55Q118.15938 121.55 118.39375 121.76875Q118.64375 121.9875 118.64375 122.34688Q118.64375 122.70625 118.39375 122.925Q118.15938 123.14375 117.58125 123.14375L114.7375 123.14375Q114.15938 123.14375 113.90938 122.925Q113.65938 122.70625 113.65938 122.34688Q113.65938 121.9875 113.90938 121.76875Q114.175 121.55 114.7375 121.55L115.01875 121.55L115.01875 114.3L114.7375 114.3Q114.15938 114.3 113.90938 114.08125Q113.65938 113.8625 113.65938 113.50313Q113.65938 113.14375 113.90938 112.925Q114.15938 112.70625 114.7375 112.70625L116.6125 112.70625L116.6125 113.25313Q117.175 112.8625 117.76875 112.675Q118.37813 112.4875 119.01875 112.4875Q120.65938 112.4875 121.81563 113.6125Q122.97188 114.72188 122.97188 116.15938Q122.97188 117.7375 121.59688 118.76875Q120.45625 119.62813 119.03438 119.62813Q118.40938 119.62813 117.8 119.45625Q117.20625 119.26875 116.6125 118.90938ZM121.3625 116.15938Q121.3625 115.83125 121.09688 115.31563Q120.83125 114.78438 120.28438 114.44063Q119.7375 114.09688 118.9875 114.09688Q117.8 114.09688 117.09688 114.9875Q116.6125 115.6125 116.6125 116.175Q116.6125 116.81563 117.3 117.425Q117.9875 118.03438 118.9875 118.03438Q120.00313 118.03438 120.675 117.44063Q121.3625 116.83125 121.3625 116.15938ZM130.05 119.8L130.05 119.425Q129.44063 119.7375 128.70625 119.89375Q127.9875 120.06563 127.39375 120.06563Q126.1125 120.06563 125.3 119.37813Q124.50313 118.69063 124.50313 117.8625Q124.50313 116.8625 125.51875 116.00313Q126.55 115.12813 128.3625 115.12813Q129.09688 115.12813 130.05 115.28438L130.05 114.90938Q130.05 114.55 129.7375 114.33125Q129.425 114.09688 128.56563 114.09688Q127.84688 114.09688 126.72188 114.37813Q126.3 114.47188 126.06563 114.47188Q125.7375 114.47188 125.51875 114.25313Q125.3 114.01875 125.3 113.65938Q125.3 113.45625 125.37813 113.31563Q125.45625 113.15938 125.59688 113.06563Q125.7375 112.97188 126.175 112.84688Q126.76875 112.69063 127.37813 112.59688Q128.00313 112.4875 128.50313 112.4875Q130.00313 112.4875 130.81563 113.14375Q131.64375 113.78438 131.64375 114.89375L131.64375 118.19063L131.925 118.19063Q132.50313 118.19063 132.7375 118.425Q132.9875 118.64375 132.9875 119.00313Q132.9875 119.34688 132.7375 119.58125Q132.50313 119.8 131.925 119.8L130.05 119.8ZM130.05 116.925Q129.08125 116.7375 128.26875 116.7375Q127.3 116.7375 126.59688 117.22188Q126.15938 117.51875 126.15938 117.83125Q126.15938 118.06563 126.3625 118.20625Q126.75313 118.45625 127.44063 118.45625Q128.01875 118.45625 128.7375 118.2375Q129.47188 118.00313 130.05 117.6125L130.05 116.925ZM141.09688 112.9875Q141.39375 112.72188 141.69063 112.72188Q142.03438 112.72188 142.25313 112.97188Q142.4875 113.20625 142.4875 113.78438L142.4875 114.81563Q142.4875 115.39375 142.25313 115.64375Q142.03438 115.87813 141.675 115.87813Q141.34688 115.87813 141.12813 115.69063Q140.95625 115.55 140.8625 115.1125Q140.76875 114.675 140.40938 114.47188Q139.78438 114.09688 138.8 114.09688Q137.65938 114.09688 136.97188 114.76875Q136.3 115.425 136.3 116.44063Q136.3 117.37813 136.95625 117.925Q137.6125 118.45625 139.12813 118.45625Q140.12813 118.45625 140.76875 118.25313Q141.14375 118.12813 141.47188 117.83125Q141.81563 117.53438 142.08125 117.53438Q142.40938 117.53438 142.64375 117.78438Q142.89375 118.01875 142.89375 118.34688Q142.89375 118.87813 142.15938 119.34688Q141.08125 120.06563 139.00313 120.06563Q137.14375 120.06563 136.09688 119.28438Q134.69063 118.25313 134.69063 116.44063Q134.69063 114.7375 135.83125 113.6125Q136.97188 112.4875 138.81563 112.4875Q139.47188 112.4875 140.03438 112.6125Q140.6125 112.7375 141.09688 112.9875ZM148.20625 114.3L148.20625 117.51875Q148.20625 118.03438 148.425 118.19063Q148.75313 118.45625 149.59688 118.45625Q150.81563 118.45625 151.8625 117.925Q152.25313 117.72188 152.4875 117.72188Q152.8 117.72188 153.01875 117.95625Q153.25313 118.19063 153.25313 118.53438Q153.25313 118.84688 153.00313 119.06563Q152.62813 119.44063 151.4875 119.75313Q150.3625 120.06563 149.59688 120.06563Q148.09688 120.06563 147.34688 119.425Q146.6125 118.76875 146.6125 117.83125L146.6125 114.3L146.03438 114.3Q145.45625 114.3 145.20625 114.08125Q144.95625 113.8625 144.95625 113.50313Q144.95625 113.14375 145.20625 112.925Q145.45625 112.70625 146.03438 112.70625L146.6125 112.70625L146.6125 111.25313Q146.6125 110.675 146.83125 110.44063Q147.05 110.19063 147.40938 110.19063Q147.76875 110.19063 147.9875 110.44063Q148.20625 110.675 148.20625 111.25313L148.20625 112.70625L151.175 112.70625Q151.75313 112.70625 151.9875 112.925Q152.2375 113.14375 152.2375 113.50313Q152.2375 113.8625 151.9875 114.08125Q151.75313 114.3 151.175 114.3L148.20625 114.3Z" fill-rule="nonzero"/><path fill="#9e9e9e" d="M27.253124 133.28438L27.253124 135.19063Q28.14375 134.90938 28.878124 134.90938Q30.346874 134.90938 31.315624 135.925Q32.3 136.925 32.3 138.51875Q32.3 140.15938 31.315624 141.09688Q30.33125 142.03438 28.284374 142.03438Q26.4875 142.03438 25.440624 141.34688Q24.83125 140.95625 24.83125 140.45625Q24.83125 140.12813 25.065624 139.89375Q25.315624 139.65938 25.64375 139.65938Q25.909374 139.65938 26.221874 139.925Q26.55 140.175 26.909374 140.28438Q27.409374 140.425 28.190624 140.425Q29.64375 140.425 30.175 139.97188Q30.70625 139.50313 30.70625 138.53438Q30.70625 137.59688 30.190624 137.06563Q29.675 136.51875 28.878124 136.51875Q28.003124 136.51875 26.89375 137.08125Q26.64375 137.20625 26.45625 137.20625Q26.1125 137.20625 25.878124 136.95625Q25.659374 136.70625 25.659374 136.31563L25.659374 131.69063L30.55 131.69063Q31.128124 131.69063 31.378124 131.90938Q31.628124 132.12813 31.628124 132.4875Q31.628124 132.84688 31.378124 133.06563Q31.128124 133.28438 30.55 133.28438L27.253124 133.28438ZM39.83125 140.9875Q39.83125 141.44063 39.503124 141.75313Q39.190624 142.06563 38.628124 142.06563Q38.065624 142.06563 37.7375 141.75313Q37.425 141.44063 37.425 140.9875Q37.425 140.53438 37.7375 140.2375Q38.065624 139.925 38.628124 139.925Q39.190624 139.925 39.503124 140.2375Q39.83125 140.53438 39.83125 140.9875ZM52.096874 135.84688L52.096874 137.6125Q52.096874 139.175 51.190624 140.6125Q50.3 142.03438 48.6125 142.03438Q47.64375 142.03438 46.971874 141.6125Q46.315624 141.175 45.70625 140.03438Q45.1125 138.89375 45.1125 137.6125L45.1125 135.84688Q45.1125 134.3 46.003124 132.8625Q46.909374 131.425 48.596874 131.425Q49.55 131.425 50.221874 131.84688Q50.89375 132.26875 51.4875 133.425Q52.096874 134.56563 52.096874 135.84688ZM50.4875 135.84688Q50.4875 134.55 49.76875 133.56563Q49.346874 133.03438 48.596874 133.03438Q47.878124 133.03438 47.409374 133.62813Q46.721874 134.51875 46.721874 135.84688L46.721874 137.6125Q46.721874 138.925 47.45625 139.89375Q47.8625 140.425 48.6125 140.425Q49.33125 140.425 49.8 139.83125Q50.4875 138.94063 50.4875 137.6125L50.4875 135.84688ZM59.83125 134.01875Q59.83125 134.95625 59.175 135.62813Q58.51875 136.28438 57.58125 136.28438Q56.64375 136.28438 55.971874 135.62813Q55.315624 134.95625 55.315624 134.01875Q55.315624 133.08125 55.971874 132.425Q56.64375 131.75313 57.58125 131.75313Q58.51875 131.75313 59.175 132.425Q59.83125 133.08125 59.83125 134.01875ZM58.846874 134.01875Q58.846874 133.4875 58.471874 133.12813Q58.096874 132.75313 57.58125 132.75313Q57.05 132.75313 56.675 133.12813Q56.3 133.4875 56.3 134.01875Q56.3 134.55 56.675 134.925Q57.05 135.3 57.58125 135.3Q58.096874 135.3 58.471874 134.925Q58.846874 134.55 58.846874 134.01875ZM61.721874 136.40938L55.815624 138.31563Q55.596874 138.39375 55.503124 138.39375Q55.315624 138.39375 55.175 138.25313Q55.034374 138.09688 55.034374 137.8625Q55.034374 137.70625 55.14375 137.56563Q55.221874 137.47188 55.51875 137.37813L61.425 135.45625Q61.64375 135.39375 61.7375 135.39375Q61.925 135.39375 62.065624 135.55Q62.20625 135.69063 62.20625 135.90938Q62.20625 136.08125 62.096874 136.20625Q62.01875 136.31563 61.721874 136.40938ZM61.8625 139.76875Q61.8625 140.70625 61.190624 141.37813Q60.534374 142.03438 59.596874 142.03438Q58.659374 142.03438 57.9875 141.37813Q57.33125 140.70625 57.33125 139.76875Q57.33125 138.83125 57.9875 138.175Q58.659374 137.50313 59.596874 137.50313Q60.534374 137.50313 61.190624 138.175Q61.8625 138.83125 61.8625 139.76875ZM60.878124 139.76875Q60.878124 139.2375 60.503124 138.87813Q60.128124 138.50313 59.596874 138.50313Q59.08125 138.50313 58.70625 138.87813Q58.33125 139.2375 58.33125 139.76875Q58.33125 140.3 58.70625 140.675Q59.08125 141.03438 59.596874 141.03438Q60.128124 141.03438 60.503124 140.675Q60.878124 140.3 60.878124 139.76875Z" fill-rule="nonzero"/><path stroke="#757575" stroke-width="1.0" stroke-linecap="butt" d="M23.8 126.3L163.8 126.3L291.61746 56.689083" fill-rule="nonzero"/><path fill="#9e9e9e" d="M293.61746 56.689083C293.61746 55.584515 292.72205 54.689083 291.61746 54.689083C290.5129 54.689083 289.61746 55.584515 289.61746 56.689083C289.61746 57.79365 290.5129 58.689083 291.61746 58.689083C292.72205 58.689083 293.61746 57.79365 293.61746 56.689083" fill-rule="nonzero"/><path fill="#1a1a1a" d="M33.096874 156.06563Q33.096874 158.19063 31.7375 159.6125Q30.39375 161.03438 28.6125 161.03438Q27.003124 161.03438 25.721874 159.84688Q24.128124 158.39375 24.128124 156.06563Q24.128124 153.7375 25.721874 152.26875Q27.003124 151.08125 28.6125 151.08125Q30.39375 151.08125 31.7375 152.50313Q33.096874 153.925 33.096874 156.06563ZM31.503124 156.06563Q31.503124 154.59688 30.6125 153.64375Q29.7375 152.69063 28.6125 152.69063Q27.4875 152.69063 26.596874 153.65938Q25.721874 154.6125 25.721874 156.06563Q25.721874 157.51875 26.596874 158.47188Q27.4875 159.425 28.6125 159.425Q29.7375 159.425 30.6125 158.47188Q31.503124 157.51875 31.503124 156.06563ZM36.6125 159.90938L36.6125 162.55L37.58125 162.55Q38.159374 162.55 38.39375 162.76875Q38.64375 162.9875 38.64375 163.34688Q38.64375 163.70625 38.39375 163.925Q38.159374 164.14375 37.58125 164.14375L34.7375 164.14375Q34.159374 164.14375 33.909374 163.925Q33.659374 163.70625 33.659374 163.34688Q33.659374 162.9875 33.909374 162.76875Q34.175 162.55 34.7375 162.55L35.01875 162.55L35.01875 155.3L34.7375 155.3Q34.159374 155.3 33.909374 155.08125Q33.659374 154.8625 33.659374 154.50313Q33.659374 154.14375 33.909374 153.925Q34.159374 153.70625 34.7375 153.70625L36.6125 153.70625L36.6125 154.25313Q37.175 153.8625 37.76875 153.675Q38.378124 153.4875 39.01875 153.4875Q40.659374 153.4875 41.815624 154.6125Q42.971874 155.72188 42.971874 157.15938Q42.971874 158.7375 41.596874 159.76875Q40.45625 160.62813 39.034374 160.62813Q38.409374 160.62813 37.8 160.45625Q37.20625 160.26875 36.6125 159.90938ZM41.3625 157.15938Q41.3625 156.83125 41.096874 156.31563Q40.83125 155.78438 40.284374 155.44063Q39.7375 155.09688 38.9875 155.09688Q37.8 155.09688 37.096874 155.9875Q36.6125 156.6125 36.6125 157.175Q36.6125 157.81563 37.3 158.425Q37.9875 159.03438 38.9875 159.03438Q40.003124 159.03438 40.675 158.44063Q41.3625 157.83125 41.3625 157.15938ZM52.628124 158.06563L46.05 158.06563Q46.3 158.69063 46.940624 159.08125Q47.58125 159.45625 48.659374 159.45625Q49.55 159.45625 51.034374 159.06563Q51.64375 158.90938 51.878124 158.90938Q52.190624 158.90938 52.409374 159.14375Q52.628124 159.3625 52.628124 159.70625Q52.628124 160.01875 52.39375 160.2375Q52.08125 160.53438 50.8625 160.8Q49.659374 161.06563 48.55 161.06563Q46.628124 161.06563 45.471874 159.97188Q44.315624 158.87813 44.315624 157.3Q44.315624 155.6125 45.565624 154.55Q46.815624 153.4875 48.440624 153.4875Q49.409374 153.4875 50.221874 153.83125Q51.05 154.175 51.440624 154.58125Q52.003124 155.15938 52.378124 156.00313Q52.628124 156.59688 52.628124 157.37813L52.628124 158.06563ZM50.846874 156.45625Q50.4875 155.76875 49.89375 155.44063Q49.3 155.09688 48.471874 155.09688Q47.659374 155.09688 47.065624 155.44063Q46.471874 155.76875 46.096874 156.45625L50.846874 156.45625ZM58.26875 153.70625L58.26875 154.70625Q59.284374 153.97188 59.8625 153.7375Q60.440624 153.4875 60.95625 153.4875Q61.7375 153.4875 62.471874 154.06563Q62.971874 154.45625 62.971874 154.8625Q62.971874 155.20625 62.721874 155.45625Q62.4875 155.69063 62.159374 155.69063Q61.8625 155.69063 61.534374 155.39375Q61.20625 155.09688 60.940624 155.09688Q60.6125 155.09688 59.940624 155.51875Q59.26875 155.94063 58.26875 156.78438L58.26875 159.19063L60.55 159.19063Q61.128124 159.19063 61.378124 159.425Q61.628124 159.64375 61.628124 160.00313Q61.628124 160.34688 61.378124 160.58125Q61.128124 160.8 60.55 160.8L55.721874 160.8Q55.14375 160.8 54.89375 160.58125Q54.64375 160.34688 54.64375 159.9875Q54.64375 159.64375 54.89375 159.425Q55.14375 159.19063 55.721874 159.19063L56.675 159.19063L56.675 155.3L56.096874 155.3Q55.51875 155.3 55.26875 155.08125Q55.01875 154.8625 55.01875 154.50313Q55.01875 154.14375 55.26875 153.925Q55.51875 153.70625 56.096874 153.70625L58.26875 153.70625ZM70.05 160.8L70.05 160.425Q69.44063 160.7375 68.70625 160.89375Q67.9875 161.06563 67.39375 161.06563Q66.1125 161.06563 65.3 160.37813Q64.50313 159.69063 64.50313 158.8625Q64.50313 157.8625 65.51875 157.00313Q66.55 156.12813 68.3625 156.12813Q69.09688 156.12813 70.05 156.28438L70.05 155.90938Q70.05 155.55 69.7375 155.33125Q69.425 155.09688 68.56563 155.09688Q67.84688 155.09688 66.72188 155.37813Q66.3 155.47188 66.06563 155.47188Q65.7375 155.47188 65.51875 155.25313Q65.3 155.01875 65.3 154.65938Q65.3 154.45625 65.37813 154.31563Q65.45625 154.15938 65.59688 154.06563Q65.7375 153.97188 66.175 153.84688Q66.76875 153.69063 67.37813 153.59688Q68.00313 153.4875 68.50313 153.4875Q70.00313 153.4875 70.81563 154.14375Q71.64375 154.78438 71.64375 155.89375L71.64375 159.19063L71.925 159.19063Q72.50313 159.19063 72.7375 159.425Q72.9875 159.64375 72.9875 160.00313Q72.9875 160.34688 72.7375 160.58125Q72.50313 160.8 71.925 160.8L70.05 160.8ZM70.05 157.925Q69.08125 157.7375 68.26875 157.7375Q67.3 157.7375 66.59688 158.22188Q66.15938 158.51875 66.15938 158.83125Q66.15938 159.06563 66.3625 159.20625Q66.75313 159.45625 67.44063 159.45625Q68.01875 159.45625 68.7375 159.2375Q69.47188 159.00313 70.05 158.6125L70.05 157.925ZM78.20625 155.3L78.20625 158.51875Q78.20625 159.03438 78.425 159.19063Q78.75313 159.45625 79.59688 159.45625Q80.81563 159.45625 81.8625 158.925Q82.25313 158.72188 82.4875 158.72188Q82.8 158.72188 83.01875 158.95625Q83.25313 159.19063 83.25313 159.53438Q83.25313 159.84688 83.00313 160.06563Q82.62813 160.44063 81.4875 160.75313Q80.3625 161.06563 79.59688 161.06563Q78.09688 161.06563 77.34688 160.425Q76.6125 159.76875 76.6125 158.83125L76.6125 155.3L76.03438 155.3Q75.45625 155.3 75.20625 155.08125Q74.95625 154.8625 74.95625 154.50313Q74.95625 154.14375 75.20625 153.925Q75.45625 153.70625 76.03438 153.70625L76.6125 153.70625L76.6125 152.25313Q76.6125 151.675 76.83125 151.44063Q77.05 151.19063 77.40938 151.19063Q77.76875 151.19063 77.9875 151.44063Q78.20625 151.675 78.20625 152.25313L78.20625 153.70625L81.175 153.70625Q81.75313 153.70625 81.9875 153.925Q82.2375 154.14375 82.2375 154.50313Q82.2375 154.8625 81.9875 155.08125Q81.75313 155.3 81.175 155.3L78.20625 155.3ZM89.175 150.65938L89.175 152.3625L87.26875 152.3625L87.26875 150.65938L89.175 150.65938ZM89.39375 153.70625L89.39375 159.19063L91.31563 159.19063Q91.89375 159.19063 92.14375 159.425Q92.39375 159.64375 92.39375 160.00313Q92.39375 160.34688 92.14375 160.58125Q91.89375 160.8 91.31563 160.8L85.87813 160.8Q85.3 160.8 85.05 160.58125Q84.8 160.34688 84.8 159.9875Q84.8 159.64375 85.05 159.425Q85.3 159.19063 85.87813 159.19063L87.8 159.19063L87.8 155.3L86.50313 155.3Q85.94063 155.3 85.69063 155.08125Q85.44063 154.8625 85.44063 154.50313Q85.44063 154.14375 85.675 153.925Q85.925 153.70625 86.50313 153.70625L89.39375 153.70625ZM102.76875 157.37813Q102.76875 158.3 102.25313 159.175Q101.7375 160.03438 100.72188 160.55Q99.72188 161.06563 98.6125 161.06563Q97.51875 161.06563 96.51875 160.56563Q95.51875 160.05 94.9875 159.19063Q94.47188 158.31563 94.47188 157.3625Q94.47188 156.40938 95.00313 155.4875Q95.53438 154.55 96.53438 154.01875Q97.53438 153.4875 98.6125 153.4875Q99.70625 153.4875 100.72188 154.03438Q101.7375 154.58125 102.25313 155.50313Q102.76875 156.40938 102.76875 157.37813ZM101.15938 157.39375Q101.15938 156.6125 100.6125 155.97188Q99.84688 155.09688 98.6125 155.09688Q97.53438 155.09688 96.8 155.8Q96.08125 156.4875 96.08125 157.39375Q96.08125 158.14375 96.81563 158.8Q97.55 159.45625 98.6125 159.45625Q99.69063 159.45625 100.425 158.8Q101.15938 158.14375 101.15938 157.39375ZM106.9875 153.70625L106.9875 154.2375Q107.425 153.8625 107.94063 153.675Q108.47188 153.4875 109.09688 153.4875Q110.51875 153.4875 111.34688 154.37813Q112.00313 155.08125 112.00313 156.22188L112.00313 159.19063Q112.50313 159.19063 112.7375 159.425Q112.9875 159.64375 112.9875 160.00313Q112.9875 160.34688 112.7375 160.58125Q112.50313 160.8 111.925 160.8L110.47188 160.8Q109.89375 160.8 109.64375 160.58125Q109.40938 160.34688 109.40938 159.9875Q109.40938 159.64375 109.64375 159.425Q109.89375 159.19063 110.39375 159.19063L110.39375 156.175Q110.39375 155.64375 110.1125 155.40938Q109.75313 155.09688 109.01875 155.09688Q108.45625 155.09688 108.03438 155.31563Q107.62813 155.51875 106.9875 156.22188L106.9875 159.19063Q107.59688 159.19063 107.78438 159.31563Q108.15938 159.55 108.15938 160.00313Q108.15938 160.34688 107.90938 160.58125Q107.675 160.8 107.09688 160.8L105.26875 160.8Q104.69063 160.8 104.44063 160.58125Q104.20625 160.34688 104.20625 159.9875Q104.20625 159.55 104.58125 159.31563Q104.76875 159.19063 105.37813 159.19063L105.37813 155.3Q104.87813 155.3 104.62813 155.08125Q104.39375 154.84688 104.39375 154.50313Q104.39375 154.14375 104.62813 153.925Q104.87813 153.70625 105.45625 153.70625L106.9875 153.70625ZM120.33125 155.58125Q119.94063 155.33125 119.50313 155.22188Q119.08125 155.09688 118.6125 155.09688Q117.69063 155.09688 117.14375 155.39375Q116.89375 155.53438 116.89375 155.69063Q116.89375 155.8625 117.22188 156.03438Q117.47188 156.15938 118.34688 156.28438Q119.94063 156.50313 120.56563 156.72188Q121.37813 157.00313 121.81563 157.58125Q122.26875 158.14375 122.26875 158.78438Q122.26875 159.64375 121.51875 160.22188Q120.425 161.06563 118.69063 161.06563Q118.00313 161.06563 117.40938 160.94063Q116.81563 160.81563 116.33125 160.58125Q116.20625 160.675 116.06563 160.7375Q115.94063 160.78438 115.8 160.78438Q115.425 160.78438 115.20625 160.55Q114.9875 160.3 114.9875 159.72188L114.9875 159.175Q114.9875 158.59688 115.20625 158.3625Q115.425 158.1125 115.78438 158.1125Q116.08125 158.1125 116.26875 158.26875Q116.47188 158.425 116.58125 158.81563Q116.94063 159.12813 117.45625 159.3Q117.97188 159.45625 118.64375 159.45625Q119.75313 159.45625 120.3625 159.1125Q120.64375 158.94063 120.64375 158.75313Q120.64375 158.44063 120.2375 158.2375Q119.81563 158.03438 118.51875 157.89375Q116.59688 157.69063 115.94063 157.1125Q115.3 156.53438 115.3 155.70625Q115.3 154.84688 116.01875 154.26875Q117.00313 153.4875 118.59688 153.4875Q119.15938 153.4875 119.65938 153.59688Q120.175 153.70625 120.64375 153.925Q120.8 153.81563 120.925 153.76875Q121.05 153.70625 121.15938 153.70625Q121.4875 153.70625 121.70625 153.95625Q121.925 154.19063 121.925 154.76875L121.925 155.15938Q121.925 155.69063 121.8 155.87813Q121.55 156.2375 121.12813 156.2375Q120.83125 156.2375 120.6125 156.06563Q120.39375 155.87813 120.33125 155.58125Z" fill-rule="nonzero"/><path fill="#9e9e9e" d="M27.253124 174.28438L27.253124 176.19063Q28.14375 175.90938 28.878124 175.90938Q30.346874 175.90938 31.315624 176.925Q32.3 177.925 32.3 179.51875Q32.3 181.15938 31.315624 182.09688Q30.33125 183.03438 28.284374 183.03438Q26.4875 183.03438 25.440624 182.34688Q24.83125 181.95625 24.83125 181.45625Q24.83125 181.12813 25.065624 180.89375Q25.315624 180.65938 25.64375 180.65938Q25.909374 180.65938 26.221874 180.925Q26.55 181.175 26.909374 181.28438Q27.409374 181.425 28.190624 181.425Q29.64375 181.425 30.175 180.97188Q30.70625 180.50313 30.70625 179.53438Q30.70625 178.59688 30.190624 178.06563Q29.675 177.51875 28.878124 177.51875Q28.003124 177.51875 26.89375 178.08125Q26.64375 178.20625 26.45625 178.20625Q26.1125 178.20625 25.878124 177.95625Q25.659374 177.70625 25.659374 177.31563L25.659374 172.69063L30.55 172.69063Q31.128124 172.69063 31.378124 172.90938Q31.628124 173.12813 31.628124 173.4875Q31.628124 173.84688 31.378124 174.06563Q31.128124 174.28438 30.55 174.28438L27.253124 174.28438ZM39.83125 181.9875Q39.83125 182.44063 39.503124 182.75313Q39.190624 183.06563 38.628124 183.06563Q38.065624 183.06563 37.7375 182.75313Q37.425 182.44063 37.425 181.9875Q37.425 181.53438 37.7375 181.2375Q38.065624 180.925 38.628124 180.925Q39.190624 180.925 39.503124 181.2375Q39.83125 181.53438 39.83125 181.9875ZM52.096874 176.84688L52.096874 178.6125Q52.096874 180.175 51.190624 181.6125Q50.3 183.03438 48.6125 183.03438Q47.64375 183.03438 46.971874 182.6125Q46.315624 182.175 45.70625 181.03438Q45.1125 179.89375 45.1125 178.6125L45.1125 176.84688Q45.1125 175.3 46.003124 173.8625Q46.909374 172.425 48.596874 172.425Q49.55 172.425 50.221874 172.84688Q50.89375 173.26875 51.4875 174.425Q52.096874 175.56563 52.096874 176.84688ZM50.4875 176.84688Q50.4875 175.55 49.76875 174.56563Q49.346874 174.03438 48.596874 174.03438Q47.878124 174.03438 47.409374 174.62813Q46.721874 175.51875 46.721874 176.84688L46.721874 178.6125Q46.721874 179.925 47.45625 180.89375Q47.8625 181.425 48.6125 181.425Q49.33125 181.425 49.8 180.83125Q50.4875 179.94063 50.4875 178.6125L50.4875 176.84688ZM59.83125 175.01875Q59.83125 175.95625 59.175 176.62813Q58.51875 177.28438 57.58125 177.28438Q56.64375 177.28438 55.971874 176.62813Q55.315624 175.95625 55.315624 175.01875Q55.315624 174.08125 55.971874 173.425Q56.64375 172.75313 57.58125 172.75313Q58.51875 172.75313 59.175 173.425Q59.83125 174.08125 59.83125 175.01875ZM58.846874 175.01875Q58.846874 174.4875 58.471874 174.12813Q58.096874 173.75313 57.58125 173.75313Q57.05 173.75313 56.675 174.12813Q56.3 174.4875 56.3 175.01875Q56.3 175.55 56.675 175.925Q57.05 176.3 57.58125 176.3Q58.096874 176.3 58.471874 175.925Q58.846874 175.55 58.846874 175.01875ZM61.721874 177.40938L55.815624 179.31563Q55.596874 179.39375 55.503124 179.39375Q55.315624 179.39375 55.175 179.25313Q55.034374 179.09688 55.034374 178.8625Q55.034374 178.70625 55.14375 178.56563Q55.221874 178.47188 55.51875 178.37813L61.425 176.45625Q61.64375 176.39375 61.7375 176.39375Q61.925 176.39375 62.065624 176.55Q62.20625 176.69063 62.20625 176.90938Q62.20625 177.08125 62.096874 177.20625Q62.01875 177.31563 61.721874 177.40938ZM61.8625 180.76875Q61.8625 181.70625 61.190624 182.37813Q60.534374 183.03438 59.596874 183.03438Q58.659374 183.03438 57.9875 182.37813Q57.33125 181.70625 57.33125 180.76875Q57.33125 179.83125 57.9875 179.175Q58.659374 178.50313 59.596874 178.50313Q60.534374 178.50313 61.190624 179.175Q61.8625 179.83125 61.8625 180.76875ZM60.878124 180.76875Q60.878124 180.2375 60.503124 179.87813Q60.128124 179.50313 59.596874 179.50313Q59.08125 179.50313 58.70625 179.87813Q58.33125 180.2375 58.33125 180.76875Q58.33125 181.3 58.70625 181.675Q59.08125 182.03438 59.596874 182.03438Q60.128124 182.03438 60.503124 181.675Q60.878124 181.3 60.878124 180.76875Z" fill-rule="nonzero"/><path stroke="#757575" stroke-width="1.0" stroke-linecap="butt" d="M23.8 167.3L163.8 167.3L240.11084 94.11084" fill-rule="nonzero"/><path fill="#9e9e9e" d="M242.11084 94.11084C242.11084 93.00627 241.21541 92.11084 240.11084 92.11084C239.00627 92.11084 238.11084 93.00627 238.11084 94.11084C238.11084 95.21541 239.00627 96.11084 240.11084 96.11084C241.21541 96.11084 242.11084 95.21541 242.11084 94.11084" fill-rule="nonzero"/><path fill="#1a1a1a" d="M26.95625 198.175L26.95625 200.19063L27.534374 200.19063Q28.1125 200.19063 28.346874 200.425Q28.596874 200.64375 28.596874 201.00313Q28.596874 201.34688 28.346874 201.58125Q28.1125 201.8 27.534374 201.8L25.096874 201.8Q24.51875 201.8 24.26875 201.58125Q24.034374 201.34688 24.034374 200.9875Q24.034374 200.64375 24.284374 200.425Q24.534374 200.19063 25.096874 200.19063L25.346874 200.19063L25.346874 193.925L25.096874 193.925Q24.51875 193.925 24.26875 193.70625Q24.034374 193.4875 24.034374 193.12813Q24.034374 192.76875 24.26875 192.55Q24.51875 192.31563 25.096874 192.31563L28.721874 192.33125Q30.425 192.33125 31.346874 193.175Q32.284374 194.00313 32.284374 195.20625Q32.284374 195.95625 31.846874 196.58125Q31.409374 197.19063 30.534374 197.65938Q31.034374 198.1125 31.6125 198.8Q31.971874 199.25313 32.58125 200.19063Q33.190624 200.19063 33.39375 200.31563Q33.7375 200.56563 33.7375 201.00313Q33.7375 201.34688 33.4875 201.58125Q33.253124 201.8 32.675 201.8L31.76875 201.8Q29.815624 198.78438 28.534374 198.175L26.95625 198.175ZM26.95625 196.58125L28.20625 196.58125Q28.89375 196.58125 29.440624 196.3625Q30.175 196.08125 30.425 195.76875Q30.690624 195.45625 30.690624 195.15938Q30.690624 194.70625 30.20625 194.31563Q29.721874 193.925 28.784374 193.925L26.95625 193.925L26.95625 196.58125ZM50.26875 198.6125L50.659374 197.25313L51.4875 197.25313Q51.9875 197.25313 52.175 197.37813Q52.55 197.6125 52.55 198.06563Q52.55 198.39375 52.346874 198.62813Q52.14375 198.84688 51.8625 198.8625Q51.675 199.69063 51.378124 200.19063Q52.003124 200.19063 52.190624 200.31563Q52.565624 200.55 52.565624 201.00313Q52.565624 201.34688 52.315624 201.58125Q52.08125 201.8 51.503124 201.8L50.55 201.8L50.3625 201.55Q50.003124 201.8 49.690624 201.89375Q49.20625 202.03438 48.534374 202.03438Q47.1125 202.03438 46.33125 201.31563Q45.565624 200.58125 45.565624 199.47188Q45.565624 198.72188 45.940624 198.03438Q46.33125 197.33125 47.128124 196.8625Q46.784374 196.3 46.675 195.9875Q46.58125 195.65938 46.58125 195.3Q46.58125 194.33125 47.315624 193.6125Q48.05 192.87813 49.05 192.87813Q49.315624 192.87813 49.596874 192.94063Q49.878124 193.00313 50.175 193.14375Q50.45625 193.01875 50.596874 193.01875Q50.925 193.01875 51.159374 193.26875Q51.39375 193.50313 51.39375 193.83125Q51.39375 194.09688 51.26875 194.28438Q51.14375 194.45625 50.753124 194.65938L50.08125 195.01875Q49.690624 194.675 49.45625 194.56563Q49.284374 194.47188 49.05 194.47188Q48.675 194.47188 48.425 194.72188Q48.175 194.97188 48.175 195.28438Q48.175 195.56563 48.64375 196.2375L50.26875 198.6125ZM48.05 198.20625Q47.159374 198.62813 47.159374 199.47188Q47.159374 199.90938 47.45625 200.175Q47.76875 200.425 48.534374 200.425Q49.01875 200.425 49.425 200.19063L48.05 198.20625ZM65.01875 200.19063L65.01875 193.925Q64.51875 193.925 64.26875 193.70625Q64.03438 193.47188 64.03438 193.12813Q64.03438 192.76875 64.26875 192.55Q64.51875 192.31563 65.09688 192.31563L68.45625 192.33125Q69.2375 192.33125 69.97188 192.62813Q70.72188 192.90938 71.175 193.34688Q71.51875 193.69063 71.89375 194.28438Q72.26875 194.8625 72.45625 195.44063Q72.64375 196.01875 72.64375 196.84688L72.64375 197.6125Q72.64375 198.62813 72.3 199.425Q71.95625 200.20625 71.39375 200.70625Q70.83125 201.19063 70.34688 201.425Q69.56563 201.8 68.31563 201.8L65.09688 201.8Q64.51875 201.8 64.26875 201.58125Q64.03438 201.34688 64.03438 200.9875Q64.03438 200.64375 64.26875 200.425Q64.51875 200.19063 65.01875 200.19063ZM66.62813 200.19063L68.33125 200.19063Q69.28438 200.19063 69.76875 199.925Q70.39375 199.56563 70.70625 199.01875Q71.03438 198.45625 71.03438 197.56563L71.03438 196.81563Q71.03438 196.05 70.75313 195.4875Q70.3 194.59688 69.72188 194.26875Q69.15938 193.925 68.31563 193.925L66.62813 193.925L66.62813 200.19063Z" fill-rule="nonzero"/><path fill="#9e9e9e" d="M29.425 213.425L29.425 222.19063L31.034374 222.19063Q31.6125 222.19063 31.8625 222.425Q32.1125 222.64375 32.1125 223.00313Q32.1125 223.34688 31.8625 223.58125Q31.6125 223.8 31.034374 223.8L26.20625 223.8Q25.628124 223.8 25.378124 223.58125Q25.128124 223.34688 25.128124 222.9875Q25.128124 222.64375 25.378124 222.425Q25.628124 222.19063 26.20625 222.19063L27.815624 222.19063L27.815624 215.51875L26.39375 215.89375Q26.05 215.9875 25.878124 215.9875Q25.565624 215.9875 25.346874 215.75313Q25.128124 215.50313 25.128124 215.14375Q25.128124 214.83125 25.284374 214.64375Q25.45625 214.45625 25.971874 214.31563L29.425 213.425ZM37.253124 215.28438L37.253124 217.19063Q38.14375 216.90938 38.878124 216.90938Q40.346874 216.90938 41.315624 217.925Q42.3 218.925 42.3 220.51875Q42.3 222.15938 41.315624 223.09688Q40.33125 224.03438 38.284374 224.03438Q36.4875 224.03438 35.440624 223.34688Q34.83125 222.95625 34.83125 222.45625Q34.83125 222.12813 35.065624 221.89375Q35.315624 221.65938 35.64375 221.65938Q35.909374 221.65938 36.221874 221.925Q36.55 222.175 36.909374 222.28438Q37.409374 222.425 38.190624 222.425Q39.64375 222.425 40.175 221.97188Q40.70625 221.50313 40.70625 220.53438Q40.70625 219.59688 40.190624 219.06563Q39.675 218.51875 38.878124 218.51875Q38.003124 218.51875 36.89375 219.08125Q36.64375 219.20625 36.45625 219.20625Q36.1125 219.20625 35.878124 218.95625Q35.659374 218.70625 35.659374 218.31563L35.659374 213.69063L40.55 213.69063Q41.128124 213.69063 41.378124 213.90938Q41.628124 214.12813 41.628124 214.4875Q41.628124 214.84688 41.378124 215.06563Q41.128124 215.28438 40.55 215.28438L37.253124 215.28438ZM49.83125 222.9875Q49.83125 223.44063 49.503124 223.75313Q49.190624 224.06563 48.628124 224.06563Q48.065624 224.06563 47.7375 223.75313Q47.425 223.44063 47.425 222.9875Q47.425 222.53438 47.7375 222.2375Q48.065624 221.925 48.628124 221.925Q49.190624 221.925 49.503124 222.2375Q49.83125 222.53438 49.83125 222.9875ZM62.096874 217.84688L62.096874 219.6125Q62.096874 221.175 61.190624 222.6125Q60.3 224.03438 58.6125 224.03438Q57.64375 224.03438 56.971874 223.6125Q56.315624 223.175 55.70625 222.03438Q55.1125 220.89375 55.1125 219.6125L55.1125 217.84688Q55.1125 216.3 56.003124 214.8625Q56.909374 213.425 58.596874 213.425Q59.55 213.425 60.221874 213.84688Q60.89375 214.26875 61.4875 215.425Q62.096874 216.56563 62.096874 217.84688ZM60.4875 217.84688Q60.4875 216.55 59.76875 215.56563Q59.346874 215.03438 58.596874 215.03438Q57.878124 215.03438 57.409374 215.62813Q56.721874 216.51875 56.721874 217.84688L56.721874 219.6125Q56.721874 220.925 57.45625 221.89375Q57.8625 222.425 58.6125 222.425Q59.33125 222.425 59.8 221.83125Q60.4875 220.94063 60.4875 219.6125L60.4875 217.84688ZM69.83125 216.01875Q69.83125 216.95625 69.175 217.62813Q68.51875 218.28438 67.58125 218.28438Q66.64375 218.28438 65.97188 217.62813Q65.31563 216.95625 65.31563 216.01875Q65.31563 215.08125 65.97188 214.425Q66.64375 213.75313 67.58125 213.75313Q68.51875 213.75313 69.175 214.425Q69.83125 215.08125 69.83125 216.01875ZM68.84688 216.01875Q68.84688 215.4875 68.47188 215.12813Q68.09688 214.75313 67.58125 214.75313Q67.05 214.75313 66.675 215.12813Q66.3 215.4875 66.3 216.01875Q66.3 216.55 66.675 216.925Q67.05 217.3 67.58125 217.3Q68.09688 217.3 68.47188 216.925Q68.84688 216.55 68.84688 216.01875ZM71.72188 218.40938L65.81563 220.31563Q65.59688 220.39375 65.50313 220.39375Q65.31563 220.39375 65.175 220.25313Q65.03438 220.09688 65.03438 219.8625Q65.03438 219.70625 65.14375 219.56563Q65.22188 219.47188 65.51875 219.37813L71.425 217.45625Q71.64375 217.39375 71.7375 217.39375Q71.925 217.39375 72.06563 217.55Q72.20625 217.69063 72.20625 217.90938Q72.20625 218.08125 72.09688 218.20625Q72.01875 218.31563 71.72188 218.40938ZM71.8625 221.76875Q71.8625 222.70625 71.19063 223.37813Q70.53438 224.03438 69.59688 224.03438Q68.65938 224.03438 67.9875 223.37813Q67.33125 222.70625 67.33125 221.76875Q67.33125 220.83125 67.9875 220.175Q68.65938 219.50313 69.59688 219.50313Q70.53438 219.50313 71.19063 220.175Q71.8625 220.83125 71.8625 221.76875ZM70.87813 221.76875Q70.87813 221.2375 70.50313 220.87813Q70.12813 220.50313 69.59688 220.50313Q69.08125 220.50313 68.70625 220.87813Q68.33125 221.2375 68.33125 221.76875Q68.33125 222.3 68.70625 222.675Q69.08125 223.03438 69.59688 223.03438Q70.12813 223.03438 70.50313 222.675Q70.87813 222.3 70.87813 221.76875Z" fill-rule="nonzero"/><path stroke="#757575" stroke-width="1.0" stroke-linecap="butt" d="M23.8 208.3L163.8 208.3L183.0153 206.16714" fill-rule="nonzero"/><path fill="#9e9e9e" d="M185.0153 206.16714C185.0153 205.06258 184.11987 204.16714 183.0153 204.16714C181.91074 204.16714 181.0153 205.06258 181.0153 206.16714C181.0153 207.27171 181.91074 208.16714 183.0153 208.16714C184.11987 208.16714 185.0153 207.27171 185.0153 206.16714" fill-rule="nonzero"/><path fill="#1a1a1a" d="M29.378124 388.25186L29.378124 394.5175L30.45625 394.5175Q31.034374 394.5175 31.284374 394.75186Q31.534374 394.9706 31.534374 395.33Q31.534374 395.67374 31.284374 395.9081Q31.034374 396.12686 30.45625 396.12686L26.70625 396.12686Q26.128124 396.12686 25.878124 395.9081Q25.64375 395.67374 25.64375 395.31436Q25.64375 394.9706 25.878124 394.75186Q26.128124 394.5175 26.70625 394.5175L27.784374 394.5175L27.784374 388.25186L26.05 388.25186L26.05 389.7675Q26.05 390.3456 25.815624 390.5956Q25.596874 390.8456 25.2375 390.8456Q24.89375 390.8456 24.659374 390.5956Q24.440624 390.3456 24.440624 389.7675L24.440624 386.6425L32.7375 386.6581L32.7375 389.7675Q32.7375 390.3456 32.51875 390.5956Q32.3 390.8456 31.940624 390.8456Q31.58125 390.8456 31.3625 390.5956Q31.14375 390.3456 31.14375 389.7675L31.14375 388.25186L29.378124 388.25186ZM42.628124 393.3925L36.05 393.3925Q36.3 394.0175 36.940624 394.4081Q37.58125 394.7831 38.659374 394.7831Q39.55 394.7831 41.034374 394.3925Q41.64375 394.23624 41.878124 394.23624Q42.190624 394.23624 42.409374 394.4706Q42.628124 394.68936 42.628124 395.0331Q42.628124 395.3456 42.39375 395.56436Q42.08125 395.86124 40.8625 396.12686Q39.659374 396.3925 38.55 396.3925Q36.628124 396.3925 35.471874 395.29874Q34.315624 394.205 34.315624 392.62686Q34.315624 390.93936 35.565624 389.87686Q36.815624 388.81436 38.440624 388.81436Q39.409374 388.81436 40.221874 389.1581Q41.05 389.50186 41.440624 389.9081Q42.003124 390.48624 42.378124 391.33Q42.628124 391.92374 42.628124 392.705L42.628124 393.3925ZM40.846874 391.7831Q40.4875 391.0956 39.89375 390.7675Q39.3 390.42374 38.471874 390.42374Q37.659374 390.42374 37.065624 390.7675Q36.471874 391.0956 36.096874 391.7831L40.846874 391.7831ZM51.096874 389.31436Q51.39375 389.04874 51.690624 389.04874Q52.034374 389.04874 52.253124 389.29874Q52.4875 389.5331 52.4875 390.11124L52.4875 391.1425Q52.4875 391.7206 52.253124 391.9706Q52.034374 392.205 51.675 392.205Q51.346874 392.205 51.128124 392.0175Q50.95625 391.87686 50.8625 391.43936Q50.76875 391.00186 50.409374 390.79874Q49.784374 390.42374 48.8 390.42374Q47.659374 390.42374 46.971874 391.0956Q46.3 391.75186 46.3 392.7675Q46.3 393.705 46.95625 394.25186Q47.6125 394.7831 49.128124 394.7831Q50.128124 394.7831 50.76875 394.58Q51.14375 394.455 51.471874 394.1581Q51.815624 393.86124 52.08125 393.86124Q52.409374 393.86124 52.64375 394.11124Q52.89375 394.3456 52.89375 394.67374Q52.89375 395.205 52.159374 395.67374Q51.08125 396.3925 49.003124 396.3925Q47.14375 396.3925 46.096874 395.61124Q44.690624 394.58 44.690624 392.7675Q44.690624 391.06436 45.83125 389.93936Q46.971874 388.81436 48.815624 388.81436Q49.471874 388.81436 50.034374 388.93936Q50.6125 389.06436 51.096874 389.31436ZM56.95625 385.98624L56.95625 389.4081Q57.45625 389.11124 57.95625 388.9706Q58.471874 388.81436 59.003124 388.81436Q59.83125 388.81436 60.471874 389.0956Q61.128124 389.37686 61.55 389.98624Q61.971874 390.5956 61.971874 391.5175L61.971874 394.5175Q62.58125 394.5175 62.76875 394.6425Q63.14375 394.87686 63.14375 395.33Q63.14375 395.67374 62.89375 395.9081Q62.659374 396.12686 62.08125 396.12686L60.253124 396.12686Q59.690624 396.12686 59.440624 395.9081Q59.190624 395.67374 59.190624 395.31436Q59.190624 394.87686 59.565624 394.6425Q59.76875 394.5175 60.3625 394.5175L60.3625 391.62686Q60.3625 391.00186 60.08125 390.75186Q59.721874 390.42374 59.003124 390.42374Q58.471874 390.42374 58.05 390.62686Q57.64375 390.83 56.95625 391.5175L56.95625 394.5175Q57.565624 394.5175 57.753124 394.6425Q58.128124 394.87686 58.128124 395.33Q58.128124 395.67374 57.878124 395.9081Q57.64375 396.12686 57.065624 396.12686L55.2375 396.12686Q54.659374 396.12686 54.409374 395.9081Q54.175 395.67374 54.175 395.31436Q54.175 394.87686 54.55 394.6425Q54.7375 394.5175 55.346874 394.5175L55.346874 387.5956L55.08125 387.5956Q54.503124 387.5956 54.253124 387.37686Q54.003124 387.1425 54.003124 386.7831Q54.003124 386.43936 54.253124 386.2206Q54.503124 385.98624 55.08125 385.98624L56.95625 385.98624ZM76.95625 392.17374L76.95625 394.5175L81.05 394.5175L81.05 393.6581Q81.05 393.08 81.26875 392.83Q81.4875 392.58 81.84688 392.58Q82.20625 392.58 82.425 392.83Q82.64375 393.08 82.64375 393.6581L82.64375 396.12686L75.1125 396.12686Q74.53438 396.12686 74.28438 395.9081Q74.03438 395.67374 74.03438 395.31436Q74.03438 394.9706 74.28438 394.75186Q74.53438 394.5175 75.1125 394.5175L75.3625 394.5175L75.3625 388.25186L75.1125 388.25186Q74.53438 388.25186 74.28438 388.0331Q74.03438 387.81436 74.03438 387.455Q74.03438 387.0956 74.28438 386.87686Q74.53438 386.6425 75.1125 386.6425L82.3 386.6581L82.3 389.0956Q82.3 389.6581 82.08125 389.9081Q81.8625 390.1581 81.50313 390.1581Q81.14375 390.1581 80.90938 389.92374Q80.69063 389.67374 80.69063 389.0956L80.69063 388.25186L76.95625 388.25186L76.95625 390.56436L78.3625 390.56436Q78.3625 389.93936 78.4875 389.7675Q78.72188 389.37686 79.175 389.37686Q79.51875 389.37686 79.7375 389.62686Q79.97188 389.87686 79.97188 390.455L79.97188 392.29874Q79.97188 392.81436 79.84688 393.00186Q79.59688 393.36124 79.175 393.36124Q78.72188 393.36124 78.4875 392.98624Q78.3625 392.79874 78.3625 392.17374L76.95625 392.17374ZM86.9875 389.0331L86.9875 389.56436Q87.425 389.18936 87.94063 389.00186Q88.47188 388.81436 89.09688 388.81436Q90.51875 388.81436 91.34688 389.705Q92.00313 390.4081 92.00313 391.54874L92.00313 394.5175Q92.50313 394.5175 92.7375 394.75186Q92.9875 394.9706 92.9875 395.33Q92.9875 395.67374 92.7375 395.9081Q92.50313 396.12686 91.925 396.12686L90.47188 396.12686Q89.89375 396.12686 89.64375 395.9081Q89.40938 395.67374 89.40938 395.31436Q89.40938 394.9706 89.64375 394.75186Q89.89375 394.5175 90.39375 394.5175L90.39375 391.50186Q90.39375 390.9706 90.1125 390.73624Q89.75313 390.42374 89.01875 390.42374Q88.45625 390.42374 88.03438 390.6425Q87.62813 390.8456 86.9875 391.54874L86.9875 394.5175Q87.59688 394.5175 87.78438 394.6425Q88.15938 394.87686 88.15938 395.33Q88.15938 395.67374 87.90938 395.9081Q87.675 396.12686 87.09688 396.12686L85.26875 396.12686Q84.69063 396.12686 84.44063 395.9081Q84.20625 395.67374 84.20625 395.31436Q84.20625 394.87686 84.58125 394.6425Q84.76875 394.5175 85.37813 394.5175L85.37813 390.62686Q84.87813 390.62686 84.62813 390.4081Q84.39375 390.17374 84.39375 389.83Q84.39375 389.4706 84.62813 389.25186Q84.87813 389.0331 85.45625 389.0331L86.9875 389.0331ZM100.3625 389.50186L100.3625 389.0331L102.2375 389.0331Q102.81563 389.0331 103.06563 389.25186Q103.31563 389.4706 103.31563 389.83Q103.31563 390.18936 103.06563 390.4081Q102.81563 390.62686 102.2375 390.62686L101.97188 390.62686L101.97188 396.4706Q101.97188 397.31436 101.6125 397.93936Q101.25313 398.56436 100.51875 399.0175Q99.78438 399.4706 98.8625 399.4706L97.05 399.4706Q96.47188 399.4706 96.22188 399.25186Q95.9875 399.0331 95.9875 398.67374Q95.9875 398.31436 96.22188 398.0956Q96.47188 397.87686 97.05 397.87686L98.81563 397.87686Q99.55 397.87686 99.95625 397.4706Q100.3625 397.08 100.3625 396.4706L100.3625 395.67374Q99.83125 396.0175 99.28438 396.18936Q98.7375 396.37686 98.15938 396.37686Q96.51875 396.37686 95.40938 395.2831Q94.31563 394.18936 94.31563 392.58Q94.31563 390.9706 95.40938 389.8925Q96.51875 388.79874 98.15938 388.79874Q98.76875 388.79874 99.31563 388.9706Q99.8625 389.1425 100.3625 389.50186ZM100.3625 392.58Q100.3625 391.68936 99.70625 391.04874Q99.05 390.3925 98.14375 390.3925Q97.22188 390.3925 96.56563 391.04874Q95.925 391.68936 95.925 392.58Q95.925 393.4706 96.56563 394.11124Q97.22188 394.75186 98.14375 394.75186Q99.05 394.75186 99.70625 394.11124Q100.3625 393.4706 100.3625 392.58Z" fill-rule="nonzero"/><path fill="#9e9e9e" d="M27.1125 416.5175L30.6125 416.5175Q30.909374 416.2831 31.159374 416.2831Q31.534374 416.2831 31.7375 416.5331Q31.95625 416.7675 31.95625 417.36124L31.95625 418.12686L24.659374 418.12686L24.659374 416.42374Q28.9875 412.86124 29.89375 411.83Q30.346874 411.31436 30.346874 410.8456Q30.346874 410.25186 29.83125 409.81436Q29.315624 409.36124 28.471874 409.36124Q27.6125 409.36124 27.034374 409.86124Q26.7375 410.12686 26.565624 410.6425Q26.45625 410.9706 26.253124 411.11124Q26.065624 411.25186 25.784374 411.25186Q25.45625 411.25186 25.221874 411.0175Q24.9875 410.7831 24.9875 410.4706Q24.9875 410.00186 25.409374 409.29874Q25.846874 408.5956 26.675 408.17374Q27.51875 407.75186 28.4875 407.75186Q30.003124 407.75186 30.971874 408.67374Q31.940624 409.5956 31.940624 410.8925Q31.940624 411.56436 31.659374 412.12686Q31.39375 412.68936 30.33125 413.68936Q29.503124 414.48624 27.1125 416.5175ZM42.096874 412.17374L42.096874 413.93936Q42.096874 415.50186 41.190624 416.93936Q40.3 418.36124 38.6125 418.36124Q37.64375 418.36124 36.971874 417.93936Q36.315624 417.50186 35.70625 416.36124Q35.1125 415.2206 35.1125 413.93936L35.1125 412.17374Q35.1125 410.62686 36.003124 409.18936Q36.909374 407.75186 38.596874 407.75186Q39.55 407.75186 40.221874 408.17374Q40.89375 408.5956 41.4875 409.75186Q42.096874 410.8925 42.096874 412.17374ZM40.4875 412.17374Q40.4875 410.87686 39.76875 409.8925Q39.346874 409.36124 38.596874 409.36124Q37.878124 409.36124 37.409374 409.955Q36.721874 410.8456 36.721874 412.17374L36.721874 413.93936Q36.721874 415.25186 37.45625 416.2206Q37.8625 416.75186 38.6125 416.75186Q39.33125 416.75186 39.8 416.1581Q40.4875 415.2675 40.4875 413.93936L40.4875 412.17374ZM49.83125 417.31436Q49.83125 417.7675 49.503124 418.08Q49.190624 418.3925 48.628124 418.3925Q48.065624 418.3925 47.7375 418.08Q47.425 417.7675 47.425 417.31436Q47.425 416.86124 47.7375 416.56436Q48.065624 416.25186 48.628124 416.25186Q49.190624 416.25186 49.503124 416.56436Q49.83125 416.86124 49.83125 417.31436ZM62.096874 412.17374L62.096874 413.93936Q62.096874 415.50186 61.190624 416.93936Q60.3 418.36124 58.6125 418.36124Q57.64375 418.36124 56.971874 417.93936Q56.315624 417.50186 55.70625 416.36124Q55.1125 415.2206 55.1125 413.93936L55.1125 412.17374Q55.1125 410.62686 56.003124 409.18936Q56.909374 407.75186 58.596874 407.75186Q59.55 407.75186 60.221874 408.17374Q60.89375 408.5956 61.4875 409.75186Q62.096874 410.8925 62.096874 412.17374ZM60.4875 412.17374Q60.4875 410.87686 59.76875 409.8925Q59.346874 409.36124 58.596874 409.36124Q57.878124 409.36124 57.409374 409.955Q56.721874 410.8456 56.721874 412.17374L56.721874 413.93936Q56.721874 415.25186 57.45625 416.2206Q57.8625 416.75186 58.6125 416.75186Q59.33125 416.75186 59.8 416.1581Q60.4875 415.2675 60.4875 413.93936L60.4875 412.17374ZM69.83125 410.3456Q69.83125 411.2831 69.175 411.955Q68.51875 412.61124 67.58125 412.61124Q66.64375 412.61124 65.97188 411.955Q65.31563 411.2831 65.31563 410.3456Q65.31563 409.4081 65.97188 408.75186Q66.64375 408.08 67.58125 408.08Q68.51875 408.08 69.175 408.75186Q69.83125 409.4081 69.83125 410.3456ZM68.84688 410.3456Q68.84688 409.81436 68.47188 409.455Q68.09688 409.08 67.58125 409.08Q67.05 409.08 66.675 409.455Q66.3 409.81436 66.3 410.3456Q66.3 410.87686 66.675 411.25186Q67.05 411.62686 67.58125 411.62686Q68.09688 411.62686 68.47188 411.25186Q68.84688 410.87686 68.84688 410.3456ZM71.72188 412.73624L65.81563 414.6425Q65.59688 414.7206 65.50313 414.7206Q65.31563 414.7206 65.175 414.58Q65.03438 414.42374 65.03438 414.18936Q65.03438 414.0331 65.14375 413.8925Q65.22188 413.79874 65.51875 413.705L71.425 411.7831Q71.64375 411.7206 71.7375 411.7206Q71.925 411.7206 72.06563 411.87686Q72.20625 412.0175 72.20625 412.23624Q72.20625 412.4081 72.09688 412.5331Q72.01875 412.6425 71.72188 412.73624ZM71.8625 416.0956Q71.8625 417.0331 71.19063 417.705Q70.53438 418.36124 69.59688 418.36124Q68.65938 418.36124 67.9875 417.705Q67.33125 417.0331 67.33125 416.0956Q67.33125 415.1581 67.9875 414.50186Q68.65938 413.83 69.59688 413.83Q70.53438 413.83 71.19063 414.50186Q71.8625 415.1581 71.8625 416.0956ZM70.87813 416.0956Q70.87813 415.56436 70.50313 415.205Q70.12813 414.83 69.59688 414.83Q69.08125 414.83 68.70625 415.205Q68.33125 415.56436 68.33125 416.0956Q68.33125 416.62686 68.70625 417.00186Q69.08125 417.36124 69.59688 417.36124Q70.12813 417.36124 70.50313 417.00186Q70.87813 416.62686 70.87813 416.0956Z" fill-rule="nonzero"/><path stroke="#757575" stroke-width="1.0" stroke-linecap="butt" d="M23.8 402.62686L163.8 402.62686L264.39157 402.62686" fill-rule="nonzero"/><path fill="#9e9e9e" d="M266.39157 402.62686C266.39157 401.5223 265.49615 400.62686 264.39157 400.62686C263.28702 400.62686 262.39157 401.5223 262.39157 402.62686C262.39157 403.73145 263.28702 404.62686 264.39157 404.62686C265.49615 404.62686 266.39157 403.73145 266.39157 402.62686" fill-rule="nonzero"/><path fill="#1a1a1a" d="M630.96564 228.92188L627.075 228.92188L626.6844 229.89062L627.075 229.89062Q627.65314 229.89062 627.8875 230.125Q628.1375 230.34375 628.1375 230.70312Q628.1375 231.04688 627.8875 231.28125Q627.65314 231.5 627.075 231.5L624.91876 231.5Q624.34064 231.5 624.09064 231.28125Q623.84064 231.04688 623.84064 230.6875Q623.84064 230.32812 624.10626 230.10938Q624.35626 229.875 624.95 229.89062L627.46564 223.625L626.41876 223.625Q625.84064 223.625 625.59064 223.40625Q625.35626 223.1875 625.35626 222.82812Q625.35626 222.46875 625.59064 222.25Q625.84064 222.01562 626.41876 222.01562L629.8875 222.03125L633.075 229.89062Q633.6375 229.89062 633.8094 230.01562Q634.16876 230.28125 634.16876 230.70312Q634.16876 231.04688 633.91876 231.28125Q633.6844 231.5 633.10626 231.5L630.95 231.5Q630.3719 231.5 630.1219 231.28125Q629.8875 231.04688 629.8875 230.6875Q629.8875 230.34375 630.1219 230.125Q630.3719 229.89062 630.95 229.89062L631.34064 229.89062L630.96564 228.92188ZM630.29376 227.3125L629.0125 224.14062L627.71564 227.3125L630.29376 227.3125ZM641.4969 224.6875Q641.79376 224.42188 642.09064 224.42188Q642.4344 224.42188 642.65314 224.67188Q642.8875 224.90625 642.8875 225.48438L642.8875 226.51562Q642.8875 227.09375 642.65314 227.34375Q642.4344 227.57812 642.075 227.57812Q641.7469 227.57812 641.52814 227.39062Q641.35626 227.25 641.2625 226.8125Q641.16876 226.375 640.8094 226.17188Q640.1844 225.79688 639.2 225.79688Q638.0594 225.79688 637.3719 226.46875Q636.7 227.125 636.7 228.14062Q636.7 229.07812 637.35626 229.625Q638.0125 230.15625 639.52814 230.15625Q640.52814 230.15625 641.16876 229.95312Q641.54376 229.82812 641.8719 229.53125Q642.21564 229.23438 642.48126 229.23438Q642.8094 229.23438 643.04376 229.48438Q643.29376 229.71875 643.29376 230.04688Q643.29376 230.57812 642.5594 231.04688Q641.48126 231.76562 639.40314 231.76562Q637.54376 231.76562 636.4969 230.98438Q635.09064 229.95312 635.09064 228.14062Q635.09064 226.4375 636.23126 225.3125Q637.3719 224.1875 639.21564 224.1875Q639.8719 224.1875 640.4344 224.3125Q641.0125 224.4375 641.4969 224.6875ZM652.71564 226.0L652.71564 233.25L652.9969 233.25Q653.575 233.25 653.8094 233.46875Q654.0594 233.6875 654.0594 234.04688Q654.0594 234.40625 653.8094 234.625Q653.575 234.84375 652.9969 234.84375L650.16876 234.84375Q649.59064 234.84375 649.34064 234.625Q649.09064 234.40625 649.09064 234.04688Q649.09064 233.6875 649.34064 233.46875Q649.59064 233.25 650.16876 233.25L651.1219 233.25L651.1219 230.60938Q650.52814 230.96875 649.91876 231.15625Q649.325 231.32812 648.7 231.32812Q647.27814 231.32812 646.1375 230.46875Q644.7625 229.4375 644.7625 227.85938Q644.7625 226.42188 645.91876 225.3125Q647.075 224.1875 648.73126 224.1875Q649.35626 224.1875 649.95 224.375Q650.5594 224.5625 651.1219 224.95312L651.1219 224.40625L652.9969 224.40625Q653.575 224.40625 653.8094 224.625Q654.0594 224.84375 654.0594 225.20312Q654.0594 225.5625 653.8094 225.78125Q653.575 226.0 652.9969 226.0L652.71564 226.0ZM651.1219 227.85938Q651.1219 227.53125 650.85626 227.01562Q650.59064 226.48438 650.02814 226.14062Q649.48126 225.79688 648.7469 225.79688Q647.54376 225.79688 646.84064 226.6875Q646.3719 227.3125 646.3719 227.875Q646.3719 228.53125 647.04376 229.14062Q647.73126 229.73438 648.7469 229.73438Q649.7625 229.73438 650.4344 229.14062Q651.1219 228.53125 651.1219 227.85938ZM662.40314 224.40625L662.40314 229.89062Q662.91876 229.89062 663.15314 230.125Q663.40314 230.34375 663.40314 230.70312Q663.40314 231.04688 663.15314 231.28125Q662.90314 231.5 662.325 231.5L660.8094 231.5L660.8094 231.125Q660.1219 231.4375 659.4969 231.59375Q658.8719 231.76562 658.3094 231.76562Q657.5125 231.76562 656.9344 231.4375Q656.35626 231.09375 656.02814 230.5Q655.77814 230.07812 655.77814 229.45312L655.77814 226.0L655.5125 226.0Q654.9344 226.0 654.6844 225.78125Q654.4344 225.5625 654.4344 225.20312Q654.4344 224.84375 654.6844 224.625Q654.9344 224.40625 655.5125 224.40625L657.3875 224.40625L657.3875 229.17188Q657.3875 229.67188 657.6219 229.92188Q657.8719 230.15625 658.3875 230.15625Q658.8719 230.15625 659.41876 229.96875Q659.98126 229.76562 660.8094 229.26562L660.8094 226.0L660.23126 226.0Q659.65314 226.0 659.40314 225.78125Q659.15314 225.5625 659.15314 225.20312Q659.15314 224.84375 659.40314 224.625Q659.65314 224.40625 660.23126 224.40625L662.40314 224.40625ZM669.575 221.35938L669.575 223.0625L667.66876 223.0625L667.66876 221.35938L669.575 221.35938ZM669.79376 224.40625L669.79376 229.89062L671.71564 229.89062Q672.29376 229.89062 672.54376 230.125Q672.79376 230.34375 672.79376 230.70312Q672.79376 231.04688 672.54376 231.28125Q672.29376 231.5 671.71564 231.5L666.27814 231.5Q665.7 231.5 665.45 231.28125Q665.2 231.04688 665.2 230.6875Q665.2 230.34375 665.45 230.125Q665.7 229.89062 666.27814 229.89062L668.2 229.89062L668.2 226.0L666.90314 226.0Q666.34064 226.0 666.09064 225.78125Q665.84064 225.5625 665.84064 225.20312Q665.84064 224.84375 666.075 224.625Q666.325 224.40625 666.90314 224.40625L669.79376 224.40625ZM680.73126 226.28125Q680.34064 226.03125 679.90314 225.92188Q679.48126 225.79688 679.0125 225.79688Q678.09064 225.79688 677.54376 226.09375Q677.29376 226.23438 677.29376 226.39062Q677.29376 226.5625 677.6219 226.73438Q677.8719 226.85938 678.7469 226.98438Q680.34064 227.20312 680.96564 227.42188Q681.77814 227.70312 682.21564 228.28125Q682.66876 228.84375 682.66876 229.48438Q682.66876 230.34375 681.91876 230.92188Q680.825 231.76562 679.09064 231.76562Q678.40314 231.76562 677.8094 231.64062Q677.21564 231.51562 676.73126 231.28125Q676.60626 231.375 676.46564 231.4375Q676.34064 231.48438 676.2 231.48438Q675.825 231.48438 675.60626 231.25Q675.3875 231.0 675.3875 230.42188L675.3875 229.875Q675.3875 229.29688 675.60626 229.0625Q675.825 228.8125 676.1844 228.8125Q676.48126 228.8125 676.66876 228.96875Q676.8719 229.125 676.98126 229.51562Q677.34064 229.82812 677.85626 230.0Q678.3719 230.15625 679.04376 230.15625Q680.15314 230.15625 680.7625 229.8125Q681.04376 229.64062 681.04376 229.45312Q681.04376 229.14062 680.6375 228.9375Q680.21564 228.73438 678.91876 228.59375Q676.9969 228.39062 676.34064 227.8125Q675.7 227.23438 675.7 226.40625Q675.7 225.54688 676.41876 224.96875Q677.40314 224.1875 678.9969 224.1875Q679.5594 224.1875 680.0594 224.29688Q680.575 224.40625 681.04376 224.625Q681.2 224.51562 681.325 224.46875Q681.45 224.40625 681.5594 224.40625Q681.8875 224.40625 682.10626 224.65625Q682.325 224.89062 682.325 225.46875L682.325 225.85938Q682.325 226.39062 682.2 226.57812Q681.95 226.9375 681.52814 226.9375Q681.23126 226.9375 681.0125 226.76562Q680.79376 226.57812 680.73126 226.28125ZM689.575 221.35938L689.575 223.0625L687.66876 223.0625L687.66876 221.35938L689.575 221.35938ZM689.79376 224.40625L689.79376 229.89062L691.71564 229.89062Q692.29376 229.89062 692.54376 230.125Q692.79376 230.34375 692.79376 230.70312Q692.79376 231.04688 692.54376 231.28125Q692.29376 231.5 691.71564 231.5L686.27814 231.5Q685.7 231.5 685.45 231.28125Q685.2 231.04688 685.2 230.6875Q685.2 230.34375 685.45 230.125Q685.7 229.89062 686.27814 229.89062L688.2 229.89062L688.2 226.0L686.90314 226.0Q686.34064 226.0 686.09064 225.78125Q685.84064 225.5625 685.84064 225.20312Q685.84064 224.84375 686.075 224.625Q686.325 224.40625 686.90314 224.40625L689.79376 224.40625ZM698.60626 226.0L698.60626 229.21875Q698.60626 229.73438 698.825 229.89062Q699.15314 230.15625 699.9969 230.15625Q701.21564 230.15625 702.2625 229.625Q702.65314 229.42188 702.8875 229.42188Q703.2 229.42188 703.41876 229.65625Q703.65314 229.89062 703.65314 230.23438Q703.65314 230.54688 703.40314 230.76562Q703.02814 231.14062 701.8875 231.45312Q700.7625 231.76562 699.9969 231.76562Q698.4969 231.76562 697.7469 231.125Q697.0125 230.46875 697.0125 229.53125L697.0125 226.0L696.4344 226.0Q695.85626 226.0 695.60626 225.78125Q695.35626 225.5625 695.35626 225.20312Q695.35626 224.84375 695.60626 224.625Q695.85626 224.40625 696.4344 224.40625L697.0125 224.40625L697.0125 222.95312Q697.0125 222.375 697.23126 222.14062Q697.45 221.89062 697.8094 221.89062Q698.16876 221.89062 698.3875 222.14062Q698.60626 222.375 698.60626 222.95312L698.60626 224.40625L701.575 224.40625Q702.15314 224.40625 702.3875 224.625Q702.6375 224.84375 702.6375 225.20312Q702.6375 225.5625 702.3875 225.78125Q702.15314 226.0 701.575 226.0L698.60626 226.0ZM709.575 221.35938L709.575 223.0625L707.66876 223.0625L707.66876 221.35938L709.575 221.35938ZM709.79376 224.40625L709.79376 229.89062L711.71564 229.89062Q712.29376 229.89062 712.54376 230.125Q712.79376 230.34375 712.79376 230.70312Q712.79376 231.04688 712.54376 231.28125Q712.29376 231.5 711.71564 231.5L706.27814 231.5Q705.7 231.5 705.45 231.28125Q705.2 231.04688 705.2 230.6875Q705.2 230.34375 705.45 230.125Q705.7 229.89062 706.27814 229.89062L708.2 229.89062L708.2 226.0L706.90314 226.0Q706.34064 226.0 706.09064 225.78125Q705.84064 225.5625 705.84064 225.20312Q705.84064 224.84375 706.075 224.625Q706.325 224.40625 706.90314 224.40625L709.79376 224.40625ZM723.16876 228.07812Q723.16876 229.0 722.65314 229.875Q722.1375 230.73438 721.1219 231.25Q720.1219 231.76562 719.0125 231.76562Q717.91876 231.76562 716.91876 231.26562Q715.91876 230.75 715.3875 229.89062Q714.8719 229.01562 714.8719 228.0625Q714.8719 227.10938 715.40314 226.1875Q715.9344 225.25 716.9344 224.71875Q717.9344 224.1875 719.0125 224.1875Q720.10626 224.1875 721.1219 224.73438Q722.1375 225.28125 722.65314 226.20312Q723.16876 227.10938 723.16876 228.07812ZM721.5594 228.09375Q721.5594 227.3125 721.0125 226.67188Q720.2469 225.79688 719.0125 225.79688Q717.9344 225.79688 717.2 226.5Q716.48126 227.1875 716.48126 228.09375Q716.48126 228.84375 717.21564 229.5Q717.95 230.15625 719.0125 230.15625Q720.09064 230.15625 720.825 229.5Q721.5594 228.84375 721.5594 228.09375ZM727.3875 224.40625L727.3875 224.9375Q727.825 224.5625 728.34064 224.375Q728.8719 224.1875 729.4969 224.1875Q730.91876 224.1875 731.7469 225.07812Q732.40314 225.78125 732.40314 226.92188L732.40314 229.89062Q732.90314 229.89062 733.1375 230.125Q733.3875 230.34375 733.3875 230.70312Q733.3875 231.04688 733.1375 231.28125Q732.90314 231.5 732.325 231.5L730.8719 231.5Q730.29376 231.5 730.04376 231.28125Q729.8094 231.04688 729.8094 230.6875Q729.8094 230.34375 730.04376 230.125Q730.29376 229.89062 730.79376 229.89062L730.79376 226.875Q730.79376 226.34375 730.5125 226.10938Q730.15314 225.79688 729.41876 225.79688Q728.85626 225.79688 728.4344 226.01562Q728.02814 226.21875 727.3875 226.92188L727.3875 229.89062Q727.9969 229.89062 728.1844 230.01562Q728.5594 230.25 728.5594 230.70312Q728.5594 231.04688 728.3094 231.28125Q728.075 231.5 727.4969 231.5L725.66876 231.5Q725.09064 231.5 724.84064 231.28125Q724.60626 231.04688 724.60626 230.6875Q724.60626 230.25 724.98126 230.01562Q725.16876 229.89062 725.77814 229.89062L725.77814 226.0Q725.27814 226.0 725.02814 225.78125Q724.79376 225.54688 724.79376 225.20312Q724.79376 224.84375 725.02814 224.625Q725.27814 224.40625 725.85626 224.40625L727.3875 224.40625ZM740.73126 226.28125Q740.34064 226.03125 739.90314 225.92188Q739.48126 225.79688 739.0125 225.79688Q738.09064 225.79688 737.54376 226.09375Q737.29376 226.23438 737.29376 226.39062Q737.29376 226.5625 737.6219 226.73438Q737.8719 226.85938 738.7469 226.98438Q740.34064 227.20312 740.96564 227.42188Q741.77814 227.70312 742.21564 228.28125Q742.66876 228.84375 742.66876 229.48438Q742.66876 230.34375 741.91876 230.92188Q740.825 231.76562 739.09064 231.76562Q738.40314 231.76562 737.8094 231.64062Q737.21564 231.51562 736.73126 231.28125Q736.60626 231.375 736.46564 231.4375Q736.34064 231.48438 736.2 231.48438Q735.825 231.48438 735.60626 231.25Q735.3875 231.0 735.3875 230.42188L735.3875 229.875Q735.3875 229.29688 735.60626 229.0625Q735.825 228.8125 736.1844 228.8125Q736.48126 228.8125 736.66876 228.96875Q736.8719 229.125 736.98126 229.51562Q737.34064 229.82812 737.85626 230.0Q738.3719 230.15625 739.04376 230.15625Q740.15314 230.15625 740.7625 229.8125Q741.04376 229.64062 741.04376 229.45312Q741.04376 229.14062 740.6375 228.9375Q740.21564 228.73438 738.91876 228.59375Q736.9969 228.39062 736.34064 227.8125Q735.7 227.23438 735.7 226.40625Q735.7 225.54688 736.41876 224.96875Q737.40314 224.1875 738.9969 224.1875Q739.5594 224.1875 740.0594 224.29688Q740.575 224.40625 741.04376 224.625Q741.2 224.51562 741.325 224.46875Q741.45 224.40625 741.5594 224.40625Q741.8875 224.40625 742.10626 224.65625Q742.325 224.89062 742.325 225.46875L742.325 225.85938Q742.325 226.39062 742.2 226.57812Q741.95 226.9375 741.52814 226.9375Q741.23126 226.9375 741.0125 226.76562Q740.79376 226.57812 740.73126 226.28125Z" fill-rule="nonzero"/><path fill="#9e9e9e" d="M697.65314 244.98438L697.65314 246.89062Q698.54376 246.60938 699.27814 246.60938Q700.7469 246.60938 701.71564 247.625Q702.7 248.625 702.7 250.21875Q702.7 251.85938 701.71564 252.79688Q700.73126 253.73438 698.6844 253.73438Q696.8875 253.73438 695.84064 253.04688Q695.23126 252.65625 695.23126 252.15625Q695.23126 251.82812 695.46564 251.59375Q695.71564 251.35938 696.04376 251.35938Q696.3094 251.35938 696.6219 251.625Q696.95 251.875 697.3094 251.98438Q697.8094 252.125 698.59064 252.125Q700.04376 252.125 700.575 251.67188Q701.10626 251.20312 701.10626 250.23438Q701.10626 249.29688 700.59064 248.76562Q700.075 248.21875 699.27814 248.21875Q698.40314 248.21875 697.29376 248.78125Q697.04376 248.90625 696.85626 248.90625Q696.5125 248.90625 696.27814 248.65625Q696.0594 248.40625 696.0594 248.01562L696.0594 243.39062L700.95 243.39062Q701.52814 243.39062 701.77814 243.60938Q702.02814 243.82812 702.02814 244.1875Q702.02814 244.54688 701.77814 244.76562Q701.52814 244.98438 700.95 244.98438L697.65314 244.98438ZM712.4969 247.54688L712.4969 249.3125Q712.4969 250.875 711.59064 252.3125Q710.7 253.73438 709.0125 253.73438Q708.04376 253.73438 707.3719 253.3125Q706.71564 252.875 706.10626 251.73438Q705.5125 250.59375 705.5125 249.3125L705.5125 247.54688Q705.5125 246.0 706.40314 244.5625Q707.3094 243.125 708.9969 243.125Q709.95 243.125 710.6219 243.54688Q711.29376 243.96875 711.8875 245.125Q712.4969 246.26562 712.4969 247.54688ZM710.8875 247.54688Q710.8875 246.25 710.16876 245.26562Q709.7469 244.73438 708.9969 244.73438Q708.27814 244.73438 707.8094 245.32812Q707.1219 246.21875 707.1219 247.54688L707.1219 249.3125Q707.1219 250.625 707.85626 251.59375Q708.2625 252.125 709.0125 252.125Q709.73126 252.125 710.2 251.53125Q710.8875 250.64062 710.8875 249.3125L710.8875 247.54688ZM720.23126 252.6875Q720.23126 253.14062 719.90314 253.45312Q719.59064 253.76562 719.02814 253.76562Q718.46564 253.76562 718.1375 253.45312Q717.825 253.14062 717.825 252.6875Q717.825 252.23438 718.1375 251.9375Q718.46564 251.625 719.02814 251.625Q719.59064 251.625 719.90314 251.9375Q720.23126 252.23438 720.23126 252.6875ZM732.4969 247.54688L732.4969 249.3125Q732.4969 250.875 731.59064 252.3125Q730.7 253.73438 729.0125 253.73438Q728.04376 253.73438 727.3719 253.3125Q726.71564 252.875 726.10626 251.73438Q725.5125 250.59375 725.5125 249.3125L725.5125 247.54688Q725.5125 246.0 726.40314 244.5625Q727.3094 243.125 728.9969 243.125Q729.95 243.125 730.6219 243.54688Q731.29376 243.96875 731.8875 245.125Q732.4969 246.26562 732.4969 247.54688ZM730.8875 247.54688Q730.8875 246.25 730.16876 245.26562Q729.7469 244.73438 728.9969 244.73438Q728.27814 244.73438 727.8094 245.32812Q727.1219 246.21875 727.1219 247.54688L727.1219 249.3125Q727.1219 250.625 727.85626 251.59375Q728.2625 252.125 729.0125 252.125Q729.73126 252.125 730.2 251.53125Q730.8875 250.64062 730.8875 249.3125L730.8875 247.54688ZM740.23126 245.71875Q740.23126 246.65625 739.575 247.32812Q738.91876 247.98438 737.98126 247.98438Q737.04376 247.98438 736.3719 247.32812Q735.71564 246.65625 735.71564 245.71875Q735.71564 244.78125 736.3719 244.125Q737.04376 243.45312 737.98126 243.45312Q738.91876 243.45312 739.575 244.125Q740.23126 244.78125 740.23126 245.71875ZM739.2469 245.71875Q739.2469 245.1875 738.8719 244.82812Q738.4969 244.45312 737.98126 244.45312Q737.45 244.45312 737.075 244.82812Q736.7 245.1875 736.7 245.71875Q736.7 246.25 737.075 246.625Q737.45 247.0 737.98126 247.0Q738.4969 247.0 738.8719 246.625Q739.2469 246.25 739.2469 245.71875ZM742.1219 248.10938L736.21564 250.01562Q735.9969 250.09375 735.90314 250.09375Q735.71564 250.09375 735.575 249.95312Q735.4344 249.79688 735.4344 249.5625Q735.4344 249.40625 735.54376 249.26562Q735.6219 249.17188 735.91876 249.07812L741.825 247.15625Q742.04376 247.09375 742.1375 247.09375Q742.325 247.09375 742.46564 247.25Q742.60626 247.39062 742.60626 247.60938Q742.60626 247.78125 742.4969 247.90625Q742.41876 248.01562 742.1219 248.10938ZM742.2625 251.46875Q742.2625 252.40625 741.59064 253.07812Q740.9344 253.73438 739.9969 253.73438Q739.0594 253.73438 738.3875 253.07812Q737.73126 252.40625 737.73126 251.46875Q737.73126 250.53125 738.3875 249.875Q739.0594 249.20312 739.9969 249.20312Q740.9344 249.20312 741.59064 249.875Q742.2625 250.53125 742.2625 251.46875ZM741.27814 251.46875Q741.27814 250.9375 740.90314 250.57812Q740.52814 250.20312 739.9969 250.20312Q739.48126 250.20312 739.10626 250.57812Q738.73126 250.9375 738.73126 251.46875Q738.73126 252.0 739.10626 252.375Q739.48126 252.73438 739.9969 252.73438Q740.52814 252.73438 740.90314 252.375Q741.27814 252.0 741.27814 251.46875Z" fill-rule="nonzero"/><path stroke="#757575" stroke-width="1.0" stroke-linecap="butt" d="M744.2 238.0L604.2 238.0L587.49 238.0" fill-rule="nonzero"/><path fill="#9e9e9e" d="M589.49 238.0C589.49 236.89543 588.59454 236.0 587.49 236.0C586.38544 236.0 585.49 236.89543 585.49 238.0C585.49 239.10457 586.38544 240.0 587.49 240.0C588.59454 240.0 589.49 239.10457 589.49 238.0" fill-rule="nonzero"/></svg>