<svg version="1.1" viewBox="0.0 0.0 764.0 476.0" fill="none" stroke="none" stroke-linecap="square" stroke-miterlimit="10" width="764" height="476" xmlns:xlink="http://www.w3.org/1999/xlink" xmlns="http://www.w3.org/2000/svg"><path fill="#ffffff" d="M0 0L764.0 0L764.0 476.0L0 476.0L0 0Z" fill-rule="nonzero"/><path fill="#45818e" d="M315.80856 34.283695C337.18567 27.337854 359.5228 23.8 382.0 23.8L382.0 130.9C370.76138 130.9 359.59283 132.66893 348.90427 136.14185Z" fill-rule="nonzero"/><path fill="#b4a7d6" d="M240.347 77.32621C262.29675 57.97489 287.97873 43.326157 315.80856 34.283695L348.90427 136.14185C334.98935 140.66307 322.14838 147.98744 311.1735 157.6631Z" fill-rule="nonzero"/><path fill="#ffe599" d="M178.28369 171.80856C190.13786 135.3252 211.57208 102.69471 240.347 77.32621L311.1735 157.6631C296.78604 170.34735 286.06894 186.6626 280.14185 204.90428Z" fill-rule="nonzero"/><path fill="#b6d7a8" d="M178.28369 304.19144C164.30544 261.17078 164.30544 214.82922 178.28369 171.80856L280.14185 204.90428C273.1527 226.41461 273.1527 249.58539 280.14185 271.09573Z" fill-rule="nonzero"/><path fill="#6aa84f" d="M382.0 23.8C491.63156 23.8 583.56696 106.57901 595.0266 215.61C606.4862 324.641 533.77057 424.72552 426.5347 447.51923C319.29883 470.3129 212.16171 408.45724 178.28369 304.19144L280.14185 271.09573C297.08084 323.22864 350.6494 354.15646 404.26733 342.7596C457.88528 331.36276 494.2431 281.3205 488.5133 226.80501C482.78348 172.2895 436.8158 130.9 382.0 130.9Z" fill-rule="nonzero"/><path fill="#1a1a1a" d="M27.675 34.55L27.675 36.190624L29.3 36.190624Q29.878124 36.190624 30.1125 36.425Q30.3625 36.64375 30.3625 37.003124Q30.3625 37.346874 30.1125 37.58125Q29.878124 37.8 29.3 37.8L25.83125 37.8Q25.253124 37.8 25.003124 37.58125Q24.753124 37.346874 24.753124 36.9875Q24.753124 36.64375 25.003124 36.425Q25.253124 36.190624 25.83125 36.190624L26.08125 36.190624L26.08125 29.925L25.83125 29.925Q25.253124 29.925 25.003124 29.70625Q24.753124 29.4875 24.753124 29.128124Q24.753124 28.76875 25.003124 28.55Q25.253124 28.315624 25.83125 28.315624L29.51875 28.33125Q31.14375 28.33125 32.08125 29.221874Q33.034374 30.096874 33.034374 31.378124Q33.034374 32.08125 32.721874 32.70625Q32.471874 33.175 31.909374 33.628124Q31.346874 34.08125 30.753124 34.315624Q30.159374 34.55 29.190624 34.55L27.675 34.55ZM27.675 32.940624L29.159374 32.940624Q30.20625 32.940624 30.815624 32.471874Q31.440624 32.003124 31.440624 31.33125Q31.440624 30.76875 30.940624 30.346874Q30.440624 29.925 29.51875 29.925L27.675 29.925L27.675 32.940624ZM38.26875 30.70625L38.26875 31.70625Q39.284374 30.971874 39.8625 30.7375Q40.440624 30.4875 40.95625 30.4875Q41.7375 30.4875 42.471874 31.065624Q42.971874 31.45625 42.971874 31.8625Q42.971874 32.20625 42.721874 32.45625Q42.4875 32.690624 42.159374 32.690624Q41.8625 32.690624 41.534374 32.39375Q41.20625 32.096874 40.940624 32.096874Q40.6125 32.096874 39.940624 32.51875Q39.26875 32.940624 38.26875 33.784374L38.26875 36.190624L40.55 36.190624Q41.128124 36.190624 41.378124 36.425Q41.628124 36.64375 41.628124 37.003124Q41.628124 37.346874 41.378124 37.58125Q41.128124 37.8 40.55 37.8L35.721874 37.8Q35.14375 37.8 34.89375 37.58125Q34.64375 37.346874 34.64375 36.9875Q34.64375 36.64375 34.89375 36.425Q35.14375 36.190624 35.721874 36.190624L36.675 36.190624L36.675 32.3L36.096874 32.3Q35.51875 32.3 35.26875 32.08125Q35.01875 31.8625 35.01875 31.503124Q35.01875 31.14375 35.26875 30.925Q35.51875 30.70625 36.096874 30.70625L38.26875 30.70625ZM52.628124 35.065624L46.05 35.065624Q46.3 35.690624 46.940624 36.08125Q47.58125 36.45625 48.659374 36.45625Q49.55 36.45625 51.034374 36.065624Q51.64375 35.909374 51.878124 35.909374Q52.190624 35.909374 52.409374 36.14375Q52.628124 36.3625 52.628124 36.70625Q52.628124 37.01875 52.39375 37.2375Q52.08125 37.534374 50.8625 37.8Q49.659374 38.065624 48.55 38.065624Q46.628124 38.065624 45.471874 36.971874Q44.315624 35.878124 44.315624 34.3Q44.315624 32.6125 45.565624 31.55Q46.815624 30.4875 48.440624 30.4875Q49.409374 30.4875 50.221874 30.83125Q51.05 31.175 51.440624 31.58125Q52.003124 32.159374 52.378124 33.003124Q52.628124 33.596874 52.628124 34.378124L52.628124 35.065624ZM50.846874 33.45625Q50.4875 32.76875 49.89375 32.440624Q49.3 32.096874 48.471874 32.096874Q47.659374 32.096874 47.065624 32.440624Q46.471874 32.76875 46.096874 33.45625L50.846874 33.45625ZM60.33125 32.58125Q59.940624 32.33125 59.503124 32.221874Q59.08125 32.096874 58.6125 32.096874Q57.690624 32.096874 57.14375 32.39375Q56.89375 32.534374 56.89375 32.690624Q56.89375 32.8625 57.221874 33.034374Q57.471874 33.159374 58.346874 33.284374Q59.940624 33.503124 60.565624 33.721874Q61.378124 34.003124 61.815624 34.58125Q62.26875 35.14375 62.26875 35.784374Q62.26875 36.64375 61.51875 37.221874Q60.425 38.065624 58.690624 38.065624Q58.003124 38.065624 57.409374 37.940624Q56.815624 37.815624 56.33125 37.58125Q56.20625 37.675 56.065624 37.7375Q55.940624 37.784374 55.8 37.784374Q55.425 37.784374 55.20625 37.55Q54.9875 37.3 54.9875 36.721874L54.9875 36.175Q54.9875 35.596874 55.20625 35.3625Q55.425 35.1125 55.784374 35.1125Q56.08125 35.1125 56.26875 35.26875Q56.471874 35.425 56.58125 35.815624Q56.940624 36.128124 57.45625 36.3Q57.971874 36.45625 58.64375 36.45625Q59.753124 36.45625 60.3625 36.1125Q60.64375 35.940624 60.64375 35.753124Q60.64375 35.440624 60.2375 35.2375Q59.815624 35.034374 58.51875 34.89375Q56.596874 34.690624 55.940624 34.1125Q55.3 33.534374 55.3 32.70625Q55.3 31.846874 56.01875 31.26875Q57.003124 30.4875 58.596874 30.4875Q59.159374 30.4875 59.659374 30.596874Q60.175 30.70625 60.64375 30.925Q60.8 30.815624 60.925 30.76875Q61.05 30.70625 61.159374 30.70625Q61.4875 30.70625 61.70625 30.95625Q61.925 31.190624 61.925 31.76875L61.925 32.159374Q61.925 32.690624 61.8 32.878124Q61.55 33.2375 61.128124 33.2375Q60.83125 33.2375 60.6125 33.065624Q60.39375 32.878124 60.33125 32.58125ZM70.05 37.8L70.05 37.425Q69.44063 37.7375 68.70625 37.89375Q67.9875 38.065624 67.39375 38.065624Q66.1125 38.065624 65.3 37.378124Q64.50313 36.690624 64.50313 35.8625Q64.50313 34.8625 65.51875 34.003124Q66.55 33.128124 68.3625 33.128124Q69.09688 33.128124 70.05 33.284374L70.05 32.909374Q70.05 32.55 69.7375 32.33125Q69.425 32.096874 68.56563 32.096874Q67.84688 32.096874 66.72188 32.378124Q66.3 32.471874 66.06563 32.471874Q65.7375 32.471874 65.51875 32.253124Q65.3 32.01875 65.3 31.659374Q65.3 31.45625 65.37813 31.315624Q65.45625 31.159374 65.59688 31.065624Q65.7375 30.971874 66.175 30.846874Q66.76875 30.690624 67.37813 30.596874Q68.00313 30.4875 68.50313 30.4875Q70.00313 30.4875 70.81563 31.14375Q71.64375 31.784374 71.64375 32.89375L71.64375 36.190624L71.925 36.190624Q72.50313 36.190624 72.7375 36.425Q72.9875 36.64375 72.9875 37.003124Q72.9875 37.346874 72.7375 37.58125Q72.50313 37.8 71.925 37.8L70.05 37.8ZM70.05 34.925Q69.08125 34.7375 68.26875 34.7375Q67.3 34.7375 66.59688 35.221874Q66.15938 35.51875 66.15938 35.83125Q66.15938 36.065624 66.3625 36.20625Q66.75313 36.45625 67.44063 36.45625Q68.01875 36.45625 68.7375 36.2375Q69.47188 36.003124 70.05 35.6125L70.05 34.925ZM79.40938 27.659374L79.40938 36.190624L81.33125 36.190624Q81.90938 36.190624 82.14375 36.425Q82.39375 36.64375 82.39375 37.003124Q82.39375 37.346874 82.14375 37.58125Q81.90938 37.8 81.33125 37.8L75.87813 37.8Q75.3 37.8 75.05 37.58125Q74.81563 37.346874 74.81563 36.9875Q74.81563 36.64375 75.05 36.425Q75.3 36.190624 75.87813 36.190624L77.8 36.190624L77.8 29.26875L76.51875 29.26875Q75.94063 29.26875 75.69063 29.05Q75.44063 28.815624 75.44063 28.45625Q75.44063 28.1125 75.69063 27.89375Q75.94063 27.659374 76.51875 27.659374L79.40938 27.659374ZM92.62813 35.065624L86.05 35.065624Q86.3 35.690624 86.94063 36.08125Q87.58125 36.45625 88.65938 36.45625Q89.55 36.45625 91.03438 36.065624Q91.64375 35.909374 91.87813 35.909374Q92.19063 35.909374 92.40938 36.14375Q92.62813 36.3625 92.62813 36.70625Q92.62813 37.01875 92.39375 37.2375Q92.08125 37.534374 90.8625 37.8Q89.65938 38.065624 88.55 38.065624Q86.62813 38.065624 85.47188 36.971874Q84.31563 35.878124 84.31563 34.3Q84.31563 32.6125 85.56563 31.55Q86.81563 30.4875 88.44063 30.4875Q89.40938 30.4875 90.22188 30.83125Q91.05 31.175 91.44063 31.58125Q92.00313 32.159374 92.37813 33.003124Q92.62813 33.596874 92.62813 34.378124L92.62813 35.065624ZM90.84688 33.45625Q90.4875 32.76875 89.89375 32.440624Q89.3 32.096874 88.47188 32.096874Q87.65938 32.096874 87.06563 32.440624Q86.47188 32.76875 86.09688 33.45625L90.84688 33.45625Z" fill-rule="nonzero"/><path fill="#9e9e9e" d="M27.253124 51.284374L27.253124 53.190624Q28.14375 52.909374 28.878124 52.909374Q30.346874 52.909374 31.315624 53.925Q32.3 54.925 32.3 56.51875Q32.3 58.159374 31.315624 59.096874Q30.33125 60.034374 28.284374 60.034374Q26.4875 60.034374 25.440624 59.346874Q24.83125 58.95625 24.83125 58.45625Q24.83125 58.128124 25.065624 57.89375Q25.315624 57.659374 25.64375 57.659374Q25.909374 57.659374 26.221874 57.925Q26.55 58.175 26.909374 58.284374Q27.409374 58.425 28.190624 58.425Q29.64375 58.425 30.175 57.971874Q30.70625 57.503124 30.70625 56.534374Q30.70625 55.596874 30.190624 55.065624Q29.675 54.51875 28.878124 54.51875Q28.003124 54.51875 26.89375 55.08125Q26.64375 55.20625 26.45625 55.20625Q26.1125 55.20625 25.878124 54.95625Q25.659374 54.70625 25.659374 54.315624L25.659374 49.690624L30.55 49.690624Q31.128124 49.690624 31.378124 49.909374Q31.628124 50.128124 31.628124 50.4875Q31.628124 50.846874 31.378124 51.065624Q31.128124 51.284374 30.55 51.284374L27.253124 51.284374ZM39.83125 58.9875Q39.83125 59.440624 39.503124 59.753124Q39.190624 60.065624 38.628124 60.065624Q38.065624 60.065624 37.7375 59.753124Q37.425 59.440624 37.425 58.9875Q37.425 58.534374 37.7375 58.2375Q38.065624 57.925 38.628124 57.925Q39.190624 57.925 39.503124 58.2375Q39.83125 58.534374 39.83125 58.9875ZM52.096874 53.846874L52.096874 55.6125Q52.096874 57.175 51.190624 58.6125Q50.3 60.034374 48.6125 60.034374Q47.64375 60.034374 46.971874 59.6125Q46.315624 59.175 45.70625 58.034374Q45.1125 56.89375 45.1125 55.6125L45.1125 53.846874Q45.1125 52.3 46.003124 50.8625Q46.909374 49.425 48.596874 49.425Q49.55 49.425 50.221874 49.846874Q50.89375 50.26875 51.4875 51.425Q52.096874 52.565624 52.096874 53.846874ZM50.4875 53.846874Q50.4875 52.55 49.76875 51.565624Q49.346874 51.034374 48.596874 51.034374Q47.878124 51.034374 47.409374 51.628124Q46.721874 52.51875 46.721874 53.846874L46.721874 55.6125Q46.721874 56.925 47.45625 57.89375Q47.8625 58.425 48.6125 58.425Q49.33125 58.425 49.8 57.83125Q50.4875 56.940624 50.4875 55.6125L50.4875 53.846874ZM59.83125 52.01875Q59.83125 52.95625 59.175 53.628124Q58.51875 54.284374 57.58125 54.284374Q56.64375 54.284374 55.971874 53.628124Q55.315624 52.95625 55.315624 52.01875Q55.315624 51.08125 55.971874 50.425Q56.64375 49.753124 57.58125 49.753124Q58.51875 49.753124 59.175 50.425Q59.83125 51.08125 59.83125 52.01875ZM58.846874 52.01875Q58.846874 51.4875 58.471874 51.128124Q58.096874 50.753124 57.58125 50.753124Q57.05 50.753124 56.675 51.128124Q56.3 51.4875 56.3 52.01875Q56.3 52.55 56.675 52.925Q57.05 53.3 57.58125 53.3Q58.096874 53.3 58.471874 52.925Q58.846874 52.55 58.846874 52.01875ZM61.721874 54.409374L55.815624 56.315624Q55.596874 56.39375 55.503124 56.39375Q55.315624 56.39375 55.175 56.253124Q55.034374 56.096874 55.034374 55.8625Q55.034374 55.70625 55.14375 55.565624Q55.221874 55.471874 55.51875 55.378124L61.425 53.45625Q61.64375 53.39375 61.7375 53.39375Q61.925 53.39375 62.065624 53.55Q62.20625 53.690624 62.20625 53.909374Q62.20625 54.08125 62.096874 54.20625Q62.01875 54.315624 61.721874 54.409374ZM61.8625 57.76875Q61.8625 58.70625 61.190624 59.378124Q60.534374 60.034374 59.596874 60.034374Q58.659374 60.034374 57.9875 59.378124Q57.33125 58.70625 57.33125 57.76875Q57.33125 56.83125 57.9875 56.175Q58.659374 55.503124 59.596874 55.503124Q60.534374 55.503124 61.190624 56.175Q61.8625 56.83125 61.8625 57.76875ZM60.878124 57.76875Q60.878124 57.2375 60.503124 56.878124Q60.128124 56.503124 59.596874 56.503124Q59.08125 56.503124 58.70625 56.878124Q58.33125 57.2375 58.33125 57.76875Q58.33125 58.3 58.70625 58.675Q59.08125 59.034374 59.596874 59.034374Q60.128124 59.034374 60.503124 58.675Q60.878124 58.3 60.878124 57.76875Z" fill-rule="nonzero"/><path stroke="#757575" stroke-width="1.0" stroke-linecap="butt" d="M23.8 44.3L161.8 44.3L350.16714 37.0153" fill-rule="nonzero"/><path fill="#9e9e9e" d="M352.16714 37.0153C352.16714 35.91073 351.27173 35.0153 350.16714 35.0153C349.0626 35.0153 348.16714 35.91073 348.16714 37.0153C348.16714 38.11987 349.0626 39.0153 350.16714 39.0153C351.27173 39.0153 352.16714 38.11987 352.16714 37.0153" fill-rule="nonzero"/><path fill="#1a1a1a" d="M29.378124 70.925L29.378124 77.19063L30.45625 77.19063Q31.034374 77.19063 31.284374 77.425Q31.534374 77.64375 31.534374 78.00313Q31.534374 78.34688 31.284374 78.58125Q31.034374 78.8 30.45625 78.8L26.70625 78.8Q26.128124 78.8 25.878124 78.58125Q25.64375 78.34688 25.64375 77.9875Q25.64375 77.64375 25.878124 77.425Q26.128124 77.19063 26.70625 77.19063L27.784374 77.19063L27.784374 70.925L26.05 70.925L26.05 72.44063Q26.05 73.01875 25.815624 73.26875Q25.596874 73.51875 25.2375 73.51875Q24.89375 73.51875 24.659374 73.26875Q24.440624 73.01875 24.440624 72.44063L24.440624 69.31563L32.7375 69.33125L32.7375 72.44063Q32.7375 73.01875 32.51875 73.26875Q32.3 73.51875 31.940624 73.51875Q31.58125 73.51875 31.3625 73.26875Q31.14375 73.01875 31.14375 72.44063L31.14375 70.925L29.378124 70.925ZM42.628124 76.06563L36.05 76.06563Q36.3 76.69063 36.940624 77.08125Q37.58125 77.45625 38.659374 77.45625Q39.55 77.45625 41.034374 77.06563Q41.64375 76.90938 41.878124 76.90938Q42.190624 76.90938 42.409374 77.14375Q42.628124 77.3625 42.628124 77.70625Q42.628124 78.01875 42.39375 78.2375Q42.08125 78.53438 40.8625 78.8Q39.659374 79.06563 38.55 79.06563Q36.628124 79.06563 35.471874 77.97188Q34.315624 76.87813 34.315624 75.3Q34.315624 73.6125 35.565624 72.55Q36.815624 71.4875 38.440624 71.4875Q39.409374 71.4875 40.221874 71.83125Q41.05 72.175 41.440624 72.58125Q42.003124 73.15938 42.378124 74.00313Q42.628124 74.59688 42.628124 75.37813L42.628124 76.06563ZM40.846874 74.45625Q40.4875 73.76875 39.89375 73.44063Q39.3 73.09688 38.471874 73.09688Q37.659374 73.09688 37.065624 73.44063Q36.471874 73.76875 36.096874 74.45625L40.846874 74.45625ZM50.05 78.8L50.05 78.425Q49.440624 78.7375 48.70625 78.89375Q47.9875 79.06563 47.39375 79.06563Q46.1125 79.06563 45.3 78.37813Q44.503124 77.69063 44.503124 76.8625Q44.503124 75.8625 45.51875 75.00313Q46.55 74.12813 48.3625 74.12813Q49.096874 74.12813 50.05 74.28438L50.05 73.90938Q50.05 73.55 49.7375 73.33125Q49.425 73.09688 48.565624 73.09688Q47.846874 73.09688 46.721874 73.37813Q46.3 73.47188 46.065624 73.47188Q45.7375 73.47188 45.51875 73.25313Q45.3 73.01875 45.3 72.65938Q45.3 72.45625 45.378124 72.31563Q45.45625 72.15938 45.596874 72.06563Q45.7375 71.97188 46.175 71.84688Q46.76875 71.69063 47.378124 71.59688Q48.003124 71.4875 48.503124 71.4875Q50.003124 71.4875 50.815624 72.14375Q51.64375 72.78438 51.64375 73.89375L51.64375 77.19063L51.925 77.19063Q52.503124 77.19063 52.7375 77.425Q52.9875 77.64375 52.9875 78.00313Q52.9875 78.34688 52.7375 78.58125Q52.503124 78.8 51.925 78.8L50.05 78.8ZM50.05 75.925Q49.08125 75.7375 48.26875 75.7375Q47.3 75.7375 46.596874 76.22188Q46.159374 76.51875 46.159374 76.83125Q46.159374 77.06563 46.3625 77.20625Q46.753124 77.45625 47.440624 77.45625Q48.01875 77.45625 48.7375 77.2375Q49.471874 77.00313 50.05 76.6125L50.05 75.925ZM56.128124 71.70625L56.128124 72.15938Q56.51875 71.76875 56.83125 71.62813Q57.159374 71.4875 57.565624 71.4875Q57.925 71.4875 58.26875 71.65938Q58.6125 71.83125 58.940624 72.175Q59.346874 71.83125 59.76875 71.65938Q60.20625 71.4875 60.64375 71.4875Q61.534374 71.4875 62.096874 71.97188Q62.83125 72.59688 62.83125 73.6125L62.83125 77.19063Q63.33125 77.19063 63.565624 77.425Q63.815624 77.64375 63.815624 78.00313Q63.815624 78.34688 63.565624 78.58125Q63.33125 78.8 62.753124 78.8L61.221874 78.8L61.221874 73.7375Q61.221874 73.37813 61.08125 73.2375Q60.95625 73.09688 60.690624 73.09688Q60.425 73.09688 60.190624 73.2375Q59.909374 73.425 59.4875 73.97188L59.4875 77.19063Q59.9875 77.19063 60.221874 77.425Q60.471874 77.64375 60.471874 78.00313Q60.471874 78.34688 60.221874 78.58125Q59.9875 78.8 59.409374 78.8L57.89375 78.8L57.89375 73.7375Q57.89375 73.37813 57.753124 73.2375Q57.6125 73.09688 57.346874 73.09688Q57.065624 73.09688 56.784374 73.26875Q56.51875 73.44063 56.128124 73.97188L56.128124 77.19063Q56.628124 77.19063 56.878124 77.425Q57.128124 77.64375 57.128124 78.00313Q57.128124 78.34688 56.878124 78.58125Q56.628124 78.8 56.05 78.8L54.6125 78.8Q54.034374 78.8 53.784374 78.58125Q53.534374 78.34688 53.534374 77.9875Q53.534374 77.64375 53.784374 77.425Q54.01875 77.19063 54.534374 77.19063L54.534374 73.3Q54.01875 73.3 53.784374 73.08125Q53.534374 72.84688 53.534374 72.50313Q53.534374 72.14375 53.784374 71.925Q54.034374 71.70625 54.6125 71.70625L56.128124 71.70625Z" fill-rule="nonzero"/><path fill="#9e9e9e" d="M27.096874 95.33125Q27.675 94.84688 28.190624 94.62813Q28.721874 94.39375 29.315624 94.39375Q30.58125 94.39375 31.51875 95.39375Q32.471874 96.39375 32.471874 97.90938Q32.471874 99.3 31.58125 100.175Q30.70625 101.03438 29.20625 101.03438Q27.940624 101.03438 27.128124 100.45625Q26.315624 99.8625 25.89375 98.64375Q25.4875 97.425 25.4875 95.925Q25.4875 94.12813 26.3 92.94063Q27.128124 91.7375 28.2375 91.08125Q29.346874 90.425 30.58125 90.425Q31.565624 90.425 32.096874 90.81563Q32.45625 91.06563 32.45625 91.47188Q32.45625 91.81563 32.221874 92.06563Q31.9875 92.3 31.659374 92.3Q31.471874 92.3 31.1125 92.1125Q30.909374 92.00313 30.70625 92.00313Q29.940624 92.00313 29.1125 92.44063Q28.3 92.8625 27.70625 93.76875Q27.284374 94.39375 27.096874 95.33125ZM27.33125 97.8Q27.58125 98.7375 28.003124 99.08125Q28.440624 99.425 29.221874 99.425Q30.01875 99.425 30.440624 99.01875Q30.8625 98.59688 30.8625 97.89375Q30.8625 97.08125 30.378124 96.55Q29.89375 96.00313 29.284374 96.00313Q28.8 96.00313 28.2375 96.4875Q27.690624 96.95625 27.33125 97.8ZM39.83125 99.9875Q39.83125 100.44063 39.503124 100.75313Q39.190624 101.06563 38.628124 101.06563Q38.065624 101.06563 37.7375 100.75313Q37.425 100.44063 37.425 99.9875Q37.425 99.53438 37.7375 99.2375Q38.065624 98.925 38.628124 98.925Q39.190624 98.925 39.503124 99.2375Q39.83125 99.53438 39.83125 99.9875ZM47.253124 92.28438L47.253124 94.19063Q48.14375 93.90938 48.878124 93.90938Q50.346874 93.90938 51.315624 94.925Q52.3 95.925 52.3 97.51875Q52.3 99.15938 51.315624 100.09688Q50.33125 101.03438 48.284374 101.03438Q46.4875 101.03438 45.440624 100.34688Q44.83125 99.95625 44.83125 99.45625Q44.83125 99.12813 45.065624 98.89375Q45.315624 98.65938 45.64375 98.65938Q45.909374 98.65938 46.221874 98.925Q46.55 99.175 46.909374 99.28438Q47.409374 99.425 48.190624 99.425Q49.64375 99.425 50.175 98.97188Q50.70625 98.50313 50.70625 97.53438Q50.70625 96.59688 50.190624 96.06563Q49.675 95.51875 48.878124 95.51875Q48.003124 95.51875 46.89375 96.08125Q46.64375 96.20625 46.45625 96.20625Q46.1125 96.20625 45.878124 95.95625Q45.659374 95.70625 45.659374 95.31563L45.659374 90.69063L50.55 90.69063Q51.128124 90.69063 51.378124 90.90938Q51.628124 91.12813 51.628124 91.4875Q51.628124 91.84688 51.378124 92.06563Q51.128124 92.28438 50.55 92.28438L47.253124 92.28438ZM59.83125 93.01875Q59.83125 93.95625 59.175 94.62813Q58.51875 95.28438 57.58125 95.28438Q56.64375 95.28438 55.971874 94.62813Q55.315624 93.95625 55.315624 93.01875Q55.315624 92.08125 55.971874 91.425Q56.64375 90.75313 57.58125 90.75313Q58.51875 90.75313 59.175 91.425Q59.83125 92.08125 59.83125 93.01875ZM58.846874 93.01875Q58.846874 92.4875 58.471874 92.12813Q58.096874 91.75313 57.58125 91.75313Q57.05 91.75313 56.675 92.12813Q56.3 92.4875 56.3 93.01875Q56.3 93.55 56.675 93.925Q57.05 94.3 57.58125 94.3Q58.096874 94.3 58.471874 93.925Q58.846874 93.55 58.846874 93.01875ZM61.721874 95.40938L55.815624 97.31563Q55.596874 97.39375 55.503124 97.39375Q55.315624 97.39375 55.175 97.25313Q55.034374 97.09688 55.034374 96.8625Q55.034374 96.70625 55.14375 96.56563Q55.221874 96.47188 55.51875 96.37813L61.425 94.45625Q61.64375 94.39375 61.7375 94.39375Q61.925 94.39375 62.065624 94.55Q62.20625 94.69063 62.20625 94.90938Q62.20625 95.08125 62.096874 95.20625Q62.01875 95.31563 61.721874 95.40938ZM61.8625 98.76875Q61.8625 99.70625 61.190624 100.37813Q60.534374 101.03438 59.596874 101.03438Q58.659374 101.03438 57.9875 100.37813Q57.33125 99.70625 57.33125 98.76875Q57.33125 97.83125 57.9875 97.175Q58.659374 96.50313 59.596874 96.50313Q60.534374 96.50313 61.190624 97.175Q61.8625 97.83125 61.8625 98.76875ZM60.878124 98.76875Q60.878124 98.2375 60.503124 97.87813Q60.128124 97.50313 59.596874 97.50313Q59.08125 97.50313 58.70625 97.87813Q58.33125 98.2375 58.33125 98.76875Q58.33125 99.3 58.70625 99.675Q59.08125 100.03438 59.596874 100.03438Q60.128124 100.03438 60.503124 99.675Q60.878124 99.3 60.878124 98.76875Z" fill-rule="nonzero"/><path stroke="#757575" stroke-width="1.0" stroke-linecap="butt" d="M23.8 85.3L161.8 85.3L281.1791 61.242172" fill-rule="nonzero"/><path fill="#9e9e9e" d="M283.1791 61.242172C283.1791 60.137604 282.2837 59.242172 281.1791 59.242172C280.07455 59.242172 279.1791 60.137604 279.1791 61.242172C279.1791 62.34674 280.07455 63.242172 281.1791 63.242172C282.2837 63.242172 283.1791 62.34674 283.1791 61.242172" fill-rule="nonzero"/><path fill="#1a1a1a" d="M31.1125 110.7375Q31.26875 110.53438 31.440624 110.44063Q31.6125 110.33125 31.815624 110.33125Q32.175 110.33125 32.39375 110.58125Q32.6125 110.81563 32.6125 111.39375L32.6125 112.75313Q32.6125 113.33125 32.39375 113.58125Q32.175 113.81563 31.815624 113.81563Q31.503124 113.81563 31.3 113.64375Q31.1125 113.45625 31.01875 112.97188Q30.95625 112.64375 30.8 112.45625Q30.471874 112.1125 29.89375 111.90938Q29.33125 111.69063 28.753124 111.69063Q28.034374 111.69063 27.425 112.00313Q26.83125 112.31563 26.3625 113.01875Q25.909374 113.72188 25.909374 114.69063L25.909374 115.72188Q25.909374 116.87813 26.7375 117.65938Q27.58125 118.425 29.08125 118.425Q29.971874 118.425 30.58125 118.19063Q30.940624 118.05 31.346874 117.62813Q31.596874 117.37813 31.7375 117.31563Q31.878124 117.2375 32.065624 117.2375Q32.378124 117.2375 32.6125 117.4875Q32.8625 117.72188 32.8625 118.05Q32.8625 118.37813 32.534374 118.75313Q32.065624 119.3 31.315624 119.6125Q30.3 120.03438 29.08125 120.03438Q27.659374 120.03438 26.51875 119.44063Q25.596874 118.97188 24.940624 117.97188Q24.3 116.95625 24.3 115.75313L24.3 114.675Q24.3 113.425 24.878124 112.34688Q25.471874 111.25313 26.503124 110.675Q27.534374 110.08125 28.690624 110.08125Q29.378124 110.08125 29.9875 110.25313Q30.596874 110.40938 31.1125 110.7375ZM42.76875 116.37813Q42.76875 117.3 42.253124 118.175Q41.7375 119.03438 40.721874 119.55Q39.721874 120.06563 38.6125 120.06563Q37.51875 120.06563 36.51875 119.56563Q35.51875 119.05 34.9875 118.19063Q34.471874 117.31563 34.471874 116.3625Q34.471874 115.40938 35.003124 114.4875Q35.534374 113.55 36.534374 113.01875Q37.534374 112.4875 38.6125 112.4875Q39.70625 112.4875 40.721874 113.03438Q41.7375 113.58125 42.253124 114.50313Q42.76875 115.40938 42.76875 116.37813ZM41.159374 116.39375Q41.159374 115.6125 40.6125 114.97188Q39.846874 114.09688 38.6125 114.09688Q37.534374 114.09688 36.8 114.8Q36.08125 115.4875 36.08125 116.39375Q36.08125 117.14375 36.815624 117.8Q37.55 118.45625 38.6125 118.45625Q39.690624 118.45625 40.425 117.8Q41.159374 117.14375 41.159374 116.39375ZM46.128124 112.70625L46.128124 113.15938Q46.51875 112.76875 46.83125 112.62813Q47.159374 112.4875 47.565624 112.4875Q47.925 112.4875 48.26875 112.65938Q48.6125 112.83125 48.940624 113.175Q49.346874 112.83125 49.76875 112.65938Q50.20625 112.4875 50.64375 112.4875Q51.534374 112.4875 52.096874 112.97188Q52.83125 113.59688 52.83125 114.6125L52.83125 118.19063Q53.33125 118.19063 53.565624 118.425Q53.815624 118.64375 53.815624 119.00313Q53.815624 119.34688 53.565624 119.58125Q53.33125 119.8 52.753124 119.8L51.221874 119.8L51.221874 114.7375Q51.221874 114.37813 51.08125 114.2375Q50.95625 114.09688 50.690624 114.09688Q50.425 114.09688 50.190624 114.2375Q49.909374 114.425 49.4875 114.97188L49.4875 118.19063Q49.9875 118.19063 50.221874 118.425Q50.471874 118.64375 50.471874 119.00313Q50.471874 119.34688 50.221874 119.58125Q49.9875 119.8 49.409374 119.8L47.89375 119.8L47.89375 114.7375Q47.89375 114.37813 47.753124 114.2375Q47.6125 114.09688 47.346874 114.09688Q47.065624 114.09688 46.784374 114.26875Q46.51875 114.44063 46.128124 114.97188L46.128124 118.19063Q46.628124 118.19063 46.878124 118.425Q47.128124 118.64375 47.128124 119.00313Q47.128124 119.34688 46.878124 119.58125Q46.628124 119.8 46.05 119.8L44.6125 119.8Q44.034374 119.8 43.784374 119.58125Q43.534374 119.34688 43.534374 118.9875Q43.534374 118.64375 43.784374 118.425Q44.01875 118.19063 44.534374 118.19063L44.534374 114.3Q44.01875 114.3 43.784374 114.08125Q43.534374 113.84688 43.534374 113.50313Q43.534374 113.14375 43.784374 112.925Q44.034374 112.70625 44.6125 112.70625L46.128124 112.70625ZM56.128124 112.70625L56.128124 113.15938Q56.51875 112.76875 56.83125 112.62813Q57.159374 112.4875 57.565624 112.4875Q57.925 112.4875 58.26875 112.65938Q58.6125 112.83125 58.940624 113.175Q59.346874 112.83125 59.76875 112.65938Q60.20625 112.4875 60.64375 112.4875Q61.534374 112.4875 62.096874 112.97188Q62.83125 113.59688 62.83125 114.6125L62.83125 118.19063Q63.33125 118.19063 63.565624 118.425Q63.815624 118.64375 63.815624 119.00313Q63.815624 119.34688 63.565624 119.58125Q63.33125 119.8 62.753124 119.8L61.221874 119.8L61.221874 114.7375Q61.221874 114.37813 61.08125 114.2375Q60.95625 114.09688 60.690624 114.09688Q60.425 114.09688 60.190624 114.2375Q59.909374 114.425 59.4875 114.97188L59.4875 118.19063Q59.9875 118.19063 60.221874 118.425Q60.471874 118.64375 60.471874 119.00313Q60.471874 119.34688 60.221874 119.58125Q59.9875 119.8 59.409374 119.8L57.89375 119.8L57.89375 114.7375Q57.89375 114.37813 57.753124 114.2375Q57.6125 114.09688 57.346874 114.09688Q57.065624 114.09688 56.784374 114.26875Q56.51875 114.44063 56.128124 114.97188L56.128124 118.19063Q56.628124 118.19063 56.878124 118.425Q57.128124 118.64375 57.128124 119.00313Q57.128124 119.34688 56.878124 119.58125Q56.628124 119.8 56.05 119.8L54.6125 119.8Q54.034374 119.8 53.784374 119.58125Q53.534374 119.34688 53.534374 118.9875Q53.534374 118.64375 53.784374 118.425Q54.01875 118.19063 54.534374 118.19063L54.534374 114.3Q54.01875 114.3 53.784374 114.08125Q53.534374 113.84688 53.534374 113.50313Q53.534374 113.14375 53.784374 112.925Q54.034374 112.70625 54.6125 112.70625L56.128124 112.70625ZM72.00313 112.70625L72.00313 118.19063Q72.51875 118.19063 72.75313 118.425Q73.00313 118.64375 73.00313 119.00313Q73.00313 119.34688 72.75313 119.58125Q72.50313 119.8 71.925 119.8L70.40938 119.8L70.40938 119.425Q69.72188 119.7375 69.09688 119.89375Q68.47188 120.06563 67.90938 120.06563Q67.1125 120.06563 66.53438 119.7375Q65.95625 119.39375 65.62813 118.8Q65.37813 118.37813 65.37813 117.75313L65.37813 114.3L65.1125 114.3Q64.53438 114.3 64.28438 114.08125Q64.03438 113.8625 64.03438 113.50313Q64.03438 113.14375 64.28438 112.925Q64.53438 112.70625 65.1125 112.70625L66.9875 112.70625L66.9875 117.47188Q66.9875 117.97188 67.22188 118.22188Q67.47188 118.45625 67.9875 118.45625Q68.47188 118.45625 69.01875 118.26875Q69.58125 118.06563 70.40938 117.56563L70.40938 114.3L69.83125 114.3Q69.25313 114.3 69.00313 114.08125Q68.75313 113.8625 68.75313 113.50313Q68.75313 113.14375 69.00313 112.925Q69.25313 112.70625 69.83125 112.70625L72.00313 112.70625ZM76.9875 112.70625L76.9875 113.2375Q77.425 112.8625 77.94063 112.675Q78.47188 112.4875 79.09688 112.4875Q80.51875 112.4875 81.34688 113.37813Q82.00313 114.08125 82.00313 115.22188L82.00313 118.19063Q82.50313 118.19063 82.7375 118.425Q82.9875 118.64375 82.9875 119.00313Q82.9875 119.34688 82.7375 119.58125Q82.50313 119.8 81.925 119.8L80.47188 119.8Q79.89375 119.8 79.64375 119.58125Q79.40938 119.34688 79.40938 118.9875Q79.40938 118.64375 79.64375 118.425Q79.89375 118.19063 80.39375 118.19063L80.39375 115.175Q80.39375 114.64375 80.1125 114.40938Q79.75313 114.09688 79.01875 114.09688Q78.45625 114.09688 78.03438 114.31563Q77.62813 114.51875 76.9875 115.22188L76.9875 118.19063Q77.59688 118.19063 77.78438 118.31563Q78.15938 118.55 78.15938 119.00313Q78.15938 119.34688 77.90938 119.58125Q77.675 119.8 77.09688 119.8L75.26875 119.8Q74.69063 119.8 74.44063 119.58125Q74.20625 119.34688 74.20625 118.9875Q74.20625 118.55 74.58125 118.31563Q74.76875 118.19063 75.37813 118.19063L75.37813 114.3Q74.87813 114.3 74.62813 114.08125Q74.39375 113.84688 74.39375 113.50313Q74.39375 113.14375 74.62813 112.925Q74.87813 112.70625 75.45625 112.70625L76.9875 112.70625ZM89.175 109.65938L89.175 111.3625L87.26875 111.3625L87.26875 109.65938L89.175 109.65938ZM89.39375 112.70625L89.39375 118.19063L91.31563 118.19063Q91.89375 118.19063 92.14375 118.425Q92.39375 118.64375 92.39375 119.00313Q92.39375 119.34688 92.14375 119.58125Q91.89375 119.8 91.31563 119.8L85.87813 119.8Q85.3 119.8 85.05 119.58125Q84.8 119.34688 84.8 118.9875Q84.8 118.64375 85.05 118.425Q85.3 118.19063 85.87813 118.19063L87.8 118.19063L87.8 114.3L86.50313 114.3Q85.94063 114.3 85.69063 114.08125Q85.44063 113.8625 85.44063 113.50313Q85.44063 113.14375 85.675 112.925Q85.925 112.70625 86.50313 112.70625L89.39375 112.70625ZM98.20625 114.3L98.20625 117.51875Q98.20625 118.03438 98.425 118.19063Q98.75313 118.45625 99.59688 118.45625Q100.81563 118.45625 101.8625 117.925Q102.25313 117.72188 102.4875 117.72188Q102.8 117.72188 103.01875 117.95625Q103.25313 118.19063 103.25313 118.53438Q103.25313 118.84688 103.00313 119.06563Q102.62813 119.44063 101.4875 119.75313Q100.3625 120.06563 99.59688 120.06563Q98.09688 120.06563 97.34688 119.425Q96.6125 118.76875 96.6125 117.83125L96.6125 114.3L96.03438 114.3Q95.45625 114.3 95.20625 114.08125Q94.95625 113.8625 94.95625 113.50313Q94.95625 113.14375 95.20625 112.925Q95.45625 112.70625 96.03438 112.70625L96.6125 112.70625L96.6125 111.25313Q96.6125 110.675 96.83125 110.44063Q97.05 110.19063 97.40938 110.19063Q97.76875 110.19063 97.9875 110.44063Q98.20625 110.675 98.20625 111.25313L98.20625 112.70625L101.175 112.70625Q101.75313 112.70625 101.9875 112.925Q102.2375 113.14375 102.2375 113.50313Q102.2375 113.8625 101.9875 114.08125Q101.75313 114.3 101.175 114.3L98.20625 114.3ZM107.70625 119.7375L104.94063 114.3Q104.55 114.25313 104.34688 114.03438Q104.14375 113.81563 104.14375 113.50313Q104.14375 113.14375 104.37813 112.925Q104.62813 112.70625 105.20625 112.70625L106.675 112.70625Q107.25313 112.70625 107.4875 112.925Q107.7375 113.14375 107.7375 113.50313Q107.7375 113.8625 107.4875 114.08125Q107.25313 114.3 106.72188 114.3L108.6125 117.9875L110.4875 114.3Q109.97188 114.3 109.72188 114.08125Q109.47188 113.8625 109.47188 113.50313Q109.47188 113.14375 109.72188 112.925Q109.97188 112.70625 110.55 112.70625L112.05 112.70625Q112.62813 112.70625 112.8625 112.925Q113.1125 113.14375 113.1125 113.50313Q113.1125 113.83125 112.89375 114.05Q112.69063 114.26875 112.28438 114.3L108.6125 121.55Q109.20625 121.55 109.39375 121.65938Q109.76875 121.90938 109.76875 122.34688Q109.76875 122.70625 109.51875 122.925Q109.28438 123.14375 108.70625 123.14375L105.20625 123.14375Q104.62813 123.14375 104.37813 122.925Q104.14375 122.70625 104.14375 122.34688Q104.14375 121.9875 104.37813 121.76875Q104.62813 121.55 105.20625 121.55L106.8 121.55L107.70625 119.7375Z" fill-rule="nonzero"/><path fill="#9e9e9e" d="M30.878124 136.675Q31.4875 137.15938 31.8 137.76875Q32.1125 138.3625 32.1125 139.09688Q32.1125 139.89375 31.70625 140.58125Q31.315624 141.25313 30.471874 141.64375Q29.628124 142.03438 28.596874 142.03438Q27.565624 142.03438 26.7375 141.64375Q25.909374 141.25313 25.51875 140.58125Q25.128124 139.89375 25.128124 139.09688Q25.128124 138.3625 25.425 137.76875Q25.7375 137.15938 26.3625 136.675Q25.815624 136.175 25.534374 135.6125Q25.26875 135.05 25.26875 134.425Q25.26875 133.20625 26.20625 132.31563Q27.14375 131.425 28.6125 131.425Q30.08125 131.425 31.01875 132.31563Q31.95625 133.20625 31.95625 134.425Q31.95625 135.06563 31.690624 135.62813Q31.425 136.19063 30.878124 136.675ZM30.315624 134.45625Q30.315624 133.8625 29.846874 133.45625Q29.39375 133.03438 28.596874 133.03438Q27.8 133.03438 27.33125 133.45625Q26.878124 133.8625 26.878124 134.45625Q26.878124 135.06563 27.33125 135.4875Q27.8 135.89375 28.596874 135.89375Q29.39375 135.89375 29.846874 135.4875Q30.315624 135.06563 30.315624 134.45625ZM30.503124 139.175Q30.503124 138.53438 29.95625 138.03438Q29.425 137.51875 28.6125 137.51875Q27.815624 137.51875 27.26875 138.03438Q26.721874 138.53438 26.721874 139.19063Q26.721874 139.69063 27.190624 140.06563Q27.659374 140.425 28.6125 140.425Q29.58125 140.425 30.034374 140.06563Q30.503124 139.69063 30.503124 139.175ZM39.83125 140.9875Q39.83125 141.44063 39.503124 141.75313Q39.190624 142.06563 38.628124 142.06563Q38.065624 142.06563 37.7375 141.75313Q37.425 141.44063 37.425 140.9875Q37.425 140.53438 37.7375 140.2375Q38.065624 139.925 38.628124 139.925Q39.190624 139.925 39.503124 140.2375Q39.83125 140.53438 39.83125 140.9875ZM47.253124 133.28438L47.253124 135.19063Q48.14375 134.90938 48.878124 134.90938Q50.346874 134.90938 51.315624 135.925Q52.3 136.925 52.3 138.51875Q52.3 140.15938 51.315624 141.09688Q50.33125 142.03438 48.284374 142.03438Q46.4875 142.03438 45.440624 141.34688Q44.83125 140.95625 44.83125 140.45625Q44.83125 140.12813 45.065624 139.89375Q45.315624 139.65938 45.64375 139.65938Q45.909374 139.65938 46.221874 139.925Q46.55 140.175 46.909374 140.28438Q47.409374 140.425 48.190624 140.425Q49.64375 140.425 50.175 139.97188Q50.70625 139.50313 50.70625 138.53438Q50.70625 137.59688 50.190624 137.06563Q49.675 136.51875 48.878124 136.51875Q48.003124 136.51875 46.89375 137.08125Q46.64375 137.20625 46.45625 137.20625Q46.1125 137.20625 45.878124 136.95625Q45.659374 136.70625 45.659374 136.31563L45.659374 131.69063L50.55 131.69063Q51.128124 131.69063 51.378124 131.90938Q51.628124 132.12813 51.628124 132.4875Q51.628124 132.84688 51.378124 133.06563Q51.128124 133.28438 50.55 133.28438L47.253124 133.28438ZM59.83125 134.01875Q59.83125 134.95625 59.175 135.62813Q58.51875 136.28438 57.58125 136.28438Q56.64375 136.28438 55.971874 135.62813Q55.315624 134.95625 55.315624 134.01875Q55.315624 133.08125 55.971874 132.425Q56.64375 131.75313 57.58125 131.75313Q58.51875 131.75313 59.175 132.425Q59.83125 133.08125 59.83125 134.01875ZM58.846874 134.01875Q58.846874 133.4875 58.471874 133.12813Q58.096874 132.75313 57.58125 132.75313Q57.05 132.75313 56.675 133.12813Q56.3 133.4875 56.3 134.01875Q56.3 134.55 56.675 134.925Q57.05 135.3 57.58125 135.3Q58.096874 135.3 58.471874 134.925Q58.846874 134.55 58.846874 134.01875ZM61.721874 136.40938L55.815624 138.31563Q55.596874 138.39375 55.503124 138.39375Q55.315624 138.39375 55.175 138.25313Q55.034374 138.09688 55.034374 137.8625Q55.034374 137.70625 55.14375 137.56563Q55.221874 137.47188 55.51875 137.37813L61.425 135.45625Q61.64375 135.39375 61.7375 135.39375Q61.925 135.39375 62.065624 135.55Q62.20625 135.69063 62.20625 135.90938Q62.20625 136.08125 62.096874 136.20625Q62.01875 136.31563 61.721874 136.40938ZM61.8625 139.76875Q61.8625 140.70625 61.190624 141.37813Q60.534374 142.03438 59.596874 142.03438Q58.659374 142.03438 57.9875 141.37813Q57.33125 140.70625 57.33125 139.76875Q57.33125 138.83125 57.9875 138.175Q58.659374 137.50313 59.596874 137.50313Q60.534374 137.50313 61.190624 138.175Q61.8625 138.83125 61.8625 139.76875ZM60.878124 139.76875Q60.878124 139.2375 60.503124 138.87813Q60.128124 138.50313 59.596874 138.50313Q59.08125 138.50313 58.70625 138.87813Q58.33125 139.2375 58.33125 139.76875Q58.33125 140.3 58.70625 140.675Q59.08125 141.03438 59.596874 141.03438Q60.128124 141.03438 60.503124 140.675Q60.878124 140.3 60.878124 139.76875Z" fill-rule="nonzero"/><path stroke="#757575" stroke-width="1.0" stroke-linecap="butt" d="M23.8 126.3L161.8 126.3L211.92155 126.27935" fill-rule="nonzero"/><path fill="#9e9e9e" d="M213.92155 126.27935C213.92155 125.174774 213.02612 124.27935 211.92155 124.27935C210.81699 124.27935 209.92155 125.174774 209.92155 126.27935C209.92155 127.38392 210.81699 128.27934 211.92155 128.27934C213.02612 128.27934 213.92155 127.38392 213.92155 126.27935" fill-rule="nonzero"/><path fill="#1a1a1a" d="M27.940624 223.625L27.940624 229.89062L31.39375 229.89062L31.39375 228.375Q31.39375 227.79688 31.6125 227.5625Q31.83125 227.3125 32.190624 227.3125Q32.55 227.3125 32.76875 227.5625Q32.9875 227.79688 32.9875 228.375L32.9875 231.5L25.409374 231.5Q24.83125 231.5 24.58125 231.28125Q24.33125 231.04688 24.33125 230.6875Q24.33125 230.34375 24.58125 230.125Q24.83125 229.89062 25.409374 229.89062L26.33125 229.89062L26.33125 223.625L25.409374 223.625Q24.83125 223.625 24.58125 223.40625Q24.33125 223.1875 24.33125 222.82812Q24.33125 222.46875 24.58125 222.25Q24.83125 222.01562 25.409374 222.01562L28.878124 222.03125Q29.45625 222.03125 29.690624 222.25Q29.940624 222.46875 29.940624 222.82812Q29.940624 223.1875 29.690624 223.40625Q29.45625 223.625 28.878124 223.625L27.940624 223.625ZM39.175 221.35938L39.175 223.0625L37.26875 223.0625L37.26875 221.35938L39.175 221.35938ZM39.39375 224.40625L39.39375 229.89062L41.315624 229.89062Q41.89375 229.89062 42.14375 230.125Q42.39375 230.34375 42.39375 230.70312Q42.39375 231.04688 42.14375 231.28125Q41.89375 231.5 41.315624 231.5L35.878124 231.5Q35.3 231.5 35.05 231.28125Q34.8 231.04688 34.8 230.6875Q34.8 230.34375 35.05 230.125Q35.3 229.89062 35.878124 229.89062L37.8 229.89062L37.8 226.0L36.503124 226.0Q35.940624 226.0 35.690624 225.78125Q35.440624 225.5625 35.440624 225.20312Q35.440624 224.84375 35.675 224.625Q35.925 224.40625 36.503124 224.40625L39.39375 224.40625ZM52.315624 226.0L52.315624 233.25L52.596874 233.25Q53.175 233.25 53.409374 233.46875Q53.659374 233.6875 53.659374 234.04688Q53.659374 234.40625 53.409374 234.625Q53.175 234.84375 52.596874 234.84375L49.76875 234.84375Q49.190624 234.84375 48.940624 234.625Q48.690624 234.40625 48.690624 234.04688Q48.690624 233.6875 48.940624 233.46875Q49.190624 233.25 49.76875 233.25L50.721874 233.25L50.721874 230.60938Q50.128124 230.96875 49.51875 231.15625Q48.925 231.32812 48.3 231.32812Q46.878124 231.32812 45.7375 230.46875Q44.3625 229.4375 44.3625 227.85938Q44.3625 226.42188 45.51875 225.3125Q46.675 224.1875 48.33125 224.1875Q48.95625 224.1875 49.55 224.375Q50.159374 224.5625 50.721874 224.95312L50.721874 224.40625L52.596874 224.40625Q53.175 224.40625 53.409374 224.625Q53.659374 224.84375 53.659374 225.20312Q53.659374 225.5625 53.409374 225.78125Q53.175 226.0 52.596874 226.0L52.315624 226.0ZM50.721874 227.85938Q50.721874 227.53125 50.45625 227.01562Q50.190624 226.48438 49.628124 226.14062Q49.08125 225.79688 48.346874 225.79688Q47.14375 225.79688 46.440624 226.6875Q45.971874 227.3125 45.971874 227.875Q45.971874 228.53125 46.64375 229.14062Q47.33125 229.73438 48.346874 229.73438Q49.3625 229.73438 50.034374 229.14062Q50.721874 228.53125 50.721874 227.85938ZM62.003124 224.40625L62.003124 229.89062Q62.51875 229.89062 62.753124 230.125Q63.003124 230.34375 63.003124 230.70312Q63.003124 231.04688 62.753124 231.28125Q62.503124 231.5 61.925 231.5L60.409374 231.5L60.409374 231.125Q59.721874 231.4375 59.096874 231.59375Q58.471874 231.76562 57.909374 231.76562Q57.1125 231.76562 56.534374 231.4375Q55.95625 231.09375 55.628124 230.5Q55.378124 230.07812 55.378124 229.45312L55.378124 226.0L55.1125 226.0Q54.534374 226.0 54.284374 225.78125Q54.034374 225.5625 54.034374 225.20312Q54.034374 224.84375 54.284374 224.625Q54.534374 224.40625 55.1125 224.40625L56.9875 224.40625L56.9875 229.17188Q56.9875 229.67188 57.221874 229.92188Q57.471874 230.15625 57.9875 230.15625Q58.471874 230.15625 59.01875 229.96875Q59.58125 229.76562 60.409374 229.26562L60.409374 226.0L59.83125 226.0Q59.253124 226.0 59.003124 225.78125Q58.753124 225.5625 58.753124 225.20312Q58.753124 224.84375 59.003124 224.625Q59.253124 224.40625 59.83125 224.40625L62.003124 224.40625ZM69.175 221.35938L69.175 223.0625L67.26875 223.0625L67.26875 221.35938L69.175 221.35938ZM69.39375 224.40625L69.39375 229.89062L71.31563 229.89062Q71.89375 229.89062 72.14375 230.125Q72.39375 230.34375 72.39375 230.70312Q72.39375 231.04688 72.14375 231.28125Q71.89375 231.5 71.31563 231.5L65.87813 231.5Q65.3 231.5 65.05 231.28125Q64.8 231.04688 64.8 230.6875Q64.8 230.34375 65.05 230.125Q65.3 229.89062 65.87813 229.89062L67.8 229.89062L67.8 226.0L66.50313 226.0Q65.94063 226.0 65.69063 225.78125Q65.44063 225.5625 65.44063 225.20312Q65.44063 224.84375 65.675 224.625Q65.925 224.40625 66.50313 224.40625L69.39375 224.40625ZM82.28438 221.35938L82.28438 229.89062L82.55 229.89062Q83.12813 229.89062 83.37813 230.125Q83.62813 230.34375 83.62813 230.70312Q83.62813 231.04688 83.37813 231.28125Q83.12813 231.5 82.55 231.5L80.675 231.5L80.675 231.10938Q80.12813 231.42188 79.53438 231.59375Q78.94063 231.76562 78.3 231.76562Q76.4875 231.76562 75.37813 230.71875Q74.28438 229.67188 74.28438 228.10938Q74.28438 226.48438 75.44063 225.34375Q76.59688 224.1875 78.26875 224.1875Q78.89375 224.1875 79.4875 224.39062Q80.09688 224.57812 80.675 224.95312L80.675 222.96875L80.40938 222.96875Q79.83125 222.96875 79.58125 222.75Q79.33125 222.51562 79.33125 222.17188Q79.33125 221.8125 79.58125 221.59375Q79.83125 221.35938 80.40938 221.35938L82.28438 221.35938ZM80.675 228.15625Q80.675 227.17188 79.97188 226.48438Q79.28438 225.79688 78.28438 225.79688Q77.28438 225.79688 76.58125 226.48438Q75.89375 227.17188 75.89375 228.14062Q75.89375 229.01562 76.51875 229.59375Q77.14375 230.15625 78.28438 230.15625Q79.40938 230.15625 80.03438 229.59375Q80.675 229.01562 80.675 228.15625ZM89.175 221.35938L89.175 223.0625L87.26875 223.0625L87.26875 221.35938L89.175 221.35938ZM89.39375 224.40625L89.39375 229.89062L91.31563 229.89062Q91.89375 229.89062 92.14375 230.125Q92.39375 230.34375 92.39375 230.70312Q92.39375 231.04688 92.14375 231.28125Q91.89375 231.5 91.31563 231.5L85.87813 231.5Q85.3 231.5 85.05 231.28125Q84.8 231.04688 84.8 230.6875Q84.8 230.34375 85.05 230.125Q85.3 229.89062 85.87813 229.89062L87.8 229.89062L87.8 226.0L86.50313 226.0Q85.94063 226.0 85.69063 225.78125Q85.44063 225.5625 85.44063 225.20312Q85.44063 224.84375 85.675 224.625Q85.925 224.40625 86.50313 224.40625L89.39375 224.40625ZM98.20625 226.0L98.20625 229.21875Q98.20625 229.73438 98.425 229.89062Q98.75313 230.15625 99.59688 230.15625Q100.81563 230.15625 101.8625 229.625Q102.25313 229.42188 102.4875 229.42188Q102.8 229.42188 103.01875 229.65625Q103.25313 229.89062 103.25313 230.23438Q103.25313 230.54688 103.00313 230.76562Q102.62813 231.14062 101.4875 231.45312Q100.3625 231.76562 99.59688 231.76562Q98.09688 231.76562 97.34688 231.125Q96.6125 230.46875 96.6125 229.53125L96.6125 226.0L96.03438 226.0Q95.45625 226.0 95.20625 225.78125Q94.95625 225.5625 94.95625 225.20312Q94.95625 224.84375 95.20625 224.625Q95.45625 224.40625 96.03438 224.40625L96.6125 224.40625L96.6125 222.95312Q96.6125 222.375 96.83125 222.14062Q97.05 221.89062 97.40938 221.89062Q97.76875 221.89062 97.9875 222.14062Q98.20625 222.375 98.20625 222.95312L98.20625 224.40625L101.175 224.40625Q101.75313 224.40625 101.9875 224.625Q102.2375 224.84375 102.2375 225.20312Q102.2375 225.5625 101.9875 225.78125Q101.75313 226.0 101.175 226.0L98.20625 226.0ZM107.70625 231.4375L104.94063 226.0Q104.55 225.95312 104.34688 225.73438Q104.14375 225.51562 104.14375 225.20312Q104.14375 224.84375 104.37813 224.625Q104.62813 224.40625 105.20625 224.40625L106.675 224.40625Q107.25313 224.40625 107.4875 224.625Q107.7375 224.84375 107.7375 225.20312Q107.7375 225.5625 107.4875 225.78125Q107.25313 226.0 106.72188 226.0L108.6125 229.6875L110.4875 226.0Q109.97188 226.0 109.72188 225.78125Q109.47188 225.5625 109.47188 225.20312Q109.47188 224.84375 109.72188 224.625Q109.97188 224.40625 110.55 224.40625L112.05 224.40625Q112.62813 224.40625 112.8625 224.625Q113.1125 224.84375 113.1125 225.20312Q113.1125 225.53125 112.89375 225.75Q112.69063 225.96875 112.28438 226.0L108.6125 233.25Q109.20625 233.25 109.39375 233.35938Q109.76875 233.60938 109.76875 234.04688Q109.76875 234.40625 109.51875 234.625Q109.28438 234.84375 108.70625 234.84375L105.20625 234.84375Q104.62813 234.84375 104.37813 234.625Q104.14375 234.40625 104.14375 234.04688Q104.14375 233.6875 104.37813 233.46875Q104.62813 233.25 105.20625 233.25L106.8 233.25L107.70625 231.4375Z" fill-rule="nonzero"/><path fill="#9e9e9e" d="M29.425 243.125L29.425 251.89062L31.034374 251.89062Q31.6125 251.89062 31.8625 252.125Q32.1125 252.34375 32.1125 252.70312Q32.1125 253.04688 31.8625 253.28125Q31.6125 253.5 31.034374 253.5L26.20625 253.5Q25.628124 253.5 25.378124 253.28125Q25.128124 253.04688 25.128124 252.6875Q25.128124 252.34375 25.378124 252.125Q25.628124 251.89062 26.20625 251.89062L27.815624 251.89062L27.815624 245.21875L26.39375 245.59375Q26.05 245.6875 25.878124 245.6875Q25.565624 245.6875 25.346874 245.45312Q25.128124 245.20312 25.128124 244.84375Q25.128124 244.53125 25.284374 244.34375Q25.45625 244.15625 25.971874 244.01562L29.425 243.125ZM42.096874 247.54688L42.096874 249.3125Q42.096874 250.875 41.190624 252.3125Q40.3 253.73438 38.6125 253.73438Q37.64375 253.73438 36.971874 253.3125Q36.315624 252.875 35.70625 251.73438Q35.1125 250.59375 35.1125 249.3125L35.1125 247.54688Q35.1125 246.0 36.003124 244.5625Q36.909374 243.125 38.596874 243.125Q39.55 243.125 40.221874 243.54688Q40.89375 243.96875 41.4875 245.125Q42.096874 246.26562 42.096874 247.54688ZM40.4875 247.54688Q40.4875 246.25 39.76875 245.26562Q39.346874 244.73438 38.596874 244.73438Q37.878124 244.73438 37.409374 245.32812Q36.721874 246.21875 36.721874 247.54688L36.721874 249.3125Q36.721874 250.625 37.45625 251.59375Q37.8625 252.125 38.6125 252.125Q39.33125 252.125 39.8 251.53125Q40.4875 250.64062 40.4875 249.3125L40.4875 247.54688ZM49.83125 252.6875Q49.83125 253.14062 49.503124 253.45312Q49.190624 253.76562 48.628124 253.76562Q48.065624 253.76562 47.7375 253.45312Q47.425 253.14062 47.425 252.6875Q47.425 252.23438 47.7375 251.9375Q48.065624 251.625 48.628124 251.625Q49.190624 251.625 49.503124 251.9375Q49.83125 252.23438 49.83125 252.6875ZM62.096874 247.54688L62.096874 249.3125Q62.096874 250.875 61.190624 252.3125Q60.3 253.73438 58.6125 253.73438Q57.64375 253.73438 56.971874 253.3125Q56.315624 252.875 55.70625 251.73438Q55.1125 250.59375 55.1125 249.3125L55.1125 247.54688Q55.1125 246.0 56.003124 244.5625Q56.909374 243.125 58.596874 243.125Q59.55 243.125 60.221874 243.54688Q60.89375 243.96875 61.4875 245.125Q62.096874 246.26562 62.096874 247.54688ZM60.4875 247.54688Q60.4875 246.25 59.76875 245.26562Q59.346874 244.73438 58.596874 244.73438Q57.878124 244.73438 57.409374 245.32812Q56.721874 246.21875 56.721874 247.54688L56.721874 249.3125Q56.721874 250.625 57.45625 251.59375Q57.8625 252.125 58.6125 252.125Q59.33125 252.125 59.8 251.53125Q60.4875 250.64062 60.4875 249.3125L60.4875 247.54688ZM69.83125 245.71875Q69.83125 246.65625 69.175 247.32812Q68.51875 247.98438 67.58125 247.98438Q66.64375 247.98438 65.97188 247.32812Q65.31563 246.65625 65.31563 245.71875Q65.31563 244.78125 65.97188 244.125Q66.64375 243.45312 67.58125 243.45312Q68.51875 243.45312 69.175 244.125Q69.83125 244.78125 69.83125 245.71875ZM68.84688 245.71875Q68.84688 245.1875 68.47188 244.82812Q68.09688 244.45312 67.58125 244.45312Q67.05 244.45312 66.675 244.82812Q66.3 245.1875 66.3 245.71875Q66.3 246.25 66.675 246.625Q67.05 247.0 67.58125 247.0Q68.09688 247.0 68.47188 246.625Q68.84688 246.25 68.84688 245.71875ZM71.72188 248.10938L65.81563 250.01562Q65.59688 250.09375 65.50313 250.09375Q65.31563 250.09375 65.175 249.95312Q65.03438 249.79688 65.03438 249.5625Q65.03438 249.40625 65.14375 249.26562Q65.22188 249.17188 65.51875 249.07812L71.425 247.15625Q71.64375 247.09375 71.7375 247.09375Q71.925 247.09375 72.06563 247.25Q72.20625 247.39062 72.20625 247.60938Q72.20625 247.78125 72.09688 247.90625Q72.01875 248.01562 71.72188 248.10938ZM71.8625 251.46875Q71.8625 252.40625 71.19063 253.07812Q70.53438 253.73438 69.59688 253.73438Q68.65938 253.73438 67.9875 253.07812Q67.33125 252.40625 67.33125 251.46875Q67.33125 250.53125 67.9875 249.875Q68.65938 249.20312 69.59688 249.20312Q70.53438 249.20312 71.19063 249.875Q71.8625 250.53125 71.8625 251.46875ZM70.87813 251.46875Q70.87813 250.9375 70.50313 250.57812Q70.12813 250.20312 69.59688 250.20312Q69.08125 250.20312 68.70625 250.57812Q68.33125 250.9375 68.33125 251.46875Q68.33125 252.0 68.70625 252.375Q69.08125 252.73438 69.59688 252.73438Q70.12813 252.73438 70.50313 252.375Q70.87813 252.0 70.87813 251.46875Z" fill-rule="nonzero"/><path stroke="#757575" stroke-width="1.0" stroke-linecap="butt" d="M23.8 238.0L161.8 238.0L178.51 238.0" fill-rule="nonzero"/><path fill="#9e9e9e" d="M180.51 238.0C180.51 236.89543 179.61456 236.0 178.51 236.0C177.40543 236.0 176.51 236.89543 176.51 238.0C176.51 239.10457 177.40543 240.0 178.51 240.0C179.61456 240.0 180.51 239.10457 180.51 238.0" fill-rule="nonzero"/><path fill="#1a1a1a" d="M634.075 347.85843L634.075 349.49905L635.7 349.49905Q636.27814 349.49905 636.5125 349.73343Q636.7625 349.95218 636.7625 350.31155Q636.7625 350.6553 636.5125 350.88968Q636.27814 351.10843 635.7 351.10843L632.23126 351.10843Q631.65314 351.10843 631.40314 350.88968Q631.15314 350.6553 631.15314 350.29593Q631.15314 349.95218 631.40314 349.73343Q631.65314 349.49905 632.23126 349.49905L632.48126 349.49905L632.48126 343.23343L632.23126 343.23343Q631.65314 343.23343 631.40314 343.01468Q631.15314 342.79593 631.15314 342.43655Q631.15314 342.07718 631.40314 341.85843Q631.65314 341.62405 632.23126 341.62405L635.91876 341.63968Q637.54376 341.63968 638.48126 342.5303Q639.4344 343.4053 639.4344 344.68655Q639.4344 345.38968 639.1219 346.01468Q638.8719 346.48343 638.3094 346.93655Q637.7469 347.38968 637.15314 347.62405Q636.5594 347.85843 635.59064 347.85843L634.075 347.85843ZM634.075 346.24905L635.5594 346.24905Q636.60626 346.24905 637.21564 345.7803Q637.84064 345.31155 637.84064 344.63968Q637.84064 344.07718 637.34064 343.6553Q636.84064 343.23343 635.91876 343.23343L634.075 343.23343L634.075 346.24905ZM648.40314 344.01468L648.40314 349.49905Q648.91876 349.49905 649.15314 349.73343Q649.40314 349.95218 649.40314 350.31155Q649.40314 350.6553 649.15314 350.88968Q648.90314 351.10843 648.325 351.10843L646.8094 351.10843L646.8094 350.73343Q646.1219 351.04593 645.4969 351.20218Q644.8719 351.37405 644.3094 351.37405Q643.5125 351.37405 642.9344 351.04593Q642.35626 350.70218 642.02814 350.10843Q641.77814 349.68655 641.77814 349.06155L641.77814 345.60843L641.5125 345.60843Q640.9344 345.60843 640.6844 345.38968Q640.4344 345.17093 640.4344 344.81155Q640.4344 344.45218 640.6844 344.23343Q640.9344 344.01468 641.5125 344.01468L643.3875 344.01468L643.3875 348.7803Q643.3875 349.2803 643.6219 349.5303Q643.8719 349.76468 644.3875 349.76468Q644.8719 349.76468 645.41876 349.57718Q645.98126 349.37405 646.8094 348.87405L646.8094 345.60843L646.23126 345.60843Q645.65314 345.60843 645.40314 345.38968Q645.15314 345.17093 645.15314 344.81155Q645.15314 344.45218 645.40314 344.23343Q645.65314 344.01468 646.23126 344.01468L648.40314 344.01468ZM652.98126 340.9678L652.98126 344.56155Q653.575 344.18655 654.16876 343.99905Q654.77814 343.79593 655.40314 343.79593Q657.0594 343.79593 658.21564 344.95218Q659.3719 346.0928 659.3719 347.7178Q659.3719 349.2803 658.2625 350.32718Q657.16876 351.37405 655.3719 351.37405Q654.73126 351.37405 654.1375 351.20218Q653.54376 351.0303 652.98126 350.7178L652.98126 351.10843L651.10626 351.10843Q650.52814 351.10843 650.27814 350.88968Q650.02814 350.6553 650.02814 350.29593Q650.02814 349.95218 650.27814 349.73343Q650.54376 349.49905 651.10626 349.49905L651.3875 349.49905L651.3875 342.57718L651.10626 342.57718Q650.52814 342.57718 650.27814 342.35843Q650.02814 342.12405 650.02814 341.76468Q650.02814 341.42093 650.27814 341.20218Q650.52814 340.9678 651.10626 340.9678L652.98126 340.9678ZM657.77814 347.76468Q657.77814 346.7803 657.075 346.0928Q656.3875 345.4053 655.3719 345.4053Q654.3719 345.4053 653.66876 346.0928Q652.98126 346.7803 652.98126 347.74905Q652.98126 348.62405 653.60626 349.20218Q654.23126 349.76468 655.3719 349.76468Q656.5125 349.76468 657.1375 349.20218Q657.77814 348.62405 657.77814 347.76468ZM665.8094 340.9678L665.8094 349.49905L667.73126 349.49905Q668.3094 349.49905 668.54376 349.73343Q668.79376 349.95218 668.79376 350.31155Q668.79376 350.6553 668.54376 350.88968Q668.3094 351.10843 667.73126 351.10843L662.27814 351.10843Q661.7 351.10843 661.45 350.88968Q661.21564 350.6553 661.21564 350.29593Q661.21564 349.95218 661.45 349.73343Q661.7 349.49905 662.27814 349.49905L664.2 349.49905L664.2 342.57718L662.91876 342.57718Q662.34064 342.57718 662.09064 342.35843Q661.84064 342.12405 661.84064 341.76468Q661.84064 341.42093 662.09064 341.20218Q662.34064 340.9678 662.91876 340.9678L665.8094 340.9678ZM675.575 340.9678L675.575 342.67093L673.66876 342.67093L673.66876 340.9678L675.575 340.9678ZM675.79376 344.01468L675.79376 349.49905L677.71564 349.49905Q678.29376 349.49905 678.54376 349.73343Q678.79376 349.95218 678.79376 350.31155Q678.79376 350.6553 678.54376 350.88968Q678.29376 351.10843 677.71564 351.10843L672.27814 351.10843Q671.7 351.10843 671.45 350.88968Q671.2 350.6553 671.2 350.29593Q671.2 349.95218 671.45 349.73343Q671.7 349.49905 672.27814 349.49905L674.2 349.49905L674.2 345.60843L672.90314 345.60843Q672.34064 345.60843 672.09064 345.38968Q671.84064 345.17093 671.84064 344.81155Q671.84064 344.45218 672.075 344.23343Q672.325 344.01468 672.90314 344.01468L675.79376 344.01468ZM687.4969 344.29593Q687.79376 344.0303 688.09064 344.0303Q688.4344 344.0303 688.65314 344.2803Q688.8875 344.51468 688.8875 345.0928L688.8875 346.12405Q688.8875 346.70218 688.65314 346.95218Q688.4344 347.18655 688.075 347.18655Q687.7469 347.18655 687.52814 346.99905Q687.35626 346.85843 687.2625 346.42093Q687.16876 345.98343 686.8094 345.7803Q686.1844 345.4053 685.2 345.4053Q684.0594 345.4053 683.3719 346.07718Q682.7 346.73343 682.7 347.74905Q682.7 348.68655 683.35626 349.23343Q684.0125 349.76468 685.52814 349.76468Q686.52814 349.76468 687.16876 349.56155Q687.54376 349.43655 687.8719 349.13968Q688.21564 348.8428 688.48126 348.8428Q688.8094 348.8428 689.04376 349.0928Q689.29376 349.32718 689.29376 349.6553Q689.29376 350.18655 688.5594 350.6553Q687.48126 351.37405 685.40314 351.37405Q683.54376 351.37405 682.4969 350.5928Q681.09064 349.56155 681.09064 347.74905Q681.09064 346.04593 682.23126 344.92093Q683.3719 343.79593 685.21564 343.79593Q685.8719 343.79593 686.4344 343.92093Q687.0125 344.04593 687.4969 344.29593ZM702.66876 350.70218Q702.45 350.95218 702.325 351.0303Q702.2 351.0928 702.0125 351.0928Q701.6375 351.0928 701.41876 350.8428Q701.2 350.5928 701.2 350.0303L701.2 348.95218Q701.2 348.37405 701.41876 348.12405Q701.6375 347.87405 702.0125 347.87405Q702.29376 347.87405 702.48126 348.0303Q702.66876 348.17093 702.7625 348.5303Q702.8719 348.87405 702.98126 348.99905Q703.21564 349.23343 703.79376 349.48343Q704.3719 349.73343 705.0594 349.73343Q706.1219 349.73343 706.8094 349.23343Q707.2469 348.93655 707.2469 348.48343Q707.2469 348.18655 707.02814 347.93655Q706.825 347.67093 706.35626 347.49905Q706.04376 347.37405 704.95 347.17093Q703.6375 346.93655 702.96564 346.5928Q702.29376 346.24905 701.90314 345.62405Q701.5125 344.99905 701.5125 344.26468Q701.5125 343.12405 702.46564 342.26468Q703.4344 341.38968 704.98126 341.38968Q705.59064 341.38968 706.1219 341.5303Q706.65314 341.67093 707.075 341.95218Q707.3875 341.63968 707.7 341.63968Q708.0594 341.63968 708.27814 341.88968Q708.4969 342.13968 708.4969 342.70218L708.4969 343.9053Q708.4969 344.48343 708.27814 344.73343Q708.0594 344.98343 707.7 344.98343Q707.40314 344.98343 707.1844 344.79593Q707.0125 344.67093 706.91876 344.2803Q706.84064 343.87405 706.71564 343.70218Q706.48126 343.4053 706.02814 343.20218Q705.575 342.99905 704.98126 342.99905Q704.1219 342.99905 703.60626 343.4053Q703.10626 343.79593 703.10626 344.23343Q703.10626 344.5303 703.3094 344.81155Q703.52814 345.0928 703.91876 345.24905Q704.1844 345.35843 705.41876 345.60843Q706.65314 345.8428 707.3094 346.13968Q707.96564 346.42093 708.40314 347.04593Q708.84064 347.6553 708.84064 348.49905Q708.84064 349.68655 708.0125 350.4053Q706.90314 351.3428 705.1844 351.3428Q704.5125 351.3428 703.8875 351.17093Q703.2625 351.01468 702.66876 350.70218ZM716.45 351.10843L716.45 350.73343Q715.84064 351.04593 715.10626 351.20218Q714.3875 351.37405 713.79376 351.37405Q712.5125 351.37405 711.7 350.68655Q710.90314 349.99905 710.90314 349.17093Q710.90314 348.17093 711.91876 347.31155Q712.95 346.43655 714.7625 346.43655Q715.4969 346.43655 716.45 346.5928L716.45 346.2178Q716.45 345.85843 716.1375 345.63968Q715.825 345.4053 714.96564 345.4053Q714.2469 345.4053 713.1219 345.68655Q712.7 345.7803 712.46564 345.7803Q712.1375 345.7803 711.91876 345.56155Q711.7 345.32718 711.7 344.9678Q711.7 344.76468 711.77814 344.62405Q711.85626 344.4678 711.9969 344.37405Q712.1375 344.2803 712.575 344.1553Q713.16876 343.99905 713.77814 343.9053Q714.40314 343.79593 714.90314 343.79593Q716.40314 343.79593 717.21564 344.45218Q718.04376 345.0928 718.04376 346.20218L718.04376 349.49905L718.325 349.49905Q718.90314 349.49905 719.1375 349.73343Q719.3875 349.95218 719.3875 350.31155Q719.3875 350.6553 719.1375 350.88968Q718.90314 351.10843 718.325 351.10843L716.45 351.10843ZM716.45 348.23343Q715.48126 348.04593 714.66876 348.04593Q713.7 348.04593 712.9969 348.5303Q712.5594 348.82718 712.5594 349.13968Q712.5594 349.37405 712.7625 349.51468Q713.15314 349.76468 713.84064 349.76468Q714.41876 349.76468 715.1375 349.54593Q715.8719 349.31155 716.45 348.92093L716.45 348.23343ZM725.8094 340.9678L725.8094 349.49905L727.73126 349.49905Q728.3094 349.49905 728.54376 349.73343Q728.79376 349.95218 728.79376 350.31155Q728.79376 350.6553 728.54376 350.88968Q728.3094 351.10843 727.73126 351.10843L722.27814 351.10843Q721.7 351.10843 721.45 350.88968Q721.21564 350.6553 721.21564 350.29593Q721.21564 349.95218 721.45 349.73343Q721.7 349.49905 722.27814 349.49905L724.2 349.49905L724.2 342.57718L722.91876 342.57718Q722.34064 342.57718 722.09064 342.35843Q721.84064 342.12405 721.84064 341.76468Q721.84064 341.42093 722.09064 341.20218Q722.34064 340.9678 722.91876 340.9678L725.8094 340.9678ZM739.02814 348.37405L732.45 348.37405Q732.7 348.99905 733.34064 349.38968Q733.98126 349.76468 735.0594 349.76468Q735.95 349.76468 737.4344 349.37405Q738.04376 349.2178 738.27814 349.2178Q738.59064 349.2178 738.8094 349.45218Q739.02814 349.67093 739.02814 350.01468Q739.02814 350.32718 738.79376 350.54593Q738.48126 350.8428 737.2625 351.10843Q736.0594 351.37405 734.95 351.37405Q733.02814 351.37405 731.8719 350.2803Q730.71564 349.18655 730.71564 347.60843Q730.71564 345.92093 731.96564 344.85843Q733.21564 343.79593 734.84064 343.79593Q735.8094 343.79593 736.6219 344.13968Q737.45 344.48343 737.84064 344.88968Q738.40314 345.4678 738.77814 346.31155Q739.02814 346.9053 739.02814 347.68655L739.02814 348.37405ZM737.2469 346.76468Q736.8875 346.07718 736.29376 345.74905Q735.7 345.4053 734.8719 345.4053Q734.0594 345.4053 733.46564 345.74905Q732.8719 346.07718 732.4969 346.76468L737.2469 346.76468Z" fill-rule="nonzero"/><path fill="#9e9e9e" d="M696.65314 364.5928L692.9969 364.5928Q692.96564 365.06155 692.7469 365.2803Q692.54376 365.48343 692.2 365.48343Q691.84064 365.48343 691.60626 365.24905Q691.3875 364.99905 691.3875 364.42093L691.3875 362.99905L698.34064 362.99905L698.34064 364.5928L695.7469 372.31155Q695.59064 372.79593 695.3875 372.9678Q695.1844 373.12405 694.90314 373.12405Q694.575 373.12405 694.325 372.88968Q694.09064 372.6553 694.09064 372.3428Q694.09064 372.17093 694.21564 371.79593L696.65314 364.5928ZM708.4969 367.1553L708.4969 368.92093Q708.4969 370.48343 707.59064 371.92093Q706.7 373.3428 705.0125 373.3428Q704.04376 373.3428 703.3719 372.92093Q702.71564 372.48343 702.10626 371.3428Q701.5125 370.20218 701.5125 368.92093L701.5125 367.1553Q701.5125 365.60843 702.40314 364.17093Q703.3094 362.73343 704.9969 362.73343Q705.95 362.73343 706.6219 363.1553Q707.29376 363.57718 707.8875 364.73343Q708.4969 365.87405 708.4969 367.1553ZM706.8875 367.1553Q706.8875 365.85843 706.16876 364.87405Q705.7469 364.3428 704.9969 364.3428Q704.27814 364.3428 703.8094 364.93655Q703.1219 365.82718 703.1219 367.1553L703.1219 368.92093Q703.1219 370.23343 703.85626 371.20218Q704.2625 371.73343 705.0125 371.73343Q705.73126 371.73343 706.2 371.13968Q706.8875 370.24905 706.8875 368.92093L706.8875 367.1553ZM716.23126 372.29593Q716.23126 372.74905 715.90314 373.06155Q715.59064 373.37405 715.02814 373.37405Q714.46564 373.37405 714.1375 373.06155Q713.825 372.74905 713.825 372.29593Q713.825 371.8428 714.1375 371.54593Q714.46564 371.23343 715.02814 371.23343Q715.59064 371.23343 715.90314 371.54593Q716.23126 371.8428 716.23126 372.29593ZM728.4969 367.1553L728.4969 368.92093Q728.4969 370.48343 727.59064 371.92093Q726.7 373.3428 725.0125 373.3428Q724.04376 373.3428 723.3719 372.92093Q722.71564 372.48343 722.10626 371.3428Q721.5125 370.20218 721.5125 368.92093L721.5125 367.1553Q721.5125 365.60843 722.40314 364.17093Q723.3094 362.73343 724.9969 362.73343Q725.95 362.73343 726.6219 363.1553Q727.29376 363.57718 727.8875 364.73343Q728.4969 365.87405 728.4969 367.1553ZM726.8875 367.1553Q726.8875 365.85843 726.16876 364.87405Q725.7469 364.3428 724.9969 364.3428Q724.27814 364.3428 723.8094 364.93655Q723.1219 365.82718 723.1219 367.1553L723.1219 368.92093Q723.1219 370.23343 723.85626 371.20218Q724.2625 371.73343 725.0125 371.73343Q725.73126 371.73343 726.2 371.13968Q726.8875 370.24905 726.8875 368.92093L726.8875 367.1553ZM736.23126 365.32718Q736.23126 366.26468 735.575 366.93655Q734.91876 367.5928 733.98126 367.5928Q733.04376 367.5928 732.3719 366.93655Q731.71564 366.26468 731.71564 365.32718Q731.71564 364.38968 732.3719 363.73343Q733.04376 363.06155 733.98126 363.06155Q734.91876 363.06155 735.575 363.73343Q736.23126 364.38968 736.23126 365.32718ZM735.2469 365.32718Q735.2469 364.79593 734.8719 364.43655Q734.4969 364.06155 733.98126 364.06155Q733.45 364.06155 733.075 364.43655Q732.7 364.79593 732.7 365.32718Q732.7 365.85843 733.075 366.23343Q733.45 366.60843 733.98126 366.60843Q734.4969 366.60843 734.8719 366.23343Q735.2469 365.85843 735.2469 365.32718ZM738.1219 367.7178L732.21564 369.62405Q731.9969 369.70218 731.90314 369.70218Q731.71564 369.70218 731.575 369.56155Q731.4344 369.4053 731.4344 369.17093Q731.4344 369.01468 731.54376 368.87405Q731.6219 368.7803 731.91876 368.68655L737.825 366.76468Q738.04376 366.70218 738.1375 366.70218Q738.325 366.70218 738.46564 366.85843Q738.60626 366.99905 738.60626 367.2178Q738.60626 367.38968 738.4969 367.51468Q738.41876 367.62405 738.1219 367.7178ZM738.2625 371.07718Q738.2625 372.01468 737.59064 372.68655Q736.9344 373.3428 735.9969 373.3428Q735.0594 373.3428 734.3875 372.68655Q733.73126 372.01468 733.73126 371.07718Q733.73126 370.13968 734.3875 369.48343Q735.0594 368.81155 735.9969 368.81155Q736.9344 368.81155 737.59064 369.48343Q738.2625 370.13968 738.2625 371.07718ZM737.27814 371.07718Q737.27814 370.54593 736.90314 370.18655Q736.52814 369.81155 735.9969 369.81155Q735.48126 369.81155 735.10626 370.18655Q734.73126 370.54593 734.73126 371.07718Q734.73126 371.60843 735.10626 371.98343Q735.48126 372.3428 735.9969 372.3428Q736.52814 372.3428 736.90314 371.98343Q737.27814 371.60843 737.27814 371.07718Z" fill-rule="nonzero"/><path stroke="#757575" stroke-width="1.0" stroke-linecap="butt" d="M740.2 357.60843L602.2 357.60843L546.6269 357.60843" fill-rule="nonzero"/><path fill="#9e9e9e" d="M548.6269 357.60843C548.6269 356.50385 547.73145 355.60843 546.6269 355.60843C545.5223 355.60843 544.6269 356.50385 544.6269 357.60843C544.6269 358.71298 545.5223 359.60843 546.6269 359.60843C547.73145 359.60843 548.6269 358.71298 548.6269 357.60843" fill-rule="nonzero"/></svg>